<?xml version="1.0" encoding="utf-8"?>
<!-- Generator: Adobe Illustrator 24.1.1, SVG Export Plug-In . SVG Version: 6.00 Build 0)  -->
<svg version="1.1" id="Layer_1" xmlns="http://www.w3.org/2000/svg" xmlns:xlink="http://www.w3.org/1999/xlink" x="0px" y="0px"
	 width="1920px" height="1080px" viewBox="0 0 1920 1080" style="enable-background:new 0 0 1920 1080;" xml:space="preserve">
<style type="text/css">
	.st0{fill:#F1FAEE;}
</style>
<g>
	<path class="st0" d="M0,237c130.9,0,237-106.1,237-237H0V237z"/>
</g>
<g>
	<path class="st0" d="M257,237c130.9,0,237-106.1,237-237H20C20,130.9,126.1,237,257,237z"/>
</g>
<g>
	<path class="st0" d="M517,237c130.9,0,237-106.1,237-237H280C280,130.9,386.1,237,517,237z"/>
</g>
<g>
	<path class="st0" d="M784,237c130.9,0,237-106.1,237-237H547C547,130.9,653.1,237,784,237z"/>
</g>
<g>
	<path class="st0" d="M1050,237c130.9,0,237-106.1,237-237H813C813,130.9,919.1,237,1050,237z"/>
</g>
<g>
	<path class="st0" d="M1320,237c130.9,0,237-106.1,237-237h-474C1083,130.9,1189.1,237,1320,237z"/>
</g>
<g>
	<path class="st0" d="M1594,237c130.9,0,237-106.1,237-237h-474C1357,130.9,1463.1,237,1594,237z"/>
</g>
<g>
	<path class="st0" d="M1642,0c0,130.9,106.1,237,237,237c14,0,27.7-1.2,41-3.5V0H1642z"/>
</g>
</svg>
