<svg xmlns="http://www.w3.org/2000/svg" viewBox="0 0 228.37 465.34"><defs><style>.cls-1{fill:#fdd2bf;}.cls-2{fill:#e8af94;}.cls-10,.cls-3{fill:#3e3127;}.cls-4{fill:#59717a;}.cls-13,.cls-5{fill:#34454c;}.cls-6{fill:#637582;}.cls-12,.cls-25,.cls-7{fill:#fff;}.cls-8{fill:#8898a8;}.cls-9{fill:#455760;}.cls-10{opacity:0.4;}.cls-11{fill:#eec2ae;}.cls-12{opacity:0.45;}.cls-13,.cls-14{opacity:0.5;}.cls-14{fill:#657177;}.cls-15{fill:#c2d9dd;}.cls-16{fill:#963b3b;}.cls-17{fill:#872d2d;}.cls-18{fill:#c5d8e2;}.cls-19{fill:#24bacc;}.cls-20{fill:#19a5af;}.cls-21{fill:#eba42c;}.cls-22{fill:#d38a20;}.cls-23{fill:#dbcec8;}.cls-24{fill:#3c3127;}.cls-25{opacity:0.8;}</style></defs><title>Asset 55</title><g id="Layer_2" data-name="Layer 2"><g id="Layer_1-2" data-name="Layer 1"><path class="cls-1" d="M98.92,264.16h33.79a0,0,0,0,1,0,0v61.4a16.89,16.89,0,0,1-16.89,16.89h0a16.89,16.89,0,0,1-16.89-16.89v-61.4A0,0,0,0,1,98.92,264.16Z"/><path class="cls-2" d="M134.4,305.26V315.4a90.48,90.48,0,0,1-33.79.68V305.94a90.48,90.48,0,0,0,33.79-.68Z"/><path class="cls-3" d="M115.23,343.65a10,10,0,0,1-5.44-.46,20.86,20.86,0,0,1-3.44-1.48,16.24,16.24,0,0,1-2.45-1.62,22.29,22.29,0,0,1-5.19-6.56,17.09,17.09,0,0,1-1.79-7c-.06-.86,0-1.61,0-2.41s0-1.62,0-2.46c0-1.68,0-3.42,0-5.14.07-6.89.13-13.51.14-14.71,0-3.67.14-14.79,0-16.68s0-11.12-.08-13.65c0-1,0-2,0-3v-2.22c0-1.33,0-2.67,0-4l4.08-.09,2.22-.09c1.44-.05,2.88-.09,4.32-.06,2.66,0,5.33,0,8,0,.63,0,1.27,0,1.9,0,2.54.07,5.08.08,7.63.07l9.8,0q0,3.72,0,7.44l-.05,4.18c0,.88,0,1.78,0,2.65.15,4.82,0,9.62-.1,14.41,0,.64-.06,1.29,0,1.9.21,3.53,0,7.07.05,10.61,0,1.13,0,2.27,0,3.41,0,.89-.05,1.78,0,2.66.1,3.93,0,7.85.05,11.78,0,.25,0,.51,0,.76.05,1.05.07,2.09.08,3.14,0,.49,0,1.08-.06,1.67l-.06.87-.14.87a17.8,17.8,0,0,1-2.45,6.45,25.2,25.2,0,0,1-5.58,6.16,8.58,8.58,0,0,1-1.39.92,19.77,19.77,0,0,1-8,2.26l-.4,0c-.45,0-.92-.74-.91-.9a10.16,10.16,0,0,1,.89-1.17,7.19,7.19,0,0,1,1-1.14,8.91,8.91,0,0,1,.92-.27,5,5,0,0,0,2.45-1.2,5.5,5.5,0,0,1,1.33-.79,13,13,0,0,0,5.13-4.1,15.87,15.87,0,0,0,2.78-6l.22-1.39c0-.48.05-.95.07-1.42V290.24c0-1.9,0-3.79.11-5.68s.1-3.54.1-5.31l0-9.11v-4h-5.09L104.06,266c-.25,0-.51,0-.75,0-.52,0-1.17.07-1.92.09H101l-.14,0,0,.26c0,.75,0,1.52,0,2.29,0,1.56,0,3.1,0,4.49,0,2.78,0,4.94,0,5.29l0,11.78c0,3.91.06,7.82,0,11.74,0,3.41,0,6.84,0,10.25,0,.51,0,1,0,1.52,0,1.4,0,3.86-.09,6.82,0,1.48,0,3.08,0,4.74a15.85,15.85,0,0,0,.57,4.45,15,15,0,0,0,4.27,6.93,15.24,15.24,0,0,0,3.88,2.59,8.92,8.92,0,0,1,1.38.77,13.23,13.23,0,0,0,1.35.71,6.1,6.1,0,0,0,1.11.65,5.56,5.56,0,0,0,.81.23l.87.13c.56.1.85.34.7.57S115.41,343.42,115.23,343.65Z"/><circle class="cls-2" cx="123.68" cy="317.39" r="4.46"/><circle class="cls-2" cx="116.56" cy="322.53" r="1.99"/><rect class="cls-4" x="155.43" y="82.94" width="61.58" height="122.98" rx="30.47"/><path class="cls-5" d="M214.36,99.77H159.22a30.47,30.47,0,0,1,8.91-10.69h37.33A30.53,30.53,0,0,1,214.36,99.77Z"/><path class="cls-6" d="M37.48,203.1h-.64C20,203.1,25,191.52,25,174.69L9.89,116.45a29.82,29.82,0,0,1,3-22.89,27.33,27.33,0,0,1,23.9-13.44h.64A30.48,30.48,0,0,1,68,110.6v62A30.47,30.47,0,0,1,37.48,203.1Z"/><path class="cls-5" d="M67.06,102.24a47.15,47.15,0,0,1-49.62-13,29.09,29.09,0,0,1,6-4.13,47.19,47.19,0,0,0,41,11.46A29.37,29.37,0,0,1,67.06,102.24Z"/><path class="cls-3" d="M189.09,208.42h-.63a33,33,0,0,1-33-33v-62a33,33,0,0,1,33-33h.63a33,33,0,0,1,33,33h-5a28,28,0,0,0-28-28h-.63a28,28,0,0,0-28,28v62a28,28,0,0,0,28,28h.63a28,28,0,0,0,28-28h5A33,33,0,0,1,189.09,208.42Z"/><path class="cls-3" d="M39.22,204.51a14.44,14.44,0,0,1-8-.65,11.58,11.58,0,0,1-7.25-7.51,29.14,29.14,0,0,1-1.09-6c-.18-2-.25-3.87-.31-5.76-.06-1.73,0-5.35,0-9.52L19.2,161.33l-5.14-21.12c-.64-2.63-1.94-7.94-3.16-12.93s-2.46-9.55-2.74-11.15c-.09-.38-.22-.94-.34-1.64S7.69,113,7.61,112a17.91,17.91,0,0,1,0-3l.06-1.64.24-1.67a34.5,34.5,0,0,1,3.35-10.57L11.76,94c.19-.35.42-.69.63-1,.44-.67.88-1.35,1.33-2a42.14,42.14,0,0,1,7.13-7.37A29.47,29.47,0,0,1,30,78.86a33.11,33.11,0,0,1,6.31-1.18l1.6-.16,1.59,0c1,0,2.11.08,3.16.13l.76,0,.76.11c.5.07,1,.14,1.51.23a34.28,34.28,0,0,1,14.83,6.71,32.76,32.76,0,0,1,9.91,12.91c.4,1,.76,2.11,1.13,3.16l.8,3.25.3,2.11.15,1,.07,1c.06.94.16,2,.17,2.85l0,2.66,0,5.33-.18,10.63c0,.94-.07,1.9,0,2.8.25,5.23,0,10.46,0,15.68,0,1.68,0,3.37,0,5.05,0,1.31-.06,2.63,0,3.93.07,2.9.07,5.8.07,8.7v6.53c0,.74-.07,1.55-.1,2.32,0,.4,0,.81,0,1.21a30,30,0,0,1-2.43,9.66,33.12,33.12,0,0,1-5.46,8.23,43.15,43.15,0,0,1-9.22,7.54c-.67.38-1.42.78-2.12,1.09a35.84,35.84,0,0,1-11.62,2.64c-.19,0-.38,0-.57,0A1.71,1.71,0,0,1,40,204a10.19,10.19,0,0,1,1.32-1.42A6.37,6.37,0,0,1,43,201.25a13.48,13.48,0,0,1,1.42-.38,10.05,10.05,0,0,0,3.91-1.45,7.83,7.83,0,0,1,2.17-1A25.18,25.18,0,0,0,59.12,193a29.33,29.33,0,0,0,6.1-8.23,25,25,0,0,0,2.5-8.36A19,19,0,0,0,68,173.7c.07-.88.06-1.89.06-2.88V129c0-2.81,0-5.6.13-8.4.09-2.6.12-5.23.13-7.85,0-1.11,0-2.27-.07-3.27l-.08-1.56c0-.52-.15-1-.22-1.54l-.25-1.54-.4-1.51a22.12,22.12,0,0,0-1-2.95,28.93,28.93,0,0,0-4.4-7.61,30.09,30.09,0,0,0-6.56-5.88l-1.58-1c-.52-.33-1.1-.56-1.65-.84a30,30,0,0,0-3.43-1.39,28,28,0,0,0-7.27-1.3A27.49,27.49,0,0,0,27,85.32a6.58,6.58,0,0,0-.92.46c-.61.45-1.38,1-2.27,1.58-.43.33-.85.71-1.31,1.09a15.61,15.61,0,0,0-1.4,1.23,26.88,26.88,0,0,0-2.69,3,29.07,29.07,0,0,0-2.36,3.4,28.65,28.65,0,0,0-3.59,10.26,26.71,26.71,0,0,0-.28,4,14.75,14.75,0,0,0,.11,2,19.07,19.07,0,0,0,.2,2c.29,1.33.45,2.56.85,4l1.06,4.23c1.38,5.61,2.88,11.19,4.22,16.83,1.17,4.9,2.46,9.79,3.7,14.69.19.72.39,1.45.56,2.17l2.35,9.8,1.66,6.8.22.9.09.35a2.07,2.07,0,0,1,.08.42v.7c0,.63,0,1.26,0,1.89,0,1.25-.06,2.5-.08,3.75-.12,5-.21,9.75.61,13.06A7.86,7.86,0,0,0,31,199.05c.61.42,1.16.77,1.73,1.17a12.12,12.12,0,0,0,1.95.93,10.23,10.23,0,0,0,1.7.79,16,16,0,0,0,2.54.38c.85.11,1.3.37,1.07.65S39.47,204.24,39.22,204.51Z"/><rect class="cls-2" x="2.5" y="171.24" width="45.05" height="37.17" rx="18.58"/><rect class="cls-1" x="10.62" y="176.84" width="28.81" height="23.77" rx="11.88"/><path class="cls-3" d="M29,209.84H21.08a21.09,21.09,0,0,1,0-42.17H29a21.09,21.09,0,0,1,0,42.17Zm-7.89-37.17a16.09,16.09,0,0,0,0,32.17H29a16.09,16.09,0,0,0,0-32.17Z"/><rect class="cls-2" x="180.82" y="171.24" width="45.05" height="37.17" rx="18.58"/><rect class="cls-1" x="188.95" y="176.84" width="28.81" height="23.77" rx="11.88"/><path class="cls-3" d="M207.29,209.84h-7.88a21.09,21.09,0,1,1,0-42.17h7.88a21.09,21.09,0,0,1,0,42.17Zm-7.88-37.17a16.09,16.09,0,1,0,0,32.17h7.88a16.09,16.09,0,0,0,0-32.17Z"/><rect class="cls-1" x="23.9" y="68.19" width="180.2" height="237.99" rx="90.1"/><path class="cls-7" d="M117.45,307.75c-1.15.05-2.31.07-3.47.07a90.1,90.1,0,0,1-90.1-90.1V159.93A90.1,90.1,0,0,1,114,69.83c1.16,0-5.68,0-4.53.07-48.16,1.81-75.64,41.43-75.64,90v57.79C33.81,266.32,69.29,305.94,117.45,307.75Z"/><path class="cls-2" d="M204.78,222.77A90.1,90.1,0,0,1,56,284.73a102.64,102.64,0,0,0,148.77-62Z"/><path class="cls-2" d="M183.89,100.12H81.25A46.9,46.9,0,0,1,56.68,107c-5.66,0-7.08-1-12.1-2.82A89.61,89.61,0,0,1,55.37,90.68c1.74.2-.49.3,1.31.3a46.9,46.9,0,0,0,24.57-6.91h87.57q3.15,2.61,6,5.51A89,89,0,0,1,183.89,100.12Z"/><path class="cls-3" d="M114,309.25a92.7,92.7,0,0,1-92.6-92.6V158.86a92.6,92.6,0,0,1,185.2,0v57.79A92.7,92.7,0,0,1,114,309.25Zm0-238a87.7,87.7,0,0,0-87.6,87.6v57.79a87.6,87.6,0,0,0,175.2,0V158.86A87.7,87.7,0,0,0,114,71.26Z"/><path class="cls-6" d="M206,89.08A80.53,80.53,0,0,0,125.47,8.55H79.1a47.17,47.17,0,1,0,0,80.53Z"/><path class="cls-8" d="M206,89.06h-.13c-2.35-42.36-37.45-72.16-80.4-72.16H79.1A47,47,0,0,0,54.52,10C29.24,10,8.59,26.07,7.41,51.07c0-.75,0-1.51,0-2.27A47.18,47.18,0,0,1,79.1,8.53h46.37A80.54,80.54,0,0,1,206,89.06Z"/><path class="cls-9" d="M205.05,75H79.1A47.18,47.18,0,0,1,7.77,40.89a48.63,48.63,0,0,0-.41,6.19A47.18,47.18,0,0,0,79.1,87.35H206A81.66,81.66,0,0,0,205.05,75Z"/><path class="cls-10" d="M25.75,63.51A26.58,26.58,0,0,1,46.48,20.3v5A21.6,21.6,0,0,0,24.9,46.88a21.29,21.29,0,0,0,4.75,13.5Z"/><path class="cls-3" d="M51.77,52.37v-5a10.93,10.93,0,0,0,0-21.85v-5a15.93,15.93,0,0,1,0,31.85Z"/><circle class="cls-9" cx="180.45" cy="70.33" r="9.01"/><circle class="cls-9" cx="168.97" cy="56.79" r="4.02"/><circle class="cls-8" cx="105" cy="20.42" r="6.49"/><circle class="cls-8" cx="113.27" cy="30.17" r="2.89"/><path class="cls-3" d="M17.39,181.24a9.53,9.53,0,0,0-.24,16,2.74,2.74,0,0,1-.26,2.2c-.51,1-1.71,1.33-2,1.12a13.34,13.34,0,0,1-4.9-7.17,13,13,0,0,1,.53-8.4A12.49,12.49,0,0,1,13.42,181a7.64,7.64,0,0,1,1.45-1.4c.75-.54,1.62-.81,1.88-.33C17.29,180.25,17.58,181.12,17.39,181.24Z"/><path class="cls-3" d="M213.58,177.23a14,14,0,0,1,.36,23.49c-.3.22-1.63-.32-2.27-1.53a3.92,3.92,0,0,1-.54-2.61,9.26,9.26,0,0,0,4-4.54,9.85,9.85,0,0,0,.38-6.4,10.41,10.41,0,0,0-1.62-3.7l-1.31-1.15c-.58-.53-1.13-1.11-.79-1.72C212.49,177.87,213.28,177,213.58,177.23Z"/><path class="cls-3" d="M84.46,114l3.65.45c1.2.15,2.39.28,3.59.39q3.6.33,7.21.45c2.39.08,4.81,0,7.29.06h7.37c4.89,0,9.88,0,14.68,0a127.9,127.9,0,0,0,14.43-1.16c.72-.09,2.74.79,2.91,2.16s-1.57,2.71-2.29,2.8a133.2,133.2,0,0,1-20,.72l-19.71-.52c-3.9-.16-7.82-.49-11.68-1-.36,0-2.7-.13-4.9-.47s-4.28-.83-4.2-1.51C83,115,83.74,113.93,84.46,114Z"/><path class="cls-3" d="M92.44,105.34l2.69.33c.87.11,1.74.2,2.61.28q2.63.24,5.25.33c1.75.06,3.51,0,5.34,0h5.41c3.59,0,7.27,0,10.77,0a93.92,93.92,0,0,0,10.53-.84,2.58,2.58,0,0,1,.62,5,98.11,98.11,0,0,1-14.74.39l-14.48-.51c-2.87-.17-5.76-.46-8.6-.9-.55,0-6.85-.33-6.66-1.7S91.92,105.27,92.44,105.34Z"/><rect class="cls-2" x="124.72" y="136.85" width="59.42" height="14.41" rx="7.2" transform="translate(41.78 -34.58) rotate(14.76)"/><rect class="cls-6" x="127.27" y="132.44" width="59.42" height="14.41" rx="7.2" transform="translate(40.74 -35.38) rotate(14.76)"/><path class="cls-3" d="M179.43,150.53a5.21,5.21,0,0,0,.68-10.18l-3.8-1-7.64-2-30.57-8.05-1-.26-.45-.11-.35-.08a5.2,5.2,0,0,0-1.42-.05,5.06,5.06,0,0,0-2.63,1,5.19,5.19,0,0,0,1.58,9.11l7.55,2L172,149c1.5.4,5.2,2.3,4.92,3.37s-4.44.9-5.94.5l-20.39-5.58-10.19-2.79-5.1-1.4-1.27-.34c-.43-.13-.81-.21-1.36-.4a8.94,8.94,0,0,1-2.81-1.57,8.73,8.73,0,0,1-1.69-11.57,8.57,8.57,0,0,1,8.21-3.78,5.08,5.08,0,0,1,.78.13c.26,0,.52.11.72.17l1.27.35,20.38,5.58,12,3.38,6,1.69,3,.85a8.45,8.45,0,0,1,3,1.47,8.14,8.14,0,0,1,2.55,3.22,7.82,7.82,0,0,1-.47,7.18,7.55,7.55,0,0,1-5.77,3.65c-1.91.12-3-.52-2.94-.74a2.26,2.26,0,0,1,1-1.24A3.44,3.44,0,0,1,179.43,150.53Z"/><rect class="cls-2" x="50.91" y="136.83" width="59.42" height="14.41" rx="7.2" transform="translate(1.96 -1.08) rotate(0.78)"/><rect class="cls-6" x="50.98" y="131.92" width="59.42" height="14.41" rx="7.2" transform="translate(1.9 -1.08) rotate(0.78)"/><path class="cls-3" d="M105.64,144a5.2,5.2,0,0,0-1.8-10l-3.93-.06L92,133.8l-31.6-.43h-1c-.15,0-.35,0-.47,0h-.36a5.06,5.06,0,0,0-1.39.29,5.13,5.13,0,0,0-2.3,1.62,5.19,5.19,0,0,0,3.73,8.46l7.81.12,31.61.43c1.55,0,5.6,1,5.59,2.08s-4.1,1.94-5.65,1.92l-21.13-.49-10.56-.25L61,147.43l-1.32,0c-.45,0-.84,0-1.42-.06a8.62,8.62,0,0,1-3.1-.84,8.72,8.72,0,0,1-4.44-10.82,8.61,8.61,0,0,1,4.06-4.7,8.36,8.36,0,0,1,3-.95,4.1,4.1,0,0,1,.78-.06c.27,0,.53,0,.74,0l1.32,0,21.13.49,12.44.39,6.22.19,3.11.1a8.64,8.64,0,0,1,3.32.7,8,8,0,0,1,3.24,2.5,7.84,7.84,0,0,1,1.29,7.08,7.58,7.58,0,0,1-4.72,4.94c-1.82.58-3.06.23-3,0a2.22,2.22,0,0,1,.68-1.45A3.54,3.54,0,0,1,105.64,144Z"/><circle class="cls-2" cx="155.06" cy="100.93" r="5.54"/><circle class="cls-2" cx="163.08" cy="107.7" r="2.77"/><path class="cls-2" d="M175.93,268a69.83,69.83,0,0,1-12.68,10c-4.55,2.86-9.27,5.35-14,7.8-.35.18-1.47.26-1.72-.23s.45-1.36.8-1.54a147.76,147.76,0,0,0,18.49-10.35c1.72-1.16,3.41-2.37,5-3.69l1.93-1.78c.87-.81,1.74-1.56,1.94-1.37C176.12,267.13,176.22,267.67,175.93,268Z"/><path class="cls-2" d="M180.65,262.23a12.67,12.67,0,0,1-3.21,3.63c-.05,0-.44-.23-.77-.67a2,2,0,0,1-.45-.92,10.42,10.42,0,0,0,2.27-1.68,8.64,8.64,0,0,0,.67-.56s.2-.67.68-.39S180.68,262.17,180.65,262.23Z"/><path class="cls-2" d="M185.47,256.85l-3.53,3.86a1.61,1.61,0,0,1-.89-.5c-.41-.38-.63-.8-.58-.85l2.66-2.3.86-.62s.42-.72.82-.35S185.52,256.8,185.47,256.85Z"/><path class="cls-11" d="M197.26,220.67V178.22c0-.52.45-1.89,1-1.89s1,1.37,1,1.89l-.41,28.38-.22,8.36c0,.52.18,6.65-.37,6.65A1,1,0,0,1,197.26,220.67Z"/><path class="cls-7" d="M46,259.62a70.13,70.13,0,0,1-6.62-16.32c-.06-.22,0-.82.29-.89s.62.42.68.63a67.54,67.54,0,0,0,3.73,11c.44,1.06.9,2.11,1.4,3.15.08.2,1.38,2.37,1.14,2.5A.44.44,0,0,1,46,259.62Z"/><path class="cls-12" d="M52.35,270.82A33.1,33.1,0,0,1,47,262.61a.57.57,0,0,1,.28-.59.59.59,0,0,1,.63.18,32,32,0,0,0,3,5.62c.34.53.69,1.05,1.06,1.56.07.1,1,1.09.84,1.27S52.43,270.91,52.35,270.82Z"/><path class="cls-8" d="M172.87,35.4A60.06,60.06,0,0,0,142.7,22.07c-.41-.05-1.45-.41-1.42-.69s1.14-.35,1.55-.3a60.93,60.93,0,0,1,21.31,7.37,58.62,58.62,0,0,1,5.57,3.65c.18.11,1.25.88,2.25,1.67s1.89,1.63,1.8,1.73S173.18,35.67,172.87,35.4Z"/><path class="cls-8" d="M180.41,45.13a38.6,38.6,0,0,0-8-6.81c-3-1.94-6.1-3.61-9.26-5.26-.23-.12-.74-.64-.61-.88s.84-.13,1.07,0a83.6,83.6,0,0,1,12.2,7.59,38.32,38.32,0,0,1,3.15,2.83c.1.08.72.66,1.27,1.26s1,1.22.9,1.31A.5.5,0,0,1,180.41,45.13Z"/><path class="cls-9" d="M122.5,72.26l-40.16.4c-.49,0-1.79-.65-1.8-1.48s1.27-1.51,1.77-1.52l26.86.34,7.91.25c.49,0,6.29-.33,6.3.5S123,72.25,122.5,72.26Z"/><path class="cls-9" d="M140,66.48a96.1,96.1,0,0,1-15.27,0,95.68,95.68,0,0,0-14.85-.12,1.77,1.77,0,0,1-1.44-1.4,1.74,1.74,0,0,1,1.23-1.59,87.11,87.11,0,0,1,10.22.14c3.4.24,6.72.66,10,.87,2,.18,3.91.27,5.88.32.19,0,1.35-.13,2.48-.16s2.22,0,2.26.42C140.57,65.76,140.32,66.45,140,66.48Z"/><path class="cls-13" d="M210.57,105.13a108.53,108.53,0,0,0-17.48,0c-.21,0-.85-.83-1-1.93s.41-2,.63-2.06a113.43,113.43,0,0,1,12.1.5c1.17.18,2.35.37,3.51.59.22,0,2.84-.17,2.75.94S210.78,105.15,210.57,105.13Z"/><path class="cls-14" d="M211.21,108h-6.94c-.09,0-.31-.45-.31-1s.22-1,.31-1l4.64.41,1.36.22c.09,0,1.09-.18,1.09.37S211.29,108,211.21,108Z"/><path class="cls-3" d="M114.69,214.71a2.5,2.5,0,0,1-2.5-2.5V191.55a2.5,2.5,0,0,1,5,0v20.66A2.5,2.5,0,0,1,114.69,214.71Z"/><circle class="cls-2" cx="81.95" cy="183.59" r="22.81"/><circle class="cls-2" cx="147.2" cy="183.59" r="22.81"/><circle class="cls-7" cx="82.18" cy="176.99" r="22.81"/><rect class="cls-3" x="75.2" y="162.97" width="11.31" height="28.26" rx="5.65"/><circle class="cls-7" cx="86.08" cy="172.15" r="5.31"/><circle class="cls-7" cx="147.25" cy="176.99" r="22.81"/><rect class="cls-3" x="141.83" y="162.97" width="11.31" height="28.26" rx="5.65"/><circle class="cls-7" cx="152.71" cy="172.15" r="5.31"/><path class="cls-15" d="M170.06,177.48a22.81,22.81,0,1,1-45.61,0,20.21,20.21,0,0,1,.1-2.07,22.8,22.8,0,0,0,45.41,0A20.21,20.21,0,0,1,170.06,177.48Z"/><path class="cls-15" d="M105,179.48c0,12.6-10.21,20.81-22.81,20.81a22.8,22.8,0,0,1-22.8-22.81,18.09,18.09,0,0,0,.1,1.93c1.05,11.62,10.81,16.72,22.7,16.72s21.66-5.1,22.71-16.72C105,180.09,105,178.78,105,179.48Z"/><path class="cls-3" d="M127,179.9a20.36,20.36,0,0,0,12.32,17.37,20.08,20.08,0,0,0,7.26,1.57,20.3,20.3,0,0,0,13.79-4.8,20,20,0,0,0,7-12.82,4.4,4.4,0,0,1,.87-1.56,2.64,2.64,0,0,1,1.83-1.09,2.13,2.13,0,0,1,1.7,1.27,3.41,3.41,0,0,1,.56,2,25,25,0,0,1-14.18,19A24.55,24.55,0,0,1,135,199.51a23.31,23.31,0,0,1-5.27-4.57,23,23,0,0,1-3.71-5.81,19.75,19.75,0,0,1-2-5.44c-.51-2.6-.25-5.15.41-5.12C125.82,178.58,127,179.18,127,179.9Z"/><path class="cls-3" d="M61.32,179.53a20.3,20.3,0,0,0,33.37,14.15,20.07,20.07,0,0,0,7-12.83,4.4,4.4,0,0,1,.87-1.56,2.64,2.64,0,0,1,1.83-1.09,2.16,2.16,0,0,1,1.7,1.27,3.46,3.46,0,0,1,.56,2,25,25,0,0,1-14.18,18.95,24.5,24.5,0,0,1-23.14-1.31A23.27,23.27,0,0,1,64,194.58a22.83,22.83,0,0,1-3.71-5.82,19.75,19.75,0,0,1-2-5.44c-.51-2.6-.25-5.14.41-5.12C60.13,178.22,61.29,178.81,61.32,179.53Z"/><rect class="cls-3" x="216.01" y="115.73" width="6" height="2.5"/><path class="cls-3" d="M222,170.31h-6v-4.65h6Zm0-7.44h-6v-4.65h6Zm0-7.44h-6v-4.65h6Zm0-7.44h-6v-4.65h6Zm0-7.44h-6V135.9h6Zm0-7.44h-6v-4.65h6Zm0-7.44h-6V121h6Z"/><rect class="cls-3" x="216.01" y="173.1" width="6" height="2.5"/><path class="cls-16" d="M75.95,220.88h76.57a4.2,4.2,0,0,1,4.2,4.2v25.6a37.62,37.62,0,0,1-37.62,37.62h0a47.35,47.35,0,0,1-47.35-47.35V225.08a4.2,4.2,0,0,1,4.2-4.2Z"/><ellipse class="cls-17" cx="114.9" cy="257.95" rx="23.69" ry="15.75"/><circle class="cls-17" cx="111.28" cy="273.25" r="5.67"/><circle class="cls-17" cx="120.33" cy="279.78" r="2.53"/><path class="cls-17" d="M98.45,281a1,1,0,0,1-.47-.12C86.53,274.79,80.73,267.86,78,257a1,1,0,1,1,1.94-.5c2.64,10.39,8,16.74,19,22.64a1,1,0,0,1-.47,1.89Z"/><path class="cls-7" d="M146.6,220.88v13.27c0,1.87-2,3.39-4.51,3.39H85.28c-2.49,0-4.5-1.52-4.5-3.39v-9.87c0-1.88,2-3.4,4.5-3.4Z"/><rect class="cls-18" x="80.62" y="221.82" width="67.26" height="5.48"/><path class="cls-3" d="M143.39,239.54h-58c-3.7,0-6.6-2.37-6.6-5.39V220.88h4v13.27c0,.57,1,1.39,2.6,1.39h58c1.56,0,2.6-.84,2.6-1.39V220.88h4v13.27C150,237.17,147.09,239.54,143.39,239.54Z"/><path class="cls-9" d="M36.57,106.81a46,46,0,0,0-9.64,17.85,1.67,1.67,0,0,1-1.7.5c-.8-.2-1.27-1-1.19-1.31a48.36,48.36,0,0,1,6.46-12.91c.86-1.13,1.75-2.22,2.7-3.26.12-.23,1.92-2.77,2.55-2.21S36.74,106.63,36.57,106.81Z"/><path class="cls-9" d="M31.33,105.38a16.56,16.56,0,0,0-4.66,6.55,2.55,2.55,0,0,1-1.54-.17c-.78-.28-1.3-.8-1.26-.92a19.2,19.2,0,0,1,3.74-5.09c.48-.39,1-.77,1.48-1.11.06-.08.88-1.18,1.41-.53S31.4,105.32,31.33,105.38Z"/><rect class="cls-19" x="78.74" y="325.61" width="72.31" height="119.25" transform="translate(-2.12 0.64) rotate(-0.32)"/><circle class="cls-20" cx="130.13" cy="357.4" r="7.58"/><circle class="cls-20" cx="120.41" cy="346.07" r="3.38"/><rect class="cls-21" x="87.46" y="450.84" width="55.88" height="7.98" transform="matrix(1, -0.01, 0.01, 1, -2.5, 0.64)"/><rect class="cls-21" x="87.5" y="450.1" width="55.88" height="7.98"/><rect class="cls-21" x="86.67" y="451.38" width="55.88" height="6.57"/><rect class="cls-22" x="86.67" y="446.73" width="55.88" height="4.64"/><rect class="cls-3" x="86.98" y="444.23" width="56.61" height="4"/><rect class="cls-3" x="86.67" y="456.96" width="57.24" height="4"/><rect class="cls-3" x="104.67" y="447.55" width="4" height="12.84"/><rect class="cls-3" x="120.12" y="446.55" width="4" height="13.84"/><circle class="cls-3" cx="116.09" cy="453.09" r="1.33"/><path class="cls-7" d="M79.53,438.22H54.31V353.66a18.86,18.86,0,0,1,18.86-18.85h6.36Z"/><path class="cls-1" d="M73.87,438.4v21.06h-.49c-11,0-19.92-9.43-19.92-21.06Z"/><path class="cls-7" d="M88,462.93H77.09A2.92,2.92,0,0,1,74.17,460V338.26a16.91,16.91,0,0,1,16.91-16.91h0L94,456.84A6,6,0,0,1,88,462.93Z"/><path class="cls-20" d="M147,435h0c-7.31,0-13.23-13.31-13.23-29.74l-1.07-75.72,14.3-5.36Z"/><path class="cls-3" d="M87.68,465.34H76.78a4.92,4.92,0,0,1-4.92-4.91V338.67a18.94,18.94,0,0,1,18.91-18.91h2l2.91,137.45a8,8,0,0,1-8,8.13Zm1.14-141.45a14.93,14.93,0,0,0-13,14.78V460.43a.92.92,0,0,0,.92.91h10.9a4,4,0,0,0,4-4Z"/><path class="cls-3" d="M73.86,462.22h-.48c-12.09,0-21.92-10.34-21.92-23.06V417.07h.06c-.2-1.9-.19-6.81-.15-21.12,0-10.49.09-20.95.09-20.95V355.87c0-12.72,9.83-23.06,21.92-23.06h.48v4h-.48c-9.88,0-17.92,8.55-17.92,19.06V375c-.08,14.89-.16,37-.05,41.18l.05.05v22.92c0,10.51,8,19.06,17.92,19.06h.48Z"/><rect class="cls-3" x="53.46" y="437.16" width="20.4" height="4"/><path class="cls-19" d="M140.39,321.34c0,6.59-10.83,11.92-24.19,11.92S92,327.93,92,321.34c0-3,2.24-5.71,5.94-7.8,4.44,2.51,11,4.09,18.24,4.09s13.81-1.58,18.24-4.09C138.15,315.63,140.39,318.36,140.39,321.34Z"/><path class="cls-20" d="M140.76,320.43c0,6.58-10.83,11.9-24.19,11.9-.88,0-1.74,0-2.59-.07a3.5,3.5,0,0,1,.11-.79,5.74,5.74,0,0,1,3.07-3.6,19.25,19.25,0,0,1,4.65-1.48,26.5,26.5,0,0,0,7.44-2.68,10.79,10.79,0,0,0,5-5.92,9.06,9.06,0,0,0,.05-4.9c.17-.09.34-.17.5-.27C138.52,314.71,140.76,317.44,140.76,320.43Z"/><path class="cls-3" d="M116.53,334.79c-14.68,0-26.18-6.11-26.18-13.91,0-3.63,2.47-7,7-9.55l1-.55,1,.56c4.31,2.43,10.59,3.83,17.26,3.83s13-1.4,17.25-3.83l1-.56,1,.55c4.5,2.53,7,5.92,7,9.55C142.72,328.68,131.21,334.79,116.53,334.79ZM98.35,315.38c-2.59,1.66-4,3.59-4,5.5,0,5.84,11.69,9.91,22.18,9.91s22.19-4.07,22.19-9.91c0-1.91-1.42-3.84-4-5.51-4.8,2.42-11.34,3.8-18.18,3.8S103.16,317.79,98.35,315.38Z"/><path class="cls-7" d="M145.4,460.87h10.9a2.91,2.91,0,0,0,2.91-2.92V336.2a16.91,16.91,0,0,0-16.91-16.91h0l-2.87,135.49A6,6,0,0,0,145.4,460.87Z"/><line class="cls-7" x1="185.75" y1="445.16" x2="165.35" y2="445.16"/><path class="cls-7" d="M154.28,331.92h0a25.22,25.22,0,0,1,25.22,25.22v78.19H154.28Z"/><rect class="cls-23" x="158.36" y="332.34" width="6.31" height="104.59"/><path class="cls-1" d="M158,436.32v21.06h.49c11,0,19.92-9.43,19.92-21.06Z"/><path class="cls-2" d="M164,437.41v20.52a19,19,0,0,1-4.48.54H159V437.41Z"/><path class="cls-23" d="M157.43,442.42v14.23a2.91,2.91,0,0,1-2.91,2.92H143.61a5.9,5.9,0,0,1-4.73-2.35A21.22,21.22,0,0,0,157.43,442.42Z"/><circle class="cls-23" cx="150.43" cy="450.04" r="2.98"/><circle class="cls-23" cx="146.61" cy="445.59" r="1.33"/><rect class="cls-3" x="176.95" y="370.72" width="3" height="3.5"/><path class="cls-3" d="M180,394h-3v-5.77h3Zm0-9.88h-3v-5.77h3Z"/><rect class="cls-3" x="176.95" y="398.09" width="3" height="3.5"/><path class="cls-3" d="M155.44,462.87h-10.9a8,8,0,0,1-8-8.13l2.91-137.45h2a18.93,18.93,0,0,1,18.91,18.91V458A4.93,4.93,0,0,1,155.44,462.87Zm-12-141.45-2.82,133.4a4,4,0,0,0,4,4.05h10.9a.92.92,0,0,0,.92-.92V336.2A14.93,14.93,0,0,0,143.4,321.42Z"/><path class="cls-3" d="M158.84,459.75h-.48v-4h.48c9.88,0,17.92-8.55,17.92-19.06V403.6h4v33.09C180.76,449.41,170.92,459.75,158.84,459.75Z"/><path class="cls-3" d="M180.76,368.27h-4V353.4c0-10.51-8-19.06-17.92-19.06h-.48v-4h.48c12.08,0,21.92,10.34,21.92,23.06Z"/><rect class="cls-3" x="158.36" y="434.69" width="20.4" height="4"/><path class="cls-24" d="M53.85,415.68a1,1,0,0,1-.7-.28,1,1,0,0,1,0-1.42l12.28-12.59a1,1,0,1,1,1.43,1.4L54.56,415.38A1,1,0,0,1,53.85,415.68Z"/><path class="cls-24" d="M58.85,404.11a1,1,0,0,1-.7-.28,1,1,0,0,1,0-1.41l7.28-7.6a1,1,0,1,1,1.45,1.39l-7.28,7.59A1,1,0,0,1,58.85,404.11Z"/><path class="cls-3" d="M114.24,290.29a44.53,44.53,0,0,1-44.49-44.48V225.34a6.47,6.47,0,0,1,6.46-6.46h76.06a6.47,6.47,0,0,1,6.45,6.46v20.47A44.53,44.53,0,0,1,114.24,290.29Zm-38-67.41a2.46,2.46,0,0,0-2.46,2.46v20.47a40.49,40.49,0,0,0,81,0V225.34a2.46,2.46,0,0,0-2.45-2.46Z"/><path class="cls-7" d="M50.53,114.17a75.23,75.23,0,0,0-5,10.82c-.72,1.87-1.41,3.76-2.09,5.65a28.72,28.72,0,0,0-1.57,5.61c0,.27-.56.95-1.11.92s-.92-.89-.87-1.2a40.19,40.19,0,0,1,2.56-7.86c1-2.51,2-5,3.12-7.49q1-2.16,2.19-4.25c.1-.28,1.65-3.46,2.14-3.16S50.67,113.92,50.53,114.17Z"/><path class="cls-25" d="M38.27,145.14l.63-5.72a1.53,1.53,0,0,1,1-.14,1.58,1.58,0,0,1,1,.36l-.83,3.78-.34,1.1c0,.07.08.91-.47.85A2.19,2.19,0,0,1,38.27,145.14Z"/><path class="cls-3" d="M54.52,99.33A49.67,49.67,0,1,1,79.79,6.9h45.68a83.13,83.13,0,0,1,83,83,2.5,2.5,0,0,1-2.5,2.5H79.79A49.54,49.54,0,0,1,54.52,99.33ZM54.52,5A44.67,44.67,0,1,0,77.79,87.8a2.54,2.54,0,0,1,1.31-.37H203.46a78.14,78.14,0,0,0-78-75.53H79.1a2.53,2.53,0,0,1-1.31-.36A44.52,44.52,0,0,0,54.52,5Z"/></g></g></svg>