<?xml version="1.0" encoding="utf-8"?>
<!-- Generator: Adobe Illustrator 24.1.1, SVG Export Plug-In . SVG Version: 6.00 Build 0)  -->
<svg version="1.1" id="Layer_1" xmlns="http://www.w3.org/2000/svg" xmlns:xlink="http://www.w3.org/1999/xlink" x="0px" y="0px"
	 width="1920px" height="1080px" viewBox="0 0 1920 1080" style="enable-background:new 0 0 1920 1080;" xml:space="preserve">
<style type="text/css">
	.st0{fill:none;stroke:#000000;stroke-width:9;stroke-miterlimit:10;}
	.st1{fill:#FFFFFF;stroke:#000000;stroke-width:7;stroke-miterlimit:10;}
	.st2{fill:none;stroke:#000000;stroke-width:6;stroke-miterlimit:10;}
</style>
<g id="Background">
	<line class="st0" x1="-0.3" y1="684.4" x2="1919.8" y2="684.4"/>
	<line class="st0" x1="0.3" y1="876.4" x2="1920.3" y2="876.4"/>
	<line class="st0" x1="0.3" y1="780.4" x2="126.3" y2="780.4"/>
	<line class="st0" x1="184.3" y1="780.4" x2="353.3" y2="780.4"/>
	<line class="st0" x1="416.3" y1="780.4" x2="585.3" y2="780.4"/>
	<line class="st0" x1="651.3" y1="780.4" x2="820.3" y2="780.4"/>
	<line class="st0" x1="874.3" y1="780.4" x2="1043.3" y2="780.4"/>
	<line class="st0" x1="1101.3" y1="780.4" x2="1270.3" y2="780.4"/>
	<line class="st0" x1="1333.3" y1="780.4" x2="1502.3" y2="780.4"/>
	<line class="st0" x1="1568.3" y1="780.4" x2="1737.3" y2="780.4"/>
	<line class="st0" x1="1793.3" y1="780.4" x2="1920.3" y2="780.4"/>
	<g>
		<g>
			<g>
				<rect x="292.4" y="449.2" width="10" height="9.4"/>
				<rect x="313" y="449.2" width="10" height="9.4"/>
				<path d="M352.3,449.2v-20h-49.9v-50.5H293v50.5h-39.9v20h-15.6v-80.5h-9.4v270.1H177V599h-69.2v39.9H57.2V338.2h170.9v15.6h9.4
					v-25H47.9v319.4H283v-8.7h-45.5V458.6H283v-9.4h-20.6v-10.6h80.5v20h15v180.3h-60.5v10h69.9V449.2H352.3z M167.6,638.9h-50.5
					v-30.6h20.6v20.6h9.4v-20.6h20.6L167.6,638.9L167.6,638.9z"/>
				<path d="M107.1,349.4H67.8v39.3h39.3L107.1,349.4L107.1,349.4z M97.8,379.4H77.2v-20.6h20.6L97.8,379.4L97.8,379.4z"/>
				<path d="M217.5,349.4h-39.3v39.3h39.3V349.4z M208.2,379.4h-20.6v-20.6h20.6V379.4z"/>
				<path d="M162,349.4h-39.3v39.3H162V349.4z M152.7,379.4h-20.6v-20.6h20.6V379.4z"/>
				<path d="M107.1,399.3H67.8v39.3h39.3L107.1,399.3L107.1,399.3z M97.8,429.3H77.2v-20.6h20.6L97.8,429.3L97.8,429.3z"/>
				<path d="M178.2,438.6h39.3v-39.3h-39.3V438.6z M187.6,408.7h20.6v20.6h-20.6V408.7z"/>
				<path d="M162,399.3h-39.3v39.3H162V399.3z M152.7,429.3h-20.6v-20.6h20.6V429.3z"/>
				<path d="M107.1,449.2H67.8v39.3h39.3L107.1,449.2L107.1,449.2z M97.8,479.2H77.2v-20.6h20.6L97.8,479.2L97.8,479.2z"/>
				<path d="M178.2,488.5h39.3v-39.3h-39.3V488.5z M187.6,458.6h20.6v20.6h-20.6V458.6z"/>
				<path d="M162,449.2h-39.3v39.3H162V449.2z M152.7,479.2h-20.6v-20.6h20.6V479.2z"/>
				<path d="M107.1,499.2H67.8v39.3h39.3L107.1,499.2L107.1,499.2z M97.8,529.1H77.2v-20.6h20.6L97.8,529.1L97.8,529.1z"/>
				<path d="M178.2,538.4h39.3v-39.3h-39.3V538.4z M187.6,508.5h20.6v20.6h-20.6V508.5z"/>
				<path d="M162,499.2h-39.3v39.3H162V499.2z M152.7,529.1h-20.6v-20.6h20.6V529.1z"/>
				<path d="M253.1,513.5h39.3v-39.3h-39.3L253.1,513.5L253.1,513.5z M262.5,483.6H283v20.6h-20.6v-20.6H262.5z"/>
				<path d="M303,513.5h39.3v-39.3H303V513.5z M312.4,483.6H333v20.6h-20.6V483.6z"/>
				<path d="M253.1,568.4h39.3v-39.3h-39.3L253.1,568.4L253.1,568.4z M262.5,538.4H283V559h-20.6v-20.6H262.5z"/>
				<path d="M303,568.4h39.3v-39.3H303V568.4z M312.4,538.4H333V559h-20.6V538.4z"/>
				<path d="M253.1,623.3h39.3V584h-39.3L253.1,623.3L253.1,623.3z M262.5,593.3H283v20.6h-20.6v-20.6H262.5z"/>
				<path d="M303,623.3h39.3V584H303V623.3z M312.4,593.3H333v20.6h-20.6V593.3z"/>
				<path d="M67.8,588.4h39.3v-39.3H67.8V588.4z M77.2,558.4h20.6V579H77.2V558.4z"/>
				<path d="M178.2,588.4h39.3v-39.3h-39.3V588.4z M187.6,558.4h20.6V579h-20.6V558.4z"/>
				<path d="M122.7,588.4H162v-39.3h-39.3C122.7,549.1,122.7,588.4,122.7,588.4z M132.1,558.4h20.6V579h-20.6V558.4z"/>
				<polygon points="222.5,599 217.5,599 192.6,599 187.6,599 187.6,608.3 192.6,608.3 217.5,608.3 222.5,608.3 				"/>
				<polygon points="217.5,628.3 222.5,628.3 222.5,618.9 217.5,618.9 192.6,618.9 187.6,618.9 187.6,628.3 192.6,628.3 				"/>
			</g>
		</g>
	</g>
	<g transform="translate(1 1)">
		<g>
			<g>
				<path d="M994.9,639.2h-16.8c0.2-1.4,0.3-2.9,0.3-4.3c0-12.3-7.1-22.7-17.4-27.5V461c0-2.4-1.9-4.3-4.3-4.3h-65.5v-65.5
					c0-2.4-1.9-4.3-4.3-4.3H769.6c-2.6,0-4.3,1.7-4.3,4.4v248h-21.6c-2.3,0-4.3,1.8-4.3,4.1c-0.1,2.7,1.7,4.5,4.3,4.5h26h13h104
					h85.4H995c2.3,0,4.3-1.8,4.3-4.1C999.3,641,997.6,639.2,994.9,639.2z M952.3,604.4c-1.4-0.2-2.9-0.3-4.4-0.3
					c-3.3,0-6.6,0.6-9.6,1.6c-0.8-1.1-2.3-1.7-4-1.6c-2.2,0.2-3.9,2.1-3.9,4.3v1.3c-1.6,1.2-3.2,2.5-4.6,4c-0.2,0.2-0.4,0.5-0.6,0.7
					c-3.6-4.5-8.2-7.8-13.5-9.4c-0.8-0.7-1.8-1.1-3-1.1c-0.5,0-0.9,0.1-1.4,0.2c-1-0.1-2-0.2-3-0.2c-2.7,0-5.8,0.4-8.3,1.4
					c-0.3,0.1-0.6,0.2-0.9,0.3c-3-2.4-6.5-4.2-10.2-5.2h-0.1c-0.3-0.1-0.6-0.2-1-0.2c-0.3-0.1-0.5-0.1-0.8-0.2c-0.1,0-0.2,0-0.3-0.1
					c-0.3,0-0.6-0.1-0.8-0.1c-0.1,0-0.3,0-0.4,0c-0.3,0-0.5-0.1-0.8-0.1c-0.2,0-0.4,0-0.6,0c-0.2,0-0.4,0-0.6,0c-0.4,0-0.8,0-1.2,0
					c-0.3,0-0.6,0-1,0c-0.2,0-0.4,0-0.6,0c-0.1,0-0.2,0-0.2,0c-4,0.3-7.9,1.4-11.2,3.4V464.9h21.4h65.8v139.5H952.3z M773.9,395.5
					h108.6v60.7h-21.6c-2.4,0-4.3,1.9-4.3,4.3v135.3c-2.2-2.2-4.8-4.1-7.6-5.6c-0.2-0.1-0.5-0.3-0.7-0.4c-0.1,0-0.2-0.1-0.3-0.1
					c-3.1-1.5-6.5-2.5-10-2.9h-0.1c-0.4,0-0.8-0.1-1.2-0.1c-0.1,0-0.2,0-0.3,0c-0.5,0-0.9,0-1.4,0c-6.5,0-12.5,2.1-17.4,5.7v-1.2
					c0-2.3-1.8-4.3-4.1-4.3c-2.7-0.1-4.5,1.7-4.5,4.3v8.7c0,0.6,0.1,1.2,0.3,1.8c-2.1,3.5-3.6,7.5-4.2,11.7c-5,0.6-9.5,2.4-13.4,5
					v-1.1c0-2.3-1.8-4.3-4.1-4.3c-2.7-0.1-4.5,1.7-4.5,4.3v8.8c0,0.5,0.1,1,0.2,1.4c-2.1,3.5-3.6,7.4-4.2,11.6h-4.6L773.9,395.5
					L773.9,395.5z M806.7,621.9c0.1,0,0.2,0,0.3,0c0.2,0,0.5,0,0.7,0c0.3,0,0.7,0,1,0c2.4,0,4.4-1.9,4.4-4.3
					c0-12.2,9.6-21.8,21.8-21.8c10.9,0,20,7.8,21.3,18.7c0.3,1.2,1,2.1,1.9,2.8c0.1,0,0.1,0.1,0.2,0.1c0.1,0,0.1,0.1,0.2,0.1
					c0.2,0.1,0.3,0.2,0.5,0.2l0,0c0.2,0.1,0.4,0.1,0.6,0.2l0,0c0.3,0.1,0.6,0.1,0.9,0.1c1.4,0,2.8-0.8,3.5-1.8l0,0l0,0l0.4-0.4
					c3.5-4.3,8.3-7,13.9-7c2.9,0,5.9,0.8,8.5,2.4c-5.2,4.9-8.1,11.2-8.5,18c0,0.4,0,0.9,0,1.3c0,3,0.5,5.9,1.5,8.7h-92.4
					C789.4,629.8,797.2,622.7,806.7,621.9z M890.1,639.2c-1.7-2.8-2.6-6.1-2.6-9.1c0-4.8,1.9-9.1,5.2-12.3c0.6-0.6,1.3-1.1,2-1.6
					c0.7,0,1.4-0.1,2-0.5c9.6-5.2,20.9-0.4,24.4,9.1c0.4,1.3,1.7,2.6,3.9,2.6c0.4,0,0.9-0.1,1.3-0.4c1.1-0.2,2-1,2.6-2.2
					c1.7-3.6,4.3-6.4,7.5-8.4c0.7-0.2,1.3-0.5,1.7-1c3-1.5,6.4-2.3,9.9-2.3c12.2,0,21.8,9.6,21.8,21.8c0,1.3,0,3-0.4,4.3
					L890.1,639.2L890.1,639.2z"/>
				<path d="M878.4,504.2v8.6c0,2.3,1.8,4.3,4.1,4.3c2.7,0.1,4.5-1.7,4.5-4.3v-8.7c0-2.7-1.8-4.4-4.5-4.3
					C880.2,500,878.4,501.9,878.4,504.2z"/>
				<path d="M878.4,582.5v8.6c0,2.3,1.8,4.3,4.1,4.3c2.7,0.1,4.5-1.7,4.5-4.3v-8.7c0-2.7-1.8-4.4-4.5-4.3
					C880.2,578.3,878.4,580.2,878.4,582.5z"/>
				<path d="M878.4,530.3v8.6c0,2.3,1.8,4.3,4.1,4.3c2.7,0.1,4.5-1.7,4.5-4.3v-8.7c0-2.7-1.8-4.4-4.5-4.3
					C880.2,526.1,878.4,528,878.4,530.3z"/>
				<path d="M878.4,556.4v8.6c0,2.3,1.8,4.3,4.1,4.3c2.7,0.1,4.5-1.7,4.5-4.3v-8.7c0-2.7-1.8-4.4-4.5-4.3
					C880.2,552.2,878.4,554.1,878.4,556.4z"/>
				<path d="M878.4,478.1v8.6c0,2.3,1.8,4.3,4.1,4.3c2.7,0.1,4.5-1.7,4.5-4.3V478c0-2.7-1.8-4.4-4.5-4.3
					C880.2,473.9,878.4,475.8,878.4,478.1z"/>
				<path d="M913.1,512.9v-8.6c0-2.3-1.8-4.3-4.1-4.3c-2.7-0.1-4.5,1.7-4.5,4.3v8.7c0,2.7,1.8,4.4,4.5,4.3
					C911.3,517.1,913.1,515.2,913.1,512.9z"/>
				<path d="M913.1,486.8v-8.6c0-2.3-1.8-4.3-4.1-4.3c-2.7-0.1-4.5,1.7-4.5,4.3v8.7c0,2.7,1.8,4.4,4.5,4.3
					C911.3,491,913.1,489.1,913.1,486.8z"/>
				<path d="M913.1,539v-8.6c0-2.3-1.8-4.3-4.1-4.3c-2.7-0.1-4.5,1.7-4.5,4.3v8.7c0,2.7,1.8,4.4,4.5,4.3
					C911.3,543.2,913.1,541.3,913.1,539z"/>
				<path d="M913.1,565.1v-8.6c0-2.3-1.8-4.3-4.1-4.3c-2.7-0.1-4.5,1.7-4.5,4.3v8.7c0,2.7,1.8,4.4,4.5,4.3
					C911.3,569.3,913.1,567.4,913.1,565.1z"/>
				<path d="M913.1,591.2v-8.6c0-2.3-1.8-4.3-4.1-4.3c-2.7-0.1-4.5,1.7-4.5,4.3v8.7c0,2.7,1.8,4.4,4.5,4.3
					C911.3,595.4,913.1,593.5,913.1,591.2z"/>
				<path d="M939.1,539v-8.6c0-2.3-1.8-4.3-4.1-4.3c-2.7-0.1-4.5,1.7-4.5,4.3v8.7c0,2.7,1.8,4.4,4.5,4.3
					C937.3,543.2,939.1,541.3,939.1,539z"/>
				<path d="M939.1,512.9v-8.6c0-2.3-1.8-4.3-4.1-4.3c-2.7-0.1-4.5,1.7-4.5,4.3v8.7c0,2.7,1.8,4.4,4.5,4.3
					C937.3,517.1,939.1,515.2,939.1,512.9z"/>
				<path d="M939.1,591.2v-8.6c0-2.3-1.8-4.3-4.1-4.3c-2.7-0.1-4.5,1.7-4.5,4.3v8.7c0,2.7,1.8,4.4,4.5,4.3
					C937.3,595.4,939.1,593.5,939.1,591.2z"/>
				<path d="M939.1,565.1v-8.6c0-2.3-1.8-4.3-4.1-4.3c-2.7-0.1-4.5,1.7-4.5,4.3v8.7c0,2.7,1.8,4.4,4.5,4.3
					C937.3,569.3,939.1,567.4,939.1,565.1z"/>
				<path d="M939.1,486.8v-8.6c0-2.3-1.8-4.3-4.1-4.3c-2.7-0.1-4.5,1.7-4.5,4.3v8.7c0,2.7,1.8,4.4,4.5,4.3
					C937.3,491,939.1,489.1,939.1,486.8z"/>
				<path d="M791.2,547.7V539c0-2.3-1.8-4.3-4.1-4.3c-2.7-0.1-4.5,1.7-4.5,4.3v8.7c0,2.7,1.8,4.4,4.5,4.3
					C789.4,551.9,791.2,550,791.2,547.7z"/>
				<path d="M791.2,573.8v-8.6c0-2.3-1.8-4.3-4.1-4.3c-2.7-0.1-4.5,1.7-4.5,4.3v8.7c0,2.7,1.8,4.4,4.5,4.3
					C789.4,578,791.2,576.1,791.2,573.8z"/>
				<path d="M791.2,599.9v-8.6c0-2.3-1.8-4.3-4.1-4.3c-2.7-0.1-4.5,1.7-4.5,4.3v8.7c0,2.7,1.8,4.4,4.5,4.3
					C789.4,604.1,791.2,602.2,791.2,599.9z"/>
				<path d="M791.2,417.2v-8.6c0-2.3-1.8-4.3-4.1-4.3c-2.7-0.1-4.5,1.7-4.5,4.3v8.7c0,2.7,1.8,4.4,4.5,4.3
					C789.4,421.4,791.2,419.5,791.2,417.2z"/>
				<path d="M791.2,443.3v-8.6c0-2.3-1.8-4.3-4.1-4.3c-2.7-0.1-4.5,1.7-4.5,4.3v8.7c0,2.7,1.8,4.4,4.5,4.3
					C789.4,447.5,791.2,445.6,791.2,443.3z"/>
				<path d="M791.2,469.4v-8.6c0-2.3-1.8-4.3-4.1-4.3c-2.7-0.1-4.5,1.7-4.5,4.3v8.7c0,2.7,1.8,4.4,4.5,4.3
					C789.4,473.6,791.2,471.7,791.2,469.4z"/>
				<path d="M791.2,495.5v-8.6c0-2.3-1.8-4.3-4.1-4.3c-2.7-0.1-4.5,1.7-4.5,4.3v8.7c0,2.7,1.8,4.4,4.5,4.3
					C789.4,499.7,791.2,497.8,791.2,495.5z"/>
				<path d="M791.2,521.6V513c0-2.3-1.8-4.3-4.1-4.3c-2.7-0.1-4.5,1.7-4.5,4.3v8.7c0,2.7,1.8,4.4,4.5,4.3
					C789.4,525.8,791.2,523.9,791.2,521.6z"/>
				<path d="M817.2,443.3v-8.6c0-2.3-1.8-4.3-4.1-4.3c-2.7-0.1-4.5,1.7-4.5,4.3v8.7c0,2.7,1.8,4.4,4.5,4.3
					C815.4,447.5,817.2,445.6,817.2,443.3z"/>
				<path d="M817.2,417.2v-8.6c0-2.3-1.8-4.3-4.1-4.3c-2.7-0.1-4.5,1.7-4.5,4.3v8.7c0,2.7,1.8,4.4,4.5,4.3
					C815.4,421.4,817.2,419.5,817.2,417.2z"/>
				<path d="M817.2,495.5v-8.6c0-2.3-1.8-4.3-4.1-4.3c-2.7-0.1-4.5,1.7-4.5,4.3v8.7c0,2.7,1.8,4.4,4.5,4.3
					C815.4,499.7,817.2,497.8,817.2,495.5z"/>
				<path d="M817.2,469.4v-8.6c0-2.3-1.8-4.3-4.1-4.3c-2.7-0.1-4.5,1.7-4.5,4.3v8.7c0,2.7,1.8,4.4,4.5,4.3
					C815.4,473.6,817.2,471.7,817.2,469.4z"/>
				<path d="M817.2,521.6V513c0-2.3-1.8-4.3-4.1-4.3c-2.7-0.1-4.5,1.7-4.5,4.3v8.7c0,2.7,1.8,4.4,4.5,4.3
					C815.4,525.8,817.2,523.9,817.2,521.6z"/>
				<path d="M817.2,547.7V539c0-2.3-1.8-4.3-4.1-4.3c-2.7-0.1-4.5,1.7-4.5,4.3v8.7c0,2.7,1.8,4.4,4.5,4.3
					C815.4,551.9,817.2,550,817.2,547.7z"/>
				<path d="M817.2,573.8v-8.6c0-2.3-1.8-4.3-4.1-4.3c-2.7-0.1-4.5,1.7-4.5,4.3v8.7c0,2.7,1.8,4.4,4.5,4.3
					C815.4,578,817.2,576.1,817.2,573.8z"/>
				<path d="M843.2,469.4v-8.6c0-2.3-1.8-4.3-4.1-4.3c-2.7-0.1-4.5,1.7-4.5,4.3v8.7c0,2.7,1.8,4.4,4.5,4.3
					C841.4,473.6,843.2,471.7,843.2,469.4z"/>
				<path d="M843.2,443.3v-8.6c0-2.3-1.8-4.3-4.1-4.3c-2.7-0.1-4.5,1.7-4.5,4.3v8.7c0,2.7,1.8,4.4,4.5,4.3
					C841.4,447.5,843.2,445.6,843.2,443.3z"/>
				<path d="M843.2,417.2v-8.6c0-2.3-1.8-4.3-4.1-4.3c-2.7-0.1-4.5,1.7-4.5,4.3v8.7c0,2.7,1.8,4.4,4.5,4.3
					C841.4,421.4,843.2,419.5,843.2,417.2z"/>
				<path d="M843.2,573.8v-8.6c0-2.3-1.8-4.3-4.1-4.3c-2.7-0.1-4.5,1.7-4.5,4.3v8.7c0,2.7,1.8,4.4,4.5,4.3
					C841.4,578,843.2,576.1,843.2,573.8z"/>
				<path d="M843.2,547.7V539c0-2.3-1.8-4.3-4.1-4.3c-2.7-0.1-4.5,1.7-4.5,4.3v8.7c0,2.7,1.8,4.4,4.5,4.3
					C841.4,551.9,843.2,550,843.2,547.7z"/>
				<path d="M843.2,521.6V513c0-2.3-1.8-4.3-4.1-4.3c-2.7-0.1-4.5,1.7-4.5,4.3v8.7c0,2.7,1.8,4.4,4.5,4.3
					C841.4,525.8,843.2,523.9,843.2,521.6z"/>
				<path d="M843.2,495.5v-8.6c0-2.3-1.8-4.3-4.1-4.3c-2.7-0.1-4.5,1.7-4.5,4.3v8.7c0,2.7,1.8,4.4,4.5,4.3
					C841.4,499.7,843.2,497.8,843.2,495.5z"/>
				<path d="M869.7,443.3v-8.6c0-2.3-1.8-4.3-4.1-4.3c-2.7-0.1-4.5,1.7-4.5,4.3v8.7c0,2.7,1.8,4.4,4.5,4.3
					C867.9,447.5,869.7,445.6,869.7,443.3z"/>
				<path d="M869.7,417.2v-8.6c0-2.3-1.8-4.3-4.1-4.3c-2.7-0.1-4.5,1.7-4.5,4.3v8.7c0,2.7,1.8,4.4,4.5,4.3
					C867.9,421.4,869.7,419.5,869.7,417.2z"/>
			</g>
		</g>
	</g>
	<g id="Apartment-2_1_">
		<path d="M684.7,642.8h-4.4c-2.3,0-4.3,1.6-4.6,3.8c-0.4,2.8,1.8,5.2,4.5,5.2h4.4c2.3,0,4.3-1.6,4.6-3.8
			C689.6,645.2,687.4,642.8,684.7,642.8z"/>
		<path d="M495.1,552.5v-27.1c0-2.5-2-4.5-4.5-4.5h-27.1c-2.5,0-4.5,2-4.5,4.5v27.1c0,2.5,2,4.5,4.5,4.5h27.1
			C493,557,495.1,555,495.1,552.5z M468,529.9h18V548h-18V529.9z"/>
		<path d="M508.6,557h27.1c2.5,0,4.5-2,4.5-4.5v-27.1c0-2.5-2-4.5-4.5-4.5h-27.1c-2.5,0-4.5,2-4.5,4.5v27.1
			C504.1,555,506.1,557,508.6,557z M513.1,529.9h18.1V548h-18.1V529.9z"/>
		<path d="M463.4,511.9h27.1c2.5,0,4.5-2,4.5-4.5v-27.1c0-2.5-2-4.5-4.5-4.5h-27.1c-2.5,0-4.5,2-4.5,4.5v27.1
			C458.9,509.8,460.9,511.9,463.4,511.9z M468,484.8h18v18.1h-18V484.8z"/>
		<path d="M508.6,511.9h27.1c2.5,0,4.5-2,4.5-4.5v-27.1c0-2.5-2-4.5-4.5-4.5h-27.1c-2.5,0-4.5,2-4.5,4.5v27.1
			C504.1,509.8,506.1,511.9,508.6,511.9z M513.1,484.8h18.1v18.1h-18.1V484.8z"/>
		<path d="M463.4,466.7h27.1c2.5,0,4.5-2,4.5-4.5v-27.1c0-2.5-2-4.5-4.5-4.5h-27.1c-2.5,0-4.5,2-4.5,4.5v27.1
			C458.9,464.7,460.9,466.7,463.4,466.7z M468,439.6h18v18.1h-18V439.6z"/>
		<path d="M508.6,466.7h27.1c2.5,0,4.5-2,4.5-4.5v-27.1c0-2.5-2-4.5-4.5-4.5h-27.1c-2.5,0-4.5,2-4.5,4.5v27.1
			C504.1,464.7,506.1,466.7,508.6,466.7z M513.1,439.6h18.1v18.1h-18.1V439.6z"/>
		<path d="M598.9,588.6c2.5,0,4.5-2,4.5-4.5v-4.5c0-2.5-2-4.5-4.5-4.5s-4.5,2-4.5,4.5v4.5C594.4,586.6,596.4,588.6,598.9,588.6z"/>
		<path d="M680.2,611.2c0-5.8-1.9-11.5-5.5-16.2c2.3-7.6,0.3-15.9-5.1-21.7c1-2.3,1.6-4.7,1.5-7.2c0-10-8.1-18.1-18.1-18.1
			s-18.1,8.1-18.1,18.1c0,2.5,0.5,5,1.5,7.2c-5.5,5.8-7.4,14.1-5.1,21.7c-9,11.9-6.6,28.8,5.2,37.8c3.5,2.6,7.6,4.4,11.9,5.1v4.9
			h-45.2v-23c14.7-2.4,24.7-16.3,22.2-31c-0.7-4.3-2.5-8.4-5.1-11.9c2.3-7.6,0.3-15.9-5.1-21.7c1-2.3,1.5-4.7,1.5-7.2
			c0-10-8.1-18.1-18.1-18.1s-18.1,8.1-18.1,18.1c0,2.5,0.5,5,1.5,7.2c-5.5,5.8-7.4,14.1-5.1,21.7c-9,11.9-6.6,28.8,5.2,37.8
			c3.5,2.6,7.6,4.4,11.9,5.1v5.5l-6.4-4.3c-1.9-1.3-4.6-1-6.1,0.7c-1.8,2.1-1.3,5.2,0.9,6.7l0,0l11.5,7.7v6.6h-18.1v-13.5
			c0-2.5-2-4.5-4.5-4.5h-13.5V417h13.5c2.5,0,4.5-2,4.5-4.5v-18.1c0-2.5-2-4.5-4.5-4.5h-144c-2.5,0-4.5,2-4.5,4.5v18.1
			c0,2.5,2,4.5,4.5,4.5h13.5v207.7h-13.5c-2.5,0-4.5,2-4.5,4.5v13.5h-8.9c-2.3,0-4.3,1.6-4.6,3.8c-0.4,2.8,1.8,5.2,4.5,5.2h252.8
			c2.3,0,4.3-1.6,4.6-3.8c0.4-2.8-1.8-5.2-4.5-5.2h-9v-4.9C670.7,635.7,680.2,624.4,680.2,611.2z M580.9,593.1
			c0-4.5,1.8-8.9,4.9-12.2c1.2-1.3,1.5-3.2,0.8-4.9c-2.6-5.8-0.8-12.5,4.3-16.3c2-1.5,2.4-4.3,0.9-6.3l0,0c-1.2-1.6-1.9-3.5-1.9-5.5
			c0-5,4-9,9-9s9,4,9,9c0,2-0.7,3.9-1.9,5.4c-1.5,2-1.1,4.8,0.9,6.3l0,0c5.1,3.7,6.9,10.5,4.3,16.3c-0.7,1.6-0.4,3.6,0.8,4.9
			c6.8,7.2,6.5,18.5-0.7,25.3c-2.2,2.1-5,3.6-8,4.4v-12.9c0-2.5-2-4.5-4.5-4.5s-4.5,2-4.5,4.5v12.9
			C586.5,608.5,580.9,601.3,580.9,593.1z M431.8,399h135.5v9H431.8V399z M449.9,417h99.4v207.7h-27.1V575c0-2.5-2-4.5-4.5-4.5h-36.1
			c-2.5,0-4.5,2-4.5,4.5v49.7H450V417H449.9z M513.1,624.8H486v-45.2h27.1V624.8z M431.8,642.8v-9h135.5v9H431.8z M635.1,611.2
			c0-4.5,1.8-8.9,4.9-12.2c1.2-1.3,1.5-3.2,0.8-4.9c-2.6-5.8-0.8-12.5,4.3-16.3c2-1.5,2.4-4.3,0.9-6.3l0,0c-1.2-1.6-1.9-3.5-1.9-5.5
			c0-5,4-9,9-9s9,4,9,9c0,2-0.7,3.9-1.9,5.4c-1.5,2-1.1,4.8,0.9,6.3l0,0c5.1,3.7,6.9,10.5,4.3,16.3c-0.7,1.6-0.4,3.6,0.8,4.9
			c6.8,7.2,6.5,18.5-0.7,25.3c-2.2,2.1-5,3.6-8,4.4v-12.9c0-2.5-2-4.5-4.5-4.5s-4.5,2-4.5,4.5v12.9
			C640.7,626.5,635.1,619.4,635.1,611.2z"/>
		<path d="M598.9,498.3h31.6c0.8,0,1.6-0.2,2.3-0.7c8.4-2.5,13.1-11.3,10.6-19.7c-1.8-6.1-7.1-10.5-13.4-11.2
			c-2.4-9.7-12.2-15.5-21.9-13.1c-4.8,1.2-8.9,4.3-11.3,8.6c-9.9,1.2-17,10.1-15.8,20C582.1,491.4,589.8,498.3,598.9,498.3z
			 M598.8,471.2l0.7,0.1c2,0.2,3.9-1.1,4.6-3c1.6-4.7,6.7-7.2,11.4-5.6c3.6,1.2,6,4.6,6.1,8.4c0,0.1,0,0.2,0,0.3
			c-0.1,2.5,1.9,4.6,4.4,4.6c0.3,0,0.7,0,1-0.1c3.7-0.7,7.3,1.8,8,5.5c0.1,0.4,0.1,0.7,0.1,1.1c0,3.2-2.3,6-5.4,6.6
			c-0.2,0-0.3,0.1-0.5,0.1H599c-5,0-9.1-4-9.1-9C589.8,475.3,593.8,471.3,598.8,471.2z"/>
	</g>
	<path d="M1734.3,477.3v30.1h-4.6v20.8h44v-20.8h-4.6v-30.1h5.8v-6.9h-46.3v6.9L1734.3,477.3L1734.3,477.3z M1766.7,521.3h-30.1
		v-6.9h30.1V521.3z M1741.2,507.4v-11.6h20.8v11.6H1741.2z M1762.1,488.8h-20.8v-11.6h20.8V488.8z"/>
	<path d="M1789.8,507.4h-4.6v20.8h44v-20.8h-4.6v-30.1h5.8v-6.9h-46.3v6.9h5.8v30.1H1789.8z M1822.3,521.3h-30.1v-6.9h30.1V521.3z
		 M1796.8,507.4v-11.6h20.8v11.6H1796.8z M1817.6,488.8h-20.8v-11.6h20.8V488.8z"/>
	<path d="M1734.3,569.9V600h-4.6v20.8h44V600h-4.6v-30.1h5.8V563h-46.3v6.9H1734.3z M1766.7,613.9h-30.1V607h30.1V613.9z
		 M1741.2,600v-11.6h20.8V600H1741.2z M1762.1,581.5h-20.8v-11.6h20.8V581.5z"/>
	<path d="M1789.8,600h-4.6v20.8h44V600h-4.6v-30.1h5.8V563h-46.3v6.9h5.8V600H1789.8z M1822.3,613.9h-30.1V607h30.1V613.9z
		 M1796.8,600v-11.6h20.8V600H1796.8z M1817.6,581.5h-20.8v-11.6h20.8V581.5z"/>
	<path d="M1655.6,461.1h-4.6v20.8h44v-20.8h-4.6V431h5.8v-7h-46.3v6.9h5.8v30.2H1655.6z M1688,474.9h-30.1V468h30.1V474.9z
		 M1662.5,461.1v-11.6h20.8v11.6H1662.5z M1683.3,442.5h-20.8V431h20.8V442.5z"/>
	<path d="M1655.6,525.9h-4.6v20.8h44v-20.8h-4.6v-30.1h5.8v-6.9h-46.3v6.9h5.8v30.1H1655.6z M1688,539.8h-30.1v-6.9h30.1V539.8z
		 M1662.5,525.9v-11.6h20.8v11.6H1662.5z M1683.3,507.4h-20.8v-11.6h20.8V507.4z"/>
	<path d="M1692.6,361.5v13.9h-83.4v20.8h9.3v13.9h9.3V637h-4.6v20.8h224.6V556h9.3v-20.8h-9.3v-139h9.3v-13.9h9.3v-20.8
		L1692.6,361.5L1692.6,361.5z M1616.2,382.3h85.7v6.9h-85.7V382.3z M1625.5,396.2h85.7v6.9h-85.7V396.2z M1634.7,410.1h76.4v125
		h-9.3V556h9.3v81h-6.9v-13.9h-9.3v-37.8c0-11.7-8.9-21.6-20.6-22.3c-12.8-0.8-23.4,9.3-23.4,21.9v38.2h-9.3V637h-6.9L1634.7,410.1
		L1634.7,410.1z M1688,623.1h-30.1v-37.9c0-7.9,6-14.7,13.9-15.3c8.8-0.7,16.2,6.3,16.2,15V623.1z M1697.2,630.1v6.9h-48.6v-6.9
		H1697.2z M1630.1,644h85.7v6.9h-85.7V644z M1840.8,650.9h-118.1V644h118.1V650.9z M1840.8,637h-122.7v-81h122.7V637z M1850,549
		h-141.2v-6.9H1850V549z M1840.8,535.1h-122.7V396.2h122.7V535.1z M1850,389.3h-141.2v-6.9H1850V389.3z M1859.3,375.4h-159.8v-6.9
		h159.8V375.4z"/>
	<path d="M1734.3,441.4h-4.6v20.8h44v-20.8h-4.6v-30.1h5.8v-6.9h-46.3v6.9h5.8v30.1H1734.3z M1766.7,455.3h-30.1v-6.9h30.1V455.3z
		 M1741.2,441.4v-11.6h20.8v11.6H1741.2z M1762.1,422.9h-20.8v-11.6h20.8V422.9z"/>
	<path d="M1789.8,441.4h-4.6v20.8h44v-20.8h-4.6v-30.1h5.8v-6.9h-46.3v6.9h5.8v30.1H1789.8z M1822.3,455.3h-30.1v-6.9h30.1V455.3z
		 M1796.8,441.4v-11.6h20.8v11.6H1796.8z M1817.6,422.9h-20.8v-11.6h20.8V422.9z"/>
	<path d="M1673.1,576.7c-5.7,0-10.4,4.7-10.4,10.4s4.7,10.4,10.4,10.4s10.4-4.7,10.4-10.4S1678.8,576.7,1673.1,576.7z M1673.1,590.6
		c-1.9,0-3.5-1.6-3.5-3.5s1.6-3.5,3.5-3.5s3.5,1.6,3.5,3.5S1675,590.6,1673.1,590.6z"/>
	<path d="M1408.4,565.5h17.3c2.4,0,4.3-1.9,4.3-4.3v-16.9c0-2.4-1.9-4.3-4.3-4.3h-17.3c-2.4,0-4.3,1.9-4.3,4.3v16.9
		C1404.2,563.6,1406.1,565.5,1408.4,565.5z M1412.9,548.4h8.8v8.3h-8.8V548.4z"/>
	<path d="M1408.4,599.3h17.3c2.4,0,4.3-1.9,4.3-4.3v-16.9c0-2.4-1.9-4.3-4.3-4.3h-17.3c-2.4,0-4.3,1.9-4.3,4.3V595
		C1404.2,597.4,1406.1,599.3,1408.4,599.3z M1412.9,582.2h8.8v8.3h-8.8V582.2z"/>
	<path d="M1472,525.6h18.2c2.4,0,4.3-1.9,4.3-4.3v-17.8c0-2.4-1.9-4.3-4.3-4.3H1472c-2.4,0-4.3,1.9-4.3,4.3v17.7
		C1467.8,523.7,1469.7,525.6,1472,525.6z M1476.1,508h9.7v9.2h-9.7V508z"/>
	<path d="M1509.8,525.6h18.6c2.4,0,4.3-1.9,4.3-4.3v-17.8c0-2.4-1.9-4.3-4.3-4.3h-18.6c-2.4,0-4.3,1.9-4.3,4.3v17.8
		C1505.5,523.7,1507.4,525.6,1509.8,525.6z M1514.3,508h9.7v9.2h-9.7V508z"/>
	<path d="M1490.7,536.6h-18.2c-2.4,0-4.3,1.9-4.3,4.3v17.8c0,2.4,1.9,4.3,4.3,4.3h18.2c2.4,0,4.3-1.9,4.3-4.3v-17.8
		C1495,538.5,1493.1,536.6,1490.7,536.6z M1486.2,554.6h-9.7v-9.2h9.7V554.6z"/>
	<path d="M1528.9,536.6h-18.2c-2.4,0-4.3,1.9-4.3,4.3v17.8c0,2.4,1.9,4.3,4.3,4.3h18.2c2.4,0,4.3-1.9,4.3-4.3v-17.8
		C1533.1,538.5,1531.2,536.6,1528.9,536.6z M1524.4,554.6h-9.7v-9.2h9.7V554.6z"/>
	<path d="M1595.5,575.6c-2.9-10.1-8.2-20.6-14.1-28.3c-3.7-4.9-8.4-9.8-14.2-9.9l0,0c-5,0-9,3.5-12.5,7.7v-66.5h1.3
		c7.4,0,13.3-6.5,12.4-14.1c-0.8-6.3-6.3-10.9-12.6-10.9h-112c-6.3,0-11.9,4.6-12.6,10.9c-0.9,7.6,5,14.1,12.4,14.1h1v19.3h-57.8
		c-6.3,0-11.8,4.5-12.9,10.7c-1.2,6.9,3.1,13,9.2,14.7v118.1h-1.7c-2.2,0-4.2,1.7-4.3,3.9c-0.1,2.4,1.8,4.4,4.2,4.4h190.6
		c2.1,0,4-1.5,4.3-3.6c0.4-2.6-1.5-4.8-4-5v-20.6c13.8-1.2,20.1-8,23-13.8C1600.1,596.9,1598,584.3,1595.5,575.6z M1386.4,506.3
		h58.1v8.3h-58.2c-2.6,0-4.6-2.2-4.2-4.8C1382.4,507.8,1384.3,506.3,1386.4,506.3z M1445,641.4h-53.1v-118h53.1V641.4z
		 M1494.1,641.4h-14.9v-44.8h14.9V641.4z M1517.8,641.4h-14.9v-44.8h14.9V641.4z M1546.3,641.4h-19.7v-49.2c0-2.4-1.9-4.3-4.3-4.3
		h-47.6c-2.4,0-4.3,1.9-4.3,4.3v49.2h-17.1V478.7h30.1c1.9,0,3.6-1.2,4.2-3c0.9-3-1.3-5.8-4.2-5.8h-40.3c-2.1,0-3.9-1.8-3.9-3.9
		c0-2.2,1.8-3.9,3.9-3.9h113.4c2.2,0,3.9,1.8,3.9,3.9s-1.8,3.9-3.9,3.9l-39.6,0.4h0.9c-2.3,0-4.2,1.9-4.2,4.2c0,2.3,1.9,4.2,4.2,4.2
		h28.6V558c-5.1,9.8-8.4,20.7-9,30c-0.8,11.5,2.3,20.5,9,26.2L1546.3,641.4L1546.3,641.4z M1563.9,641.4h-9.2v-23.2
		c2.2,1.3,5.1,2.2,9.2,2.6V641.4z M1588.3,603.3c-2.6,5.2-7.9,8.2-15.7,9v-17.9l6.5-6c1.8-1.6,1.8-4.3,0.2-6.1
		c-1.7-1.7-4.4-1.8-6.2-0.1l-0.4,0.4v-13.5c0-2-1.4-3.9-3.3-4.3c-2.9-0.7-5.4,1.5-5.4,4.2v7.8l-0.4-0.4c-1.8-1.6-4.5-1.6-6.2,0.1
		c-1.7,1.7-1.6,4.4,0.1,6.1l6.5,6v5.6l-3.5-2.5c-2-1.4-4.7-0.9-6.1,1s-0.9,4.6,1,6l8.6,6v7.8c-8.1-0.8-13.5-4-16.3-9.5
		c-5.4-10.7-0.8-27.6,6-40.3c0-0.1,0.1-0.1,0.1-0.2c1.9-3.5,4-6.7,6-9.3c4.4-5.6,6.7-6.7,7.8-6.7l0,0c1.1,0,3.4,1.1,7.6,6.5
		C1585,565.3,1595.1,589.9,1588.3,603.3z"/>
	<path d="M1499.8,469.9L1499.8,469.9c-1.8,0-3.5,1-4.1,2.6c-1.2,3.1,1.1,6.1,4.1,6.1h0.2c1.7,0,3.4-1,4-2.6
		C1505.1,472.9,1502.8,469.9,1499.8,469.9z"/>
</g>
<g id="Motorbike">
	<path d="M1800.8,710c-8.7,0-16.5,4.4-21.1,11.1l-6.7-2.9V714l20.9-8.7l5.4-12.4h2.5l12.4,14.7c0.5,0.6,1.2,0.9,1.8,0.9
		c0.5,0,1.1-0.2,1.6-0.6c1-0.9,1.2-2.4,0.3-3.4l-9.8-11.6h1.6c1.3,0,2.4-1.1,2.4-2.4s-1.1-2.4-2.4-2.4h-3.6l3.2-1.5
		c1.5-0.7,2.1-2.5,1.4-4l-1.8-3.9c-0.5-1.1-1.5-1.7-2.7-1.7l-33.5-0.3l0,0c-0.8,0-1.6,0.3-2.2,1c-0.1,0.1-6.9,7.2-19.5,8.8
		c-0.8-1.5-2.2-3.7-4.2-5.8c-4.9-5.2-11.2-8-18.5-8c-1.5,0-3,0.1-4.5,0.3l0,0c-0.4,0.1-8.8,1.4-20.4,4.6c-0.1,0-0.3,0-0.5,0
		c-1.3,0-4.6-0.2-5.9-2.4c-0.1-0.2-0.2-0.3-0.3-0.6l5.6-1c1.6-0.3,2.6-1.8,2.3-3.3c-0.3-1.6-1.8-2.6-3.3-2.3l-4.5,0.8
		c0.7-2.8,2.3-6.7,5.4-12c0.6-1.1,0.5-2.5-0.3-3.5c-0.6-0.7-1.4-1.1-2.3-1.1c-0.4,0-0.7,0.1-1.1,0.2c-0.3,0.1-8.3,3.2-15.5,10.7
		c-4.6,4.8-9.5,12.2-11,22.4c0.4-0.8,0.9-1.6,1.6-2.3c0,0,8.2,5.4,3.6,13.2h-5.5c0.1,1.6,0.3,3.2,0.6,4.9c0.1,0.7,0.4,1.3,0.9,1.7
		l6.7,6.2c-22.2-3-30.1,11.4-30.1,11.4c-1.7,2.2-0.8,4.6,1.9,3.3c-1.8,3.5-2.8,7.5-2.8,11.7c0,14.1,11.5,25.7,25.7,25.7
		c14.1,0,25.7-11.5,25.7-25.7c0-1-0.1-2.1-0.2-3.1h31.4l-12.4-9.2c0,0-14.7,1.4-25.2-10c1.1-0.1,2.3-0.1,3.6-0.1
		c8.5,0,20.3,1.5,28.4,8.8c0.1,0.1,0.2,0.2,0.3,0.3L1754,741c0.5,0.3,1.1,0.5,1.7,0.5c0.8,0,1.6-0.3,2.1-0.9l11.2-11.2l6.7,2.9
		c-0.1,1.1-0.2,2.2-0.2,3.3c0,14.1,11.5,25.7,25.7,25.7c14.1,0,25.7-11.5,25.7-25.7S1814.9,710,1800.8,710z M1773,703.8l18.9-9
		l-2.6,5.9l-16.4,6.8L1773,703.8L1773,703.8z M1674.3,749.3c-7.5,0-13.6-6.1-13.6-13.6s6.1-13.6,13.6-13.6c0.3,0,0.6,0,0.9,0
		l-5.6,11.6l10.9,5.3l5.2-10.7c1.4,2.1,2.2,4.7,2.2,7.4C1687.9,743.2,1681.8,749.3,1674.3,749.3z M1800.8,749.3
		c-6.9,0-12.6-5.1-13.5-11.8l10.3,4.4l4.8-11.1l-11.1-4.8c2.5-2.4,5.8-3.9,9.6-3.9c7.5,0,13.6,6.1,13.6,13.6
		S1808.2,749.3,1800.8,749.3z"/>
</g>
<g id="Car">
	<path d="M526,808.4c-14.4,0-26.1,11.7-26.1,26.1s11.7,26.1,26.1,26.1c14.4,0,26.1-11.7,26.1-26.1
		C552.2,820.1,540.5,808.4,526,808.4z M526,846.6c-6.7,0-12.1-5.4-12.1-12.1c0-6.7,5.4-12.1,12.1-12.1c6.7,0,12.1,5.4,12.1,12.1
		C538.1,841.2,532.7,846.6,526,846.6z"/>
	<path d="M670.8,808.4c-14.4,0-26.1,11.7-26.1,26.1s11.7,26.1,26.1,26.1c14.4,0,26.1-11.7,26.1-26.1
		C697,820.1,685.3,808.4,670.8,808.4z M670.8,846.6c-6.7,0-12.1-5.4-12.1-12.1c0-6.7,5.4-12.1,12.1-12.1c6.7,0,12.1,5.4,12.1,12.1
		C682.9,841.2,677.5,846.6,670.8,846.6z"/>
	<path d="M705.7,786.8l-47-8.6l-40-33.2c-4-3.3-8.9-5-14.1-5h-58.9c-6.7,0-13.1,3-17.3,8.3l-25.4,30h-17.2c-10,0-18.1,8.1-18.1,18.1
		v22.1c0,12.2,9.9,22.1,22.1,22.1h4.6c-3.3-17.5,8.1-34.3,25.5-37.7c17.5-3.3,34.3,8.1,37.7,25.5c0.8,4,0.8,8.1,0,12.1h81.6
		c-3.3-17.5,8.1-34.3,25.5-37.7c17.5-3.3,34.3,8.1,37.7,25.5c0.8,4,0.8,8.1,0,12.1h0.6c10,0,18.1-8.1,18.1-18.1v-17.8
		C721.2,795.8,714.6,788.1,705.7,786.8z M556.2,772.2c0,3.3-2.7,6-6,6h-26.5c-1.7,0-3-1.3-3-3c0-0.7,0.3-1.4,0.7-2l17.6-20.6
		c1.1-1.3,2.8-2.1,4.6-2.1h6.7c3.3,0,6,2.7,6,6L556.2,772.2L556.2,772.2z M586.4,800.4h-8c-3.3,0-6-2.7-6-6s2.7-6,6-6h8
		c3.3,0,6,2.7,6,6S589.7,800.4,586.4,800.4z M633.9,778.4l-57.6-0.1c-3.3,0-6-2.7-6-6v-15.6c0-3.3,2.7-6,6-6h28.9
		c1.4,0,2.7,0.5,3.7,1.3l26.8,21.1c1.3,1,1.5,2.9,0.5,4.2C635.7,778,634.8,778.4,633.9,778.4z"/>
</g>
<g id="Van">
	<g>
		<g>
			<path d="M83.9,800.4c-17.9,0-32.4,14.5-32.4,32.4s14.5,32.4,32.4,32.4s32.4-14.5,32.4-32.4S101.8,800.4,83.9,800.4z M83.9,846.4
				c-7.5,0-13.7-6.1-13.7-13.7S76.3,819,83.9,819c7.5,0,13.7,6.1,13.7,13.7S91.4,846.4,83.9,846.4z"/>
			<path d="M278.4,800.4c-17.9,0-32.4,14.5-32.4,32.4s14.5,32.4,32.4,32.4s32.4-14.5,32.4-32.4S296.3,800.4,278.4,800.4z
				 M278.4,846.4c-7.5,0-13.7-6.1-13.7-13.7s6.1-13.7,13.7-13.7c7.5,0,13.7,6.1,13.7,13.7S286,846.4,278.4,846.4z"/>
			<path d="M337.9,749.9l-28.4-13.1l-31.3-62.7l-9.3-5.8H28.8l-10.4,10.4v149.5l10.4,10.4h12.9c-0.4-2.3-0.6-4.7-0.6-7.2
				c0-23.6,19.2-42.8,42.8-42.8s42.8,19.2,42.8,42.8c0,2.4-0.2,4.8-0.6,7.2h110.1c-0.4-2.3-0.6-4.7-0.6-7.2
				c0-23.6,19.2-42.8,42.8-42.8s42.8,19.2,42.8,42.8c0,2.4-0.2,4.8-0.6,7.2h12.9l10.4-10.4v-68.9L337.9,749.9z M95.7,744.6H59.3
				v-43.5h36.4V744.6z M162.3,744.6h-36.4v-43.5h36.4V744.6z M194.6,744.7v-43.5h54.5l21.7,43.4L194.6,744.7z"/>
		</g>
	</g>
</g>
<path class="st1" d="M1562.6,452.4h-123.6c-2.9,0-5.3-2.4-5.3-5.3v-58c0-2.9,2.4-5.3,5.3-5.3h123.6c2.9,0,5.3,2.4,5.3,5.3v58
	C1567.9,450,1565.5,452.4,1562.6,452.4z"/>
<g>
	<g>
		<path d="M1461.6,411.1c-0.5-0.2-1-0.4-1.5-0.8s-0.9-0.8-1.3-1.3l1.1-2c0.5,0.6,1,1.1,1.6,1.4c0.6,0.3,1.2,0.5,1.9,0.5
			c0.9,0,1.6-0.2,2.1-0.7s0.8-1.2,0.8-2.1v0c0-0.6-0.1-1.1-0.3-1.5s-0.5-0.7-0.9-0.8s-0.8-0.3-1.4-0.5c0,0,0,0-0.1,0c0,0,0,0-0.1,0
			l-0.1,0c-0.8-0.2-1.5-0.4-2.1-0.7s-1-0.7-1.4-1.5s-0.6-1.7-0.6-3v0c0-1.1,0.2-2.1,0.5-2.9c0.3-0.8,0.9-1.4,1.5-1.8
			c0.7-0.4,1.5-0.6,2.4-0.6c0.4,0,0.9,0.1,1.3,0.2s0.9,0.4,1.3,0.6s0.8,0.6,1.2,1.1l-1,2c-0.5-0.5-1-0.9-1.4-1.2
			c-0.5-0.3-1-0.4-1.4-0.4c-0.9,0-1.5,0.3-2,0.8s-0.7,1.2-0.7,2.1v0c0,0.6,0.1,1.1,0.4,1.5c0.2,0.4,0.5,0.6,0.9,0.8
			c0.4,0.2,0.9,0.4,1.5,0.5c0,0,0,0,0.1,0c0,0,0,0,0.1,0c0,0,0.1,0,0.1,0s0.1,0,0.1,0c0.8,0.2,1.4,0.5,1.9,0.8
			c0.5,0.3,0.9,0.8,1.3,1.5c0.3,0.7,0.5,1.6,0.5,2.8v0c0,1.1-0.2,2.1-0.5,2.9c-0.4,0.8-0.9,1.4-1.6,1.8c-0.7,0.4-1.5,0.6-2.5,0.6
			C1462.7,411.4,1462.1,411.3,1461.6,411.1z M1462,416.3l0.4-1.8c0.3,0.1,0.5,0.2,0.8,0.2c0.3,0,0.6-0.1,0.7-0.2
			c0.2-0.1,0.2-0.3,0.2-0.5c0-0.2-0.1-0.4-0.3-0.5c-0.2-0.1-0.5-0.2-0.9-0.2l0.8-1.5c0.7,0,1.2,0.2,1.5,0.6c0.3,0.4,0.5,0.9,0.5,1.7
			c0,0.8-0.2,1.3-0.6,1.7c-0.4,0.4-0.9,0.6-1.7,0.6C1462.9,416.5,1462.4,416.4,1462,416.3z M1464.2,410.4v3l-1.4,0v-3H1464.2z"/>
		<path d="M1470.4,392.8h1.8v18.4h-1.8V392.8z M1471.2,392.8h7.2v2.4h-7.2V392.8z M1471.2,400.9h6.3v2.4h-6.3V400.9z M1471.2,408.7
			h7.2v2.4h-7.2V408.7z"/>
		<path d="M1481,392.8h1.8v18.4h-1.8V392.8z M1482.3,403.1l5.5-10.3h2.2l-8,14.2L1482.3,403.1z M1484.4,401.4l1.4-1.9l4.8,11.7h-2.2
			L1484.4,401.4z"/>
		<path d="M1492.3,392.8h1.8v18.4h-1.8V392.8z M1493.2,392.8h7.2v2.4h-7.2V392.8z M1493.2,400.9h6.3v2.4h-6.3V400.9z M1493.2,408.7
			h7.2v2.4h-7.2V408.7z"/>
		<path d="M1502.9,392.8h1.8v18.4h-1.8V392.8z M1503.6,401h4.3c0.3,0,0.6-0.1,0.9-0.4s0.5-0.6,0.6-1c0.1-0.4,0.2-0.9,0.2-1.5
			c0-0.6-0.1-1.1-0.2-1.5c-0.1-0.4-0.3-0.8-0.6-1c-0.3-0.2-0.6-0.4-0.9-0.4h-4.3v-2.4h4.2c0.7,0,1.4,0.2,1.9,0.7s1,1.1,1.3,1.9
			c0.3,0.8,0.5,1.7,0.5,2.8s-0.2,2-0.5,2.8c-0.3,0.8-0.7,1.4-1.3,1.9s-1.2,0.7-1.9,0.7h-4.2V401z M1507.1,402.9l1.8-0.6l3.2,8.9
			h-2.1L1507.1,402.9z"/>
		<path d="M1514.4,392.8h1.8v18.4h-1.8V392.8z M1515.4,408.8h3.4c0.9,0,1.5-0.2,2-0.7c0.4-0.5,0.6-1.2,0.6-2.1v0
			c0-0.6-0.1-1.2-0.2-1.6c-0.1-0.4-0.4-0.8-0.7-1c-0.3-0.2-0.7-0.4-1.2-0.4h-3.8v-2.3h3.8c0.7,0,1.1-0.2,1.5-0.7
			c0.3-0.4,0.5-1.1,0.5-2c0-0.9-0.2-1.6-0.6-2.1c-0.4-0.5-0.9-0.7-1.7-0.7h-3.6v-2.4h3.9c0.8,0,1.5,0.2,2,0.6c0.5,0.4,1,1,1.2,1.7
			s0.4,1.6,0.4,2.7c0,0.6-0.1,1.2-0.3,1.8c-0.2,0.6-0.4,1-0.8,1.4s-0.8,0.7-1.3,0.8c0.5,0.1,0.9,0.4,1.3,0.8s0.7,0.9,0.8,1.6
			c0.2,0.6,0.3,1.3,0.3,2v0c0,1-0.2,1.9-0.4,2.6s-0.7,1.3-1.3,1.8c-0.6,0.4-1.2,0.6-2,0.6h-4.1V408.8z"/>
		<path d="M1525.8,392.8h1.8v18.4h-1.8V392.8z M1526.7,392.8h7.2v2.4h-7.2V392.8z M1526.7,400.9h6.3v2.4h-6.3V400.9z M1526.7,408.7
			h7.2v2.4h-7.2V408.7z"/>
		<path d="M1540.2,403.7v7.5h-1.8v-7.5l-3.8-10.9h2l2.7,8.3l2.7-8.3h2L1540.2,403.7z"/>
		<path d="M1439.5,442.1c-0.5-0.2-1-0.4-1.5-0.8s-0.9-0.8-1.3-1.3l1.1-2c0.5,0.6,1,1.1,1.6,1.4c0.6,0.3,1.2,0.5,1.9,0.5
			c0.9,0,1.6-0.2,2.1-0.7s0.8-1.2,0.8-2.1v0c0-0.6-0.1-1.1-0.3-1.5s-0.5-0.7-0.9-0.8s-0.8-0.3-1.4-0.5c0,0,0,0-0.1,0c0,0,0,0-0.1,0
			l-0.1,0c-0.8-0.2-1.5-0.4-2.1-0.7s-1-0.7-1.4-1.5s-0.6-1.7-0.6-3v0c0-1.1,0.2-2.1,0.5-2.9c0.3-0.8,0.9-1.4,1.5-1.8
			c0.7-0.4,1.5-0.6,2.4-0.6c0.4,0,0.9,0.1,1.3,0.2s0.9,0.4,1.3,0.6s0.8,0.6,1.2,1.1l-1,2c-0.5-0.5-1-0.9-1.4-1.2
			c-0.5-0.3-1-0.4-1.4-0.4c-0.9,0-1.5,0.3-2,0.8s-0.7,1.2-0.7,2.1v0c0,0.6,0.1,1.1,0.4,1.5c0.2,0.4,0.5,0.6,0.9,0.8
			c0.4,0.2,0.9,0.4,1.5,0.5c0,0,0,0,0.1,0c0,0,0,0,0.1,0c0,0,0.1,0,0.1,0s0.1,0,0.1,0c0.8,0.2,1.4,0.5,1.9,0.8
			c0.5,0.3,0.9,0.8,1.3,1.5c0.3,0.7,0.5,1.6,0.5,2.8v0c0,1.1-0.2,2.1-0.5,2.9c-0.4,0.8-0.9,1.4-1.6,1.8c-0.7,0.4-1.5,0.6-2.5,0.6
			C1440.7,442.4,1440.1,442.3,1439.5,442.1z"/>
		<path d="M1450.2,441.6c-0.7-0.5-1.2-1.3-1.5-2.3c-0.3-1-0.5-2.3-0.5-3.7v-11.7h1.8v11.8c0,1.3,0.2,2.4,0.7,3.1
			c0.5,0.7,1.1,1.1,2,1.1c0.8,0,1.5-0.4,2-1.1c0.5-0.7,0.7-1.8,0.7-3.1v-11.8h1.8v11.7c0,1.4-0.2,2.7-0.5,3.7
			c-0.3,1-0.8,1.8-1.5,2.3c-0.7,0.5-1.5,0.8-2.4,0.8C1451.7,442.4,1450.9,442.1,1450.2,441.6z M1450,419.8h1.8v2.6h-1.8V419.8z
			 M1453.5,419.8h1.8v2.6h-1.8V419.8z"/>
		<path d="M1460,423.8h1.8v18.4h-1.8V423.8z M1460.7,432h4.3c0.3,0,0.6-0.1,0.9-0.4s0.5-0.6,0.6-1c0.1-0.4,0.2-0.9,0.2-1.5
			c0-0.6-0.1-1.1-0.2-1.5c-0.1-0.4-0.3-0.8-0.6-1c-0.3-0.2-0.6-0.4-0.9-0.4h-4.3v-2.4h4.2c0.7,0,1.4,0.2,1.9,0.7s1,1.1,1.3,1.9
			c0.3,0.8,0.5,1.7,0.5,2.8s-0.2,2-0.5,2.8c-0.3,0.8-0.7,1.4-1.3,1.9s-1.2,0.7-1.9,0.7h-4.2V432z M1464.2,433.9l1.8-0.6l3.2,8.9
			h-2.1L1464.2,433.9z"/>
		<path d="M1473.3,441.6c-0.7-0.5-1.2-1.3-1.5-2.3c-0.3-1-0.5-2.3-0.5-3.7v-11.7h1.8v11.8c0,1.3,0.2,2.4,0.7,3.1
			c0.5,0.7,1.1,1.1,2,1.1c0.8,0,1.5-0.4,2-1.1c0.5-0.7,0.7-1.8,0.7-3.1v-11.8h1.8v11.7c0,1.4-0.2,2.7-0.5,3.7
			c-0.3,1-0.8,1.8-1.5,2.3c-0.7,0.5-1.5,0.8-2.4,0.8C1474.8,442.4,1474,442.1,1473.3,441.6z M1473.1,419.8h1.8v2.6h-1.8V419.8z
			 M1476.6,419.8h1.8v2.6h-1.8V419.8z"/>
		<path d="M1484.9,441.6c-0.7-0.6-1.2-1.4-1.5-2.4c-0.4-1-0.5-2.2-0.5-3.6v-5c0-1.4,0.2-2.6,0.5-3.6c0.4-1,0.9-1.8,1.5-2.4
			s1.4-0.9,2.3-0.9c0.7,0,1.4,0.2,2,0.7s1.1,1.1,1.5,1.9c0.4,0.8,0.7,1.8,0.8,2.9h-1.8c-0.1-0.6-0.3-1.1-0.5-1.5s-0.6-0.8-0.9-1
			c-0.3-0.2-0.7-0.4-1.1-0.4c-0.5,0-1,0.2-1.3,0.5c-0.4,0.4-0.7,0.9-0.9,1.5s-0.3,1.4-0.3,2.3v5c0,0.9,0.1,1.6,0.3,2.3
			s0.5,1.2,0.9,1.5c0.4,0.4,0.8,0.5,1.3,0.5c0.4,0,0.7-0.1,1.1-0.3c0.3-0.2,0.6-0.6,0.9-1c0.3-0.4,0.4-1,0.5-1.6h1.8
			c-0.1,1.1-0.4,2-0.8,2.9c-0.4,0.8-0.9,1.5-1.5,1.9s-1.3,0.7-2,0.7C1486.3,442.4,1485.6,442.1,1484.9,441.6z"/>
		<path d="M1495.9,441.6c-0.7-0.5-1.2-1.3-1.5-2.3c-0.3-1-0.5-2.3-0.5-3.7v-11.7h1.8v11.8c0,1.3,0.2,2.4,0.7,3.1
			c0.5,0.7,1.1,1.1,2,1.1c0.8,0,1.5-0.4,2-1.1c0.5-0.7,0.7-1.8,0.7-3.1v-11.8h1.8v11.7c0,1.4-0.2,2.7-0.5,3.7
			c-0.3,1-0.8,1.8-1.5,2.3c-0.7,0.5-1.5,0.8-2.4,0.8C1497.3,442.4,1496.5,442.1,1495.9,441.6z M1495.6,419.8h1.8v2.6h-1.8V419.8z
			 M1499.1,419.8h1.8v2.6h-1.8V419.8z"/>
		<path d="M1510.4,423.9h1.8v18.4h-1.8V423.9z M1511.7,434.2l5.5-10.3h2.2l-8,14.2L1511.7,434.2z M1513.8,432.4l1.4-1.9l4.8,11.7
			h-2.2L1513.8,432.4z"/>
		<path d="M1523.6,441.6c-0.7-0.5-1.2-1.3-1.5-2.3c-0.3-1-0.5-2.3-0.5-3.7v-11.7h1.8v11.8c0,1.3,0.2,2.4,0.7,3.1
			c0.5,0.7,1.1,1.1,2,1.1c0.8,0,1.5-0.4,2-1.1c0.5-0.7,0.7-1.8,0.7-3.1v-11.8h1.8v11.7c0,1.4-0.2,2.7-0.5,3.7
			c-0.3,1-0.8,1.8-1.5,2.3c-0.7,0.5-1.5,0.8-2.4,0.8C1525,442.4,1524.2,442.1,1523.6,441.6z"/>
		<path d="M1533.3,423.8h1.8v18.4h-1.8V423.8z M1534.1,432h4.3c0.3,0,0.6-0.1,0.9-0.4s0.5-0.6,0.6-1c0.1-0.4,0.2-0.9,0.2-1.5
			c0-0.6-0.1-1.1-0.2-1.5c-0.1-0.4-0.3-0.8-0.6-1c-0.3-0.2-0.6-0.4-0.9-0.4h-4.3v-2.4h4.2c0.7,0,1.4,0.2,1.9,0.7s1,1.1,1.3,1.9
			c0.3,0.8,0.5,1.7,0.5,2.8s-0.2,2-0.5,2.8c-0.3,0.8-0.7,1.4-1.3,1.9s-1.2,0.7-1.9,0.7h-4.2V432z M1537.5,433.9l1.8-0.6l3.2,8.9
			h-2.1L1537.5,433.9z"/>
		<path d="M1546.9,442.1c-0.5-0.2-1-0.4-1.5-0.8s-0.9-0.8-1.3-1.3l1.1-2c0.5,0.6,1,1.1,1.6,1.4c0.6,0.3,1.2,0.5,1.9,0.5
			c0.9,0,1.6-0.2,2.1-0.7s0.8-1.2,0.8-2.1v0c0-0.6-0.1-1.1-0.3-1.5s-0.5-0.7-0.9-0.8s-0.8-0.3-1.4-0.5c0,0,0,0-0.1,0c0,0,0,0-0.1,0
			l-0.1,0c-0.8-0.2-1.5-0.4-2.1-0.7s-1-0.7-1.4-1.5s-0.6-1.7-0.6-3v0c0-1.1,0.2-2.1,0.5-2.9c0.3-0.8,0.9-1.4,1.5-1.8
			c0.7-0.4,1.5-0.6,2.4-0.6c0.4,0,0.9,0.1,1.3,0.2s0.9,0.4,1.3,0.6s0.8,0.6,1.2,1.1l-1,2c-0.5-0.5-1-0.9-1.4-1.2
			c-0.5-0.3-1-0.4-1.4-0.4c-0.9,0-1.5,0.3-2,0.8s-0.7,1.2-0.7,2.1v0c0,0.6,0.1,1.1,0.4,1.5c0.2,0.4,0.5,0.6,0.9,0.8
			c0.4,0.2,0.9,0.4,1.5,0.5c0,0,0,0,0.1,0c0,0,0,0,0.1,0c0,0,0.1,0,0.1,0s0.1,0,0.1,0c0.8,0.2,1.4,0.5,1.9,0.8
			c0.5,0.3,0.9,0.8,1.3,1.5c0.3,0.7,0.5,1.6,0.5,2.8v0c0,1.1-0.2,2.1-0.5,2.9c-0.4,0.8-0.9,1.4-1.6,1.8c-0.7,0.4-1.5,0.6-2.5,0.6
			C1548,442.4,1547.4,442.3,1546.9,442.1z"/>
		<path d="M1557.6,441.6c-0.7-0.5-1.2-1.3-1.5-2.3c-0.3-1-0.5-2.3-0.5-3.7v-11.7h1.8v11.8c0,1.3,0.2,2.4,0.7,3.1
			c0.5,0.7,1.1,1.1,2,1.1c0.8,0,1.5-0.4,2-1.1c0.5-0.7,0.7-1.8,0.7-3.1v-11.8h1.8v11.7c0,1.4-0.2,2.7-0.5,3.7
			c-0.3,1-0.8,1.8-1.5,2.3c-0.7,0.5-1.5,0.8-2.4,0.8C1559,442.4,1558.2,442.1,1557.6,441.6z"/>
	</g>
</g>
<rect x="1688.7" y="319.2" class="st1" width="181.5" height="42.3"/>
<g>
	<g>
		<path d="M1696.1,347.4c-0.8-0.5-1.4-1.3-1.8-2.3s-0.6-2.2-0.6-3.5v-4.9c0-1.3,0.2-2.5,0.6-3.5s1-1.8,1.8-2.3
			c0.8-0.6,1.7-0.8,2.7-0.8c0.8,0,1.6,0.2,2.3,0.7c0.7,0.4,1.3,1.1,1.8,1.9c0.5,0.8,0.8,1.7,1,2.8h-2.1c-0.1-0.6-0.3-1-0.6-1.5
			c-0.3-0.4-0.7-0.8-1.1-1c-0.4-0.2-0.8-0.4-1.3-0.4c-0.6,0-1.1,0.2-1.6,0.5c-0.5,0.4-0.8,0.8-1.1,1.5s-0.4,1.4-0.4,2.2v4.9
			c0,0.8,0.1,1.6,0.4,2.2c0.3,0.6,0.6,1.1,1.1,1.5c0.5,0.3,1,0.5,1.6,0.5c0.4,0,0.9-0.1,1.3-0.3c0.4-0.2,0.8-0.5,1.1-1
			c0.3-0.4,0.5-0.9,0.6-1.5h2.1c-0.2,1.1-0.5,2-1,2.8c-0.5,0.8-1.1,1.4-1.8,1.9c-0.7,0.4-1.5,0.7-2.3,0.7
			C1697.7,348.2,1696.8,347.9,1696.1,347.4z M1696.9,352.9l0.4-1.7c0.3,0.1,0.6,0.2,1,0.2c0.4,0,0.6-0.1,0.8-0.2
			c0.2-0.1,0.3-0.3,0.3-0.5c0-0.2-0.1-0.4-0.4-0.5c-0.2-0.1-0.6-0.1-1.1-0.1l0.9-1.4c0.8,0,1.4,0.2,1.8,0.5c0.4,0.4,0.6,0.9,0.6,1.6
			c0,0.7-0.2,1.3-0.6,1.7c-0.4,0.4-1.1,0.6-2,0.6C1697.9,353.2,1697.3,353.1,1696.9,352.9z M1699.4,347.3v2.9l-1.7,0v-2.9H1699.4z"
			/>
		<path d="M1706.8,330.2h2.1V348h-2.1V330.2z M1707.8,330.2h8.5v2.4h-8.5V330.2z M1707.8,338h7.4v2.4h-7.4V338z M1707.8,345.6h8.5
			v2.4h-8.5V345.6z"/>
		<path d="M1719.2,330.2h2.1V348h-2.1V330.2z M1720.1,338.1h5c0.4,0,0.7-0.1,1-0.3c0.3-0.2,0.5-0.6,0.7-1c0.2-0.4,0.2-0.9,0.2-1.4
			s-0.1-1-0.2-1.4c-0.2-0.4-0.4-0.7-0.7-1c-0.3-0.2-0.7-0.3-1-0.3h-5v-2.4h4.9c0.9,0,1.6,0.2,2.2,0.6c0.6,0.4,1.1,1,1.5,1.8
			c0.4,0.8,0.5,1.7,0.5,2.7c0,1-0.2,1.9-0.5,2.7c-0.4,0.8-0.9,1.4-1.5,1.8c-0.6,0.4-1.4,0.6-2.2,0.6h-4.9V338.1z M1724.1,339.9
			l2.1-0.6l3.8,8.6h-2.5L1724.1,339.9z"/>
		<path d="M1734.8,347.4c-0.8-0.5-1.4-1.3-1.8-2.3s-0.6-2.2-0.6-3.5v-4.9c0-1.3,0.2-2.5,0.6-3.5s1-1.8,1.8-2.3s1.7-0.8,2.7-0.8
			c0.8,0,1.6,0.2,2.3,0.7c0.7,0.4,1.3,1.1,1.8,1.9c0.5,0.8,0.8,1.7,1,2.8h-2.1c-0.1-0.6-0.3-1-0.6-1.5c-0.3-0.4-0.7-0.8-1.1-1
			c-0.4-0.2-0.8-0.4-1.3-0.4c-0.6,0-1.1,0.2-1.6,0.5c-0.5,0.4-0.8,0.8-1.1,1.5s-0.4,1.4-0.4,2.2v4.9c0,0.8,0.1,1.6,0.4,2.2
			c0.3,0.6,0.6,1.1,1.1,1.5s1,0.5,1.6,0.5c0.4,0,0.9-0.1,1.3-0.3s0.8-0.5,1.1-1c0.3-0.4,0.5-0.9,0.6-1.5h2.1c-0.2,1.1-0.5,2-1,2.8
			c-0.5,0.8-1.1,1.4-1.8,1.9c-0.7,0.4-1.5,0.7-2.3,0.7C1736.5,348.2,1735.6,347.9,1734.8,347.4z M1735.7,352.9l0.4-1.7
			c0.3,0.1,0.6,0.2,1,0.2c0.4,0,0.6-0.1,0.8-0.2c0.2-0.1,0.3-0.3,0.3-0.5c0-0.2-0.1-0.4-0.4-0.5c-0.2-0.1-0.6-0.1-1.1-0.1l0.9-1.4
			c0.8,0,1.4,0.2,1.8,0.5c0.4,0.4,0.6,0.9,0.6,1.6c0,0.7-0.2,1.3-0.6,1.7c-0.4,0.4-1.1,0.6-2,0.6
			C1736.7,353.2,1736.1,353.1,1735.7,352.9z M1738.2,347.3v2.9l-1.7,0v-2.9H1738.2z"/>
		<path d="M1745.6,326.3h2.1v2.5h-2.1V326.3z M1747.6,348h-2.1v-17.8h2.1V348z"/>
		<path d="M1753.4,347.4c-0.8-0.5-1.4-1.3-1.8-2.3s-0.6-2.2-0.6-3.5v-4.9c0-1.3,0.2-2.5,0.6-3.5s1-1.8,1.8-2.3s1.7-0.8,2.7-0.8
			c0.8,0,1.6,0.2,2.3,0.7c0.7,0.4,1.3,1.1,1.8,1.9c0.5,0.8,0.8,1.7,1,2.8h-2.1c-0.1-0.6-0.3-1-0.6-1.5c-0.3-0.4-0.7-0.8-1.1-1
			c-0.4-0.2-0.8-0.4-1.3-0.4c-0.6,0-1.1,0.2-1.6,0.5c-0.5,0.4-0.8,0.8-1.1,1.5s-0.4,1.4-0.4,2.2v4.9c0,0.8,0.1,1.6,0.4,2.2
			c0.3,0.6,0.6,1.1,1.1,1.5s1,0.5,1.6,0.5c0.4,0,0.9-0.1,1.3-0.3s0.8-0.5,1.1-1c0.3-0.4,0.5-0.9,0.6-1.5h2.1c-0.2,1.1-0.5,2-1,2.8
			c-0.5,0.8-1.1,1.4-1.8,1.9c-0.7,0.4-1.5,0.7-2.3,0.7C1755.1,348.2,1754.2,347.9,1753.4,347.4z"/>
		<path d="M1764.1,326.3h2.1v2.5h-2.1V326.3z M1766.2,348h-2.1v-17.8h2.1V348z"/>
		<path d="M1772,347.4c-0.8-0.5-1.4-1.3-1.8-2.3c-0.4-1-0.6-2.1-0.6-3.4v-5c0-1.3,0.2-2.5,0.6-3.4c0.4-1,1-1.8,1.8-2.3
			c0.8-0.5,1.7-0.8,2.7-0.8c1,0,1.9,0.3,2.7,0.8c0.8,0.5,1.4,1.3,1.8,2.3c0.4,1,0.6,2.1,0.6,3.4v5c0,1.3-0.2,2.5-0.6,3.4
			c-0.4,1-1,1.8-1.8,2.3c-0.8,0.5-1.7,0.8-2.7,0.8C1773.7,348.2,1772.8,347.9,1772,347.4z M1776.3,345.2c0.5-0.3,0.8-0.8,1.1-1.4
			c0.3-0.6,0.4-1.3,0.4-2.1v-5.2c0-0.8-0.1-1.5-0.4-2.1c-0.3-0.6-0.6-1.1-1.1-1.4c-0.5-0.3-1-0.5-1.6-0.5c-0.6,0-1.1,0.2-1.6,0.5
			c-0.5,0.3-0.8,0.8-1.1,1.4s-0.4,1.3-0.4,2.1v5.2c0,0.8,0.1,1.5,0.4,2.1c0.3,0.6,0.6,1.1,1.1,1.4s1,0.5,1.6,0.5
			C1775.3,345.7,1775.9,345.6,1776.3,345.2z"/>
		<path d="M1793.3,338.4v3.1c0,1.3-0.2,2.5-0.6,3.5c-0.4,1-1,1.8-1.8,2.3c-0.8,0.6-1.7,0.8-2.7,0.8c-1,0-2-0.3-2.7-0.8
			c-0.8-0.5-1.4-1.2-1.8-2.2c-0.4-0.9-0.6-2-0.6-3.3v-5.2c0-1.3,0.2-2.5,0.6-3.5s1-1.8,1.8-2.3c0.8-0.6,1.7-0.8,2.7-0.8
			c0.8,0,1.6,0.2,2.3,0.7c0.7,0.4,1.3,1.1,1.8,1.9c0.5,0.8,0.8,1.7,1,2.8h-2.2c-0.1-0.6-0.3-1.1-0.6-1.5c-0.3-0.4-0.6-0.8-1-1
			c-0.4-0.2-0.8-0.3-1.2-0.3c-0.6,0-1.1,0.2-1.6,0.5c-0.5,0.4-0.8,0.8-1.1,1.5s-0.4,1.4-0.4,2.2v5.2c0,0.8,0.1,1.4,0.4,2
			c0.3,0.6,0.6,1,1.1,1.3c0.5,0.3,1,0.5,1.6,0.5c0.6,0,1.1-0.2,1.6-0.5c0.5-0.3,0.8-0.8,1.1-1.4c0.3-0.6,0.4-1.4,0.4-2.2v-0.8h-3
			v-2.4H1793.3z M1791.6,325.2c0,1.2-0.3,2.1-0.9,2.8c-0.6,0.6-1.4,1-2.5,1h-0.1c-1.1,0-1.9-0.3-2.5-1c-0.6-0.6-0.9-1.6-0.9-2.8
			l1.7,0c0,0.6,0.1,1.1,0.4,1.4c0.3,0.3,0.7,0.5,1.3,0.5h0.1c0.5,0,1-0.2,1.3-0.5s0.4-0.8,0.4-1.4L1791.6,325.2z"/>
		<path d="M1796.7,330.2h2.1V348h-2.1V330.2z M1797.7,345.6h8.4v2.4h-8.4V345.6z"/>
		<path d="M1810.7,347.4c-0.8-0.5-1.4-1.3-1.8-2.3c-0.4-1-0.6-2.2-0.6-3.6v-11.4h2.1v11.4c0,1.3,0.3,2.3,0.8,3
			c0.5,0.7,1.3,1.1,2.3,1.1c1,0,1.8-0.4,2.3-1.1c0.5-0.7,0.8-1.7,0.8-3v-11.4h2.1v11.4c0,1.4-0.2,2.6-0.6,3.6c-0.4,1-1,1.7-1.8,2.3
			c-0.8,0.5-1.7,0.8-2.8,0.8C1812.4,348.2,1811.5,347.9,1810.7,347.4z"/>
		<path d="M1831.8,330.2h1.8l5.4,17.8h-2.2l-4.1-14.3l-4.1,14.3h-2.2L1831.8,330.2z M1828.8,341.7h7.8v2.4h-7.8V341.7z"/>
		<path d="M1841.2,330.2h2.1V348h-2.1V330.2z M1842.3,338.7h4.7c0.4,0,0.8-0.1,1.2-0.4c0.3-0.3,0.6-0.6,0.8-1.1s0.3-1,0.3-1.6
			c0-0.6-0.1-1.1-0.3-1.6s-0.4-0.8-0.8-1.1s-0.7-0.4-1.2-0.4h-4.7v-2.4h4.6c0.9,0,1.7,0.2,2.3,0.7c0.7,0.5,1.2,1.1,1.6,1.9
			c0.4,0.8,0.6,1.8,0.6,2.9c0,1.1-0.2,2-0.6,2.9c-0.4,0.8-0.9,1.5-1.6,1.9c-0.7,0.4-1.4,0.7-2.3,0.7h-4.6V338.7z"/>
		<path d="M1852.1,330.2h10.4v2.4h-10.4V330.2z M1856.3,331.7h2.1V348h-2.1V331.7z"/>
		<path d="M1863.6,345.4h2.2v2.6h-2.2V345.4z"/>
	</g>
</g>
<rect x="51.5" y="278.7" class="st1" width="181.5" height="50.1"/>
<g>
	<g>
		<path d="M62.3,292.7c-0.4-0.2-0.6-0.5-0.8-0.9c-0.2-0.4-0.3-0.8-0.3-1.3v-1.9c0-0.5,0.1-0.9,0.3-1.3c0.2-0.4,0.5-0.7,0.8-0.9
			c0.4-0.2,0.8-0.3,1.2-0.3s0.9,0.1,1.2,0.3c0.4,0.2,0.6,0.5,0.8,0.9c0.2,0.4,0.3,0.8,0.3,1.3v1.9c0,0.5-0.1,0.9-0.3,1.3
			c-0.2,0.4-0.5,0.7-0.8,0.9c-0.4,0.2-0.8,0.3-1.2,0.3S62.7,292.9,62.3,292.7z M62.2,284.7h0.9v0.9h-0.9V284.7z M64.3,291.9
			c0.2-0.1,0.4-0.3,0.5-0.5c0.1-0.2,0.2-0.5,0.2-0.8v-2c0-0.3-0.1-0.6-0.2-0.8c-0.1-0.2-0.3-0.4-0.5-0.5c-0.2-0.1-0.5-0.2-0.7-0.2
			s-0.5,0.1-0.7,0.2c-0.2,0.1-0.4,0.3-0.5,0.5c-0.1,0.2-0.2,0.5-0.2,0.8v2c0,0.3,0.1,0.6,0.2,0.8c0.1,0.2,0.3,0.4,0.5,0.5
			c0.2,0.1,0.5,0.2,0.7,0.2S64.1,292,64.3,291.9z M64.1,284.7H65v0.9h-0.9V284.7z"/>
		<path d="M70.7,288.9l-2.3,3.1h2.4v0.9h-3.6v-0.8l2.4-3.1h-2.3v-0.9h3.4V288.9z"/>
		<path d="M72.9,292.8c-0.3-0.2-0.6-0.4-0.7-0.7c-0.2-0.3-0.2-0.7-0.2-1.2v-0.5c0-0.5,0.1-0.9,0.2-1.2c0.2-0.3,0.4-0.6,0.7-0.8
			c0.3-0.2,0.7-0.3,1.1-0.3c0.4,0,0.7,0.1,1,0.3c0.3,0.2,0.5,0.5,0.6,0.9s0.2,0.8,0.2,1.4v0.3h-3.2v-0.8h2.3c0-0.4-0.1-0.7-0.3-0.9
			c-0.2-0.2-0.4-0.3-0.7-0.3c-0.4,0-0.6,0.1-0.8,0.4c-0.2,0.2-0.3,0.6-0.3,1v0.6c0,0.4,0.1,0.7,0.3,0.9c0.2,0.2,0.5,0.3,0.9,0.3
			c0.2,0,0.4,0,0.6-0.1c0.2-0.1,0.4-0.2,0.5-0.3l0.6,0.6c-0.2,0.2-0.5,0.4-0.8,0.5c-0.3,0.1-0.6,0.2-0.9,0.2
			C73.6,293,73.2,292.9,72.9,292.8z"/>
		<path d="M78.1,291.7c0,0.1,0,0.2,0.1,0.3c0.1,0.1,0.1,0.1,0.2,0.1h0.4v0.9h-0.6c-0.4,0-0.6-0.1-0.8-0.3c-0.2-0.2-0.3-0.5-0.3-0.9
			v-5.5h0.9V291.7z"/>
	</g>
</g>
<g>
	<g>
		<path d="M60,297.1h2.3v17.8H60V297.1z M61.1,297.1h9.4v2.4h-9.4V297.1z M61.1,304.8h8.1v2.4h-8.1V304.8z M61.1,312.5h9.4v2.4h-9.4
			V312.5z"/>
		<path d="M73.7,297H76v17.8h-2.3V297z M74.7,304.9h5.6c0.4,0,0.8-0.1,1.2-0.3c0.3-0.2,0.6-0.6,0.8-1c0.2-0.4,0.3-0.9,0.3-1.4
			s-0.1-1-0.3-1.4s-0.4-0.7-0.8-1c-0.3-0.2-0.7-0.3-1.2-0.3h-5.6V297h5.5c0.9,0,1.8,0.2,2.5,0.6c0.7,0.4,1.3,1,1.7,1.8
			c0.4,0.8,0.6,1.7,0.6,2.7c0,1-0.2,1.9-0.6,2.7s-1,1.4-1.7,1.8c-0.7,0.4-1.5,0.6-2.5,0.6h-5.5V304.9z M79.2,306.8l2.3-0.6l4.2,8.6
			h-2.7L79.2,306.8z"/>
		<path d="M93.6,307.6v7.2h-2.3v-7.2l-5-10.6h2.5l3.6,8l3.6-8h2.5L93.6,307.6z"/>
		<path d="M104.7,297.1h2l6,17.8h-2.5l-4.5-14.3l-4.5,14.3h-2.5L104.7,297.1z M101.5,308.6h8.6v2.4h-8.6V308.6z"/>
		<path d="M126.9,297.1h2.1v17.8h-2.2v-13.3l0.1,0.8l-4,10.1h-1.6l-4-9.8l0.1-1v13.3h-2.2v-17.8h2.1l4.8,11.7L126.9,297.1z"/>
		<path d="M137.5,297.1h2l6,17.8H143l-4.5-14.3l-4.5,14.3h-2.5L137.5,297.1z M134.3,308.6h8.6v2.4h-8.6V308.6z"/>
		<path d="M148,297.1h2.1l8,13.7l-0.3,0.3v-14.1h2.3v17.8h-2.1l-8-13.5l0.3-0.3v13.9H148V297.1z"/>
		<path d="M182,297.1h2.1v17.8h-2.2v-13.3l0.1,0.8l-4,10.1h-1.6l-4-9.8l0.1-1v13.3h-2.2v-17.8h2.1l4.8,11.7L182,297.1z"/>
		<path d="M185.9,297.1h11.5v2.4h-11.5V297.1z M190.5,298.5h2.3v16.3h-2.3V298.5z"/>
		<path d="M203.7,297.1h2l6,17.8h-2.5l-4.5-14.3l-4.5,14.3h-2.5L203.7,297.1z M200.4,308.6h8.6v2.4h-8.6V308.6z"/>
		<path d="M214.1,297.1h2.3v17.8h-2.3V297.1z M215.3,312.5h9.3v2.4h-9.3V312.5z"/>
	</g>
</g>
<path class="st1" d="M570,389.3H428.7c-2.6,0-4.6-2.1-4.6-4.6v-36.9c0-2.6,2.1-4.6,4.6-4.6H570c2.6,0,4.6,2.1,4.6,4.6v36.9
	C574.6,387.2,572.5,389.3,570,389.3z"/>
<g>
	<g>
		<path d="M429.7,353.4h2.2l3.5,16.4l3.5-16.4h2.2l-4.8,21h-1.9L429.7,353.4z"/>
		<path d="M443.2,353.4h2v21h-2V353.4z M444.2,353.4h8.4v2.8h-8.4V353.4z M444.2,362.6h7.3v2.8h-7.3V362.6z M444.2,371.6h8.4v2.8
			h-8.4V371.6z"/>
		<path d="M455.5,353.4h2v21h-2V353.4z M456.6,371.6h8.3v2.8h-8.3V371.6z"/>
		<path d="M467.3,348.8h2v2.9h-2V348.8z M469.4,374.4h-2v-21h2V374.4z"/>
		<path d="M478.5,353.4h2v21h-2V353.4z M480.1,365.2l6.4-11.8h2.5l-9.3,16.2L480.1,365.2z M482.5,363.2l1.6-2.1l5.5,13.3h-2.5
			L482.5,363.2z"/>
		<path d="M495.6,353.4h1.7l5.4,21h-2.2l-4-16.9l-4,16.9h-2.2L495.6,353.4z M492.7,367h7.7v2.8h-7.7V367z"/>
		<path d="M509.4,365.9v8.5h-2v-8.5l-4.4-12.4h2.3l3.2,9.5l3.2-9.5h2.3L509.4,365.9z"/>
		<path d="M519.3,353.4h1.7l5.4,21h-2.2l-4-16.9l-4,16.9h-2.2L519.3,353.4z M516.4,367h7.7v2.8h-7.7V367z"/>
		<path d="M538.1,353.4h1.7l5.4,21H543l-4-16.9l-4,16.9h-2.2L538.1,353.4z M535.2,367h7.7v2.8h-7.7V367z"/>
		<path d="M547.4,353.4h2v21h-2V353.4z M548.5,363.5h4.7c0.4,0,0.8-0.1,1.2-0.4c0.3-0.3,0.6-0.7,0.8-1.3c0.2-0.5,0.3-1.2,0.3-1.9
			c0-0.7-0.1-1.4-0.3-1.9c-0.2-0.5-0.4-1-0.8-1.3c-0.3-0.3-0.7-0.5-1.2-0.5h-4.7v-2.8h4.6c0.9,0,1.6,0.3,2.3,0.8
			c0.7,0.5,1.2,1.3,1.5,2.3c0.4,1,0.5,2.1,0.5,3.4c0,1.3-0.2,2.4-0.5,3.4c-0.4,1-0.9,1.7-1.5,2.2c-0.7,0.5-1.4,0.8-2.3,0.8h-4.6
			V363.5z"/>
		<path d="M558.2,353.4h10.3v2.8h-10.3V353.4z M562.3,355.1h2v19.3h-2V355.1z"/>
	</g>
</g>
<g>
	<path d="M1176.7,517.8l2.2-13.6h3c2.9,0,5.2-2.4,5.2-5.4v-10.7c0-3-2.3-5.4-5.2-5.4l-150.4,0c-2.9,0-5.2,2.4-5.2,5.4v10.7
		c0,3,2.3,5.4,5.2,5.4h3l2.2,13.6l0,109.5c-2.9,0-5.2,2.4-5.2,5.4v10.7h-5.2v5.4l160.8,0v-5.4h-5.2v-10.7c0-3-2.3-5.4-5.2-5.4V517.8
		z M1155.9,627.2v-96.3h5.2v96.3H1155.9z M1135.2,632.6v10.7h-5.2v-10.7c0-3-2.3-5.4-5.2-5.4V517.8l2.2-13.6h11.2l2.2,13.6v109.5
		C1137.5,627.2,1135.2,629.6,1135.2,632.6z M1041.8,522.9c0-1.5,1.2-2.7,2.6-2.7c1.4,0,2.6,1.2,2.6,2.7s-1.2,2.7-2.6,2.7
		C1043,525.6,1041.8,524.4,1041.8,522.9z M1067.7,522.9c0,1.5-1.2,2.7-2.6,2.7c-1.4,0-2.6-1.2-2.6-2.7c0-1.5,1.2-2.7,2.6-2.7
		C1066.6,520.2,1067.7,521.4,1067.7,522.9z M1057.4,522.9c0,1.5-1.2,2.7-2.6,2.7c-1.4,0-2.6-1.2-2.6-2.7c0-1.5,1.2-2.7,2.6-2.7
		C1056.2,520.2,1057.4,521.4,1057.4,522.9z M1057.4,530.9l0,96.3h-5.2l0-96.3H1057.4z M1062.5,530.9h5.2l0,96.3h-5.2V530.9z
		 M1072.9,627.2V517.8l2.2-13.6l11.2,0l2.2,13.6v109.5c-2.9,0-5.2,2.4-5.2,5.4v10.7h-5.2v-10.7
		C1078.1,629.6,1075.8,627.2,1072.9,627.2z M1114.4,627.2v-96.3h5.2l0,96.3H1114.4z M1119.6,522.9c0,1.5-1.2,2.7-2.6,2.7
		s-2.6-1.2-2.6-2.7c0-1.5,1.2-2.7,2.6-2.7S1119.6,521.4,1119.6,522.9z M1109.2,522.9c0,1.5-1.2,2.7-2.6,2.7s-2.6-1.2-2.6-2.7
		c0-1.5,1.2-2.7,2.6-2.7C1108.1,520.2,1109.2,521.4,1109.2,522.9z M1098.9,522.9c0,1.5-1.2,2.7-2.6,2.7c-1.4,0-2.6-1.2-2.6-2.7
		c0-1.5,1.2-2.7,2.6-2.7C1097.7,520.2,1098.9,521.4,1098.9,522.9z M1093.7,530.9h5.2v96.3h-5.2V530.9z M1104,530.9l5.2,0v96.3h-5.2
		V530.9z M1120,514.9h-26.8l-1.7-10.7h30.2L1120,514.9z M1088.5,632.6h36.3v10.7l-36.3,0V632.6z M1161.1,522.9
		c0,1.5-1.2,2.7-2.6,2.7s-2.6-1.2-2.6-2.7s1.2-2.7,2.6-2.7S1161.1,521.4,1161.1,522.9z M1150.7,522.9c0,1.5-1.2,2.7-2.6,2.7
		s-2.6-1.2-2.6-2.7s1.2-2.7,2.6-2.7S1150.7,521.4,1150.7,522.9z M1145.6,530.9h5.2v96.3h-5.2V530.9z M1166.3,522.9
		c0-1.5,1.2-2.7,2.6-2.7s2.6,1.2,2.6,2.7s-1.2,2.7-2.6,2.7S1166.3,524.4,1166.3,522.9z M1171.9,514.9h-26.8l-1.7-10.7l30.2,0
		L1171.9,514.9z M1031.4,488.1l150.4,0l0,10.7l-150.4,0V488.1z M1069.9,504.2l-1.7,10.7h-26.8l-1.7-10.7H1069.9z M1041.8,530.9h5.2
		l0,96.3h-5.2L1041.8,530.9z M1036.6,632.6h36.3v10.7h-36.3V632.6z M1140.4,643.3v-10.7l36.3,0v10.7H1140.4z M1166.3,627.2v-96.3
		h5.2l0,96.3H1166.3z"/>
</g>
<path class="st1" d="M886,388.4H773.1c-2.3,0-4.2-1.9-4.2-4.2v-37.9c0-2.3,1.9-4.2,4.2-4.2H886c2.3,0,4.2,1.9,4.2,4.2v37.9
	C890.2,386.5,888.3,388.4,886,388.4z"/>
<g>
	<g>
		<path d="M773.5,353.7h7.5v2.6h-7.5V353.7z M776.6,355.3h1.5v18.2h-1.5V355.3z"/>
		<path d="M785.1,353.7h1.3l3.9,19.9h-1.6l-3-16l-3,16h-1.6L785.1,353.7z M783,366.6h5.6v2.7H783V366.6z"/>
		<path d="M793.7,373.5c-0.5-0.2-0.9-0.5-1.3-0.8c-0.4-0.4-0.8-0.8-1.1-1.4l0.9-2.1c0.4,0.7,0.9,1.1,1.3,1.5c0.5,0.3,1,0.5,1.6,0.5
			c0.8,0,1.4-0.3,1.8-0.8s0.6-1.3,0.6-2.3v0c0-0.7-0.1-1.2-0.3-1.6c-0.2-0.4-0.4-0.7-0.7-0.9s-0.7-0.4-1.2-0.5c0,0,0,0,0,0s0,0,0,0
			l-0.1,0c-0.7-0.2-1.3-0.5-1.7-0.8c-0.4-0.3-0.8-0.8-1.1-1.6c-0.3-0.8-0.5-1.8-0.5-3.2v0c0-1.2,0.1-2.3,0.4-3.1s0.7-1.5,1.3-2
			c0.6-0.5,1.2-0.7,2-0.7c0.4,0,0.8,0.1,1.1,0.2s0.7,0.4,1.1,0.7s0.7,0.7,1.1,1.2l-0.9,2.2c-0.4-0.6-0.8-1-1.2-1.3s-0.8-0.4-1.2-0.4
			c-0.7,0-1.3,0.3-1.7,0.8c-0.4,0.5-0.6,1.3-0.6,2.3v0c0,0.7,0.1,1.2,0.3,1.6c0.2,0.4,0.5,0.7,0.8,0.9s0.7,0.4,1.3,0.6
			c0,0,0,0,0.1,0s0,0,0.1,0c0,0,0.1,0,0.1,0c0,0,0.1,0,0.1,0c0.6,0.2,1.2,0.5,1.6,0.9s0.8,0.9,1.1,1.6c0.3,0.8,0.4,1.8,0.4,3.1v0
			c0,1.2-0.2,2.2-0.5,3.1c-0.3,0.9-0.8,1.5-1.3,2c-0.6,0.5-1.3,0.7-2.1,0.7C794.7,373.8,794.2,373.7,793.7,373.5z M794.1,379.1
			l0.3-1.9c0.2,0.1,0.5,0.2,0.7,0.2c0.3,0,0.5-0.1,0.6-0.2c0.1-0.1,0.2-0.3,0.2-0.5c0-0.2-0.1-0.4-0.3-0.5c-0.2-0.1-0.4-0.2-0.8-0.2
			l0.6-1.6c0.6,0,1,0.2,1.3,0.6s0.4,1,0.4,1.8c0,0.8-0.2,1.4-0.5,1.9s-0.8,0.6-1.4,0.6C794.8,379.3,794.4,379.3,794.1,379.1z
			 M796,372.7v3.3l-1.2,0v-3.3H796z"/>
		<path d="M801.2,353.7h1.5v19.9h-1.5V353.7z M802.2,370.9h2.4c0.8,0,1.4-0.4,1.8-1.1s0.6-1.8,0.6-3.2v-5.8c0-1.4-0.2-2.5-0.6-3.2
			c-0.4-0.8-1-1.1-1.8-1.1h-2.4v-2.6h2.4c0.9,0,1.6,0.3,2.2,0.8c0.6,0.6,1.1,1.4,1.4,2.4c0.3,1.1,0.5,2.3,0.5,3.9v5.6
			c0,1.5-0.2,2.8-0.5,3.9c-0.3,1.1-0.8,1.9-1.4,2.4c-0.6,0.6-1.3,0.8-2.2,0.8h-2.4V370.9z"/>
		<path d="M814,353.7h1.3l3.9,19.9h-1.6l-3-16l-3,16H810L814,353.7z M811.9,366.6h5.6v2.7h-5.6V366.6z"/>
		<path d="M820.8,353.7h1.4l5.2,15.4l-0.2,0.4v-15.7h1.5v19.8h-1.4l-5.2-15.1l0.2-0.4v15.5h-1.5V353.7z"/>
		<path d="M835.4,349.3h1.5v2.8h-1.5V349.3z M836.8,373.6h-1.5v-19.9h1.5V373.6z"/>
		<path d="M839.5,353.7h1.4l5.2,15.4l-0.2,0.4v-15.7h1.5v19.8H846l-5.2-15.1l0.2-0.4v15.5h-1.5V353.7z"/>
		<path d="M851.8,373.5c-0.5-0.2-0.9-0.5-1.3-0.8c-0.4-0.4-0.8-0.8-1.1-1.4l0.9-2.1c0.4,0.7,0.9,1.1,1.3,1.5c0.5,0.3,1,0.5,1.6,0.5
			c0.8,0,1.4-0.3,1.8-0.8s0.6-1.3,0.6-2.3v0c0-0.7-0.1-1.2-0.3-1.6c-0.2-0.4-0.4-0.7-0.7-0.9s-0.7-0.4-1.2-0.5c0,0,0,0,0,0s0,0,0,0
			l-0.1,0c-0.7-0.2-1.3-0.5-1.7-0.8c-0.4-0.3-0.8-0.8-1.1-1.6c-0.3-0.8-0.5-1.8-0.5-3.2v0c0-1.2,0.1-2.3,0.4-3.1s0.7-1.5,1.3-2
			c0.6-0.5,1.2-0.7,2-0.7c0.4,0,0.8,0.1,1.1,0.2s0.7,0.4,1.1,0.7s0.7,0.7,1.1,1.2l-0.9,2.2c-0.4-0.6-0.8-1-1.2-1.3s-0.8-0.4-1.2-0.4
			c-0.7,0-1.3,0.3-1.7,0.8c-0.4,0.5-0.6,1.3-0.6,2.3v0c0,0.7,0.1,1.2,0.3,1.6c0.2,0.4,0.5,0.7,0.8,0.9s0.7,0.4,1.3,0.6
			c0,0,0,0,0.1,0s0,0,0.1,0c0,0,0.1,0,0.1,0c0,0,0.1,0,0.1,0c0.6,0.2,1.2,0.5,1.6,0.9s0.8,0.9,1.1,1.6c0.3,0.8,0.4,1.8,0.4,3.1v0
			c0,1.2-0.2,2.2-0.5,3.1c-0.3,0.9-0.8,1.5-1.3,2c-0.6,0.5-1.3,0.7-2.1,0.7C852.7,373.8,852.2,373.7,851.8,373.5z M852.2,379.1
			l0.3-1.9c0.2,0.1,0.5,0.2,0.7,0.2c0.3,0,0.5-0.1,0.6-0.2c0.1-0.1,0.2-0.3,0.2-0.5c0-0.2-0.1-0.4-0.3-0.5c-0.2-0.1-0.4-0.2-0.8-0.2
			l0.6-1.6c0.6,0,1,0.2,1.3,0.6s0.4,1,0.4,1.8c0,0.8-0.2,1.4-0.5,1.9s-0.8,0.6-1.4,0.6C852.9,379.3,852.5,379.3,852.2,379.1z
			 M854,372.7v3.3l-1.2,0v-3.3H854z"/>
		<path d="M862.2,353.7h1.3l3.9,19.9h-1.6l-3-16l-3,16h-1.6L862.2,353.7z M860,366.6h5.6v2.7H860V366.6z"/>
		<path d="M871.9,353.7h1.3l3.9,19.9h-1.6l-3-16l-3,16H868L871.9,353.7z M869.8,366.6h5.6v2.7h-5.6V366.6z"/>
		<path d="M877.2,353.7h7.5v2.6h-7.5V353.7z M880.3,355.3h1.5v18.2h-1.5V355.3z"/>
	</g>
</g>
<g>
	<path d="M1333.1,517.8l2.2-13.6h3c2.9,0,5.2-2.4,5.2-5.4v-10.7c0-3-2.3-5.4-5.2-5.4l-150.4,0c-2.9,0-5.2,2.4-5.2,5.4v10.7
		c0,3,2.3,5.4,5.2,5.4h3l2.2,13.6v109.5c-2.9,0-5.2,2.4-5.2,5.4v10.7h-5.2v5.4l160.8,0v-5.4h-5.2v-10.7c0-3-2.3-5.4-5.2-5.4V517.8z
		 M1312.4,627.2v-96.3h5.2v96.3H1312.4z M1291.6,632.6v10.7h-5.2v-10.7c0-3-2.3-5.4-5.2-5.4V517.8l2.2-13.6h11.2l2.2,13.6v109.5
		C1293.9,627.2,1291.6,629.6,1291.6,632.6z M1198.2,522.9c0-1.5,1.2-2.7,2.6-2.7s2.6,1.2,2.6,2.7s-1.2,2.7-2.6,2.7
		S1198.2,524.4,1198.2,522.9z M1224.2,522.9c0,1.5-1.2,2.7-2.6,2.7s-2.6-1.2-2.6-2.7c0-1.5,1.2-2.7,2.6-2.7
		S1224.2,521.4,1224.2,522.9z M1213.8,522.9c0,1.5-1.2,2.7-2.6,2.7s-2.6-1.2-2.6-2.7c0-1.5,1.2-2.7,2.6-2.7
		S1213.8,521.4,1213.8,522.9z M1213.8,530.9v96.3h-5.2v-96.3H1213.8z M1219,530.9h5.2l0,96.3h-5.2V530.9z M1229.4,627.2l0-109.5
		l2.2-13.6l11.2,0l2.2,13.6l0,109.5c-2.9,0-5.2,2.4-5.2,5.4v10.7h-5.2v-10.7C1234.5,629.6,1232.2,627.2,1229.4,627.2z M1270.9,627.2
		v-96.3h5.2l0,96.3H1270.9z M1276,522.9c0,1.5-1.2,2.7-2.6,2.7c-1.4,0-2.6-1.2-2.6-2.7c0-1.5,1.2-2.7,2.6-2.7
		C1274.9,520.2,1276,521.4,1276,522.9z M1265.7,522.9c0,1.5-1.2,2.7-2.6,2.7c-1.4,0-2.6-1.2-2.6-2.7c0-1.5,1.2-2.7,2.6-2.7
		C1264.5,520.2,1265.7,521.4,1265.7,522.9z M1255.3,522.9c0,1.5-1.2,2.7-2.6,2.7c-1.4,0-2.6-1.2-2.6-2.7c0-1.5,1.2-2.7,2.6-2.7
		C1254.1,520.2,1255.3,521.4,1255.3,522.9z M1250.1,530.9h5.2l0,96.3h-5.2L1250.1,530.9z M1260.5,530.9l5.2,0l0,96.3h-5.2
		L1260.5,530.9z M1276.4,514.9h-26.8l-1.7-10.7h30.2L1276.4,514.9z M1244.9,632.6h36.3v10.7l-36.3,0V632.6z M1317.5,522.9
		c0,1.5-1.2,2.7-2.6,2.7s-2.6-1.2-2.6-2.7s1.2-2.7,2.6-2.7S1317.5,521.4,1317.5,522.9z M1307.2,522.9c0,1.5-1.2,2.7-2.6,2.7
		s-2.6-1.2-2.6-2.7s1.2-2.7,2.6-2.7S1307.2,521.4,1307.2,522.9z M1302,530.9h5.2v96.3h-5.2V530.9z M1322.7,522.9
		c0-1.5,1.2-2.7,2.6-2.7s2.6,1.2,2.6,2.7s-1.2,2.7-2.6,2.7S1322.7,524.4,1322.7,522.9z M1328.3,514.9h-26.8l-1.7-10.7l30.2,0
		L1328.3,514.9z M1187.9,488.1l150.4,0l0,10.7l-150.4,0V488.1z M1226.3,504.2l-1.7,10.7h-26.8l-1.7-10.7H1226.3z M1198.2,530.9h5.2
		v96.3h-5.2V530.9z M1193,632.6h36.3v10.7H1193V632.6z M1296.8,643.3v-10.7l36.3,0v10.7H1296.8z M1322.7,627.2v-96.3h5.2l0,96.3
		H1322.7z"/>
</g>
<line class="st2" x1="1028.2" y1="486.2" x2="1186" y2="422.2"/>
<line class="st2" x1="1340.1" y1="486.4" x2="1183.8" y2="422.4"/>
<g>
	<g>
		<path d="M1163.7,436.7h2.5l7.6,20.6h-3.1l-5.7-16.6l-5.7,16.6h-3.1L1163.7,436.7z M1159.6,450h10.8v2.7h-10.8V450z"/>
		<path d="M1176.8,436.7h2.9v20.6h-2.9V436.7z M1178.5,454.6h5.6c1.5,0,2.5-0.3,3.2-0.8s1-1.3,1-2.3v0c0-0.7-0.1-1.3-0.4-1.8
			c-0.2-0.5-0.6-0.9-1.1-1.2c-0.5-0.3-1.2-0.4-2-0.4h-6.3v-2.6h6.3c1.1,0,1.9-0.2,2.4-0.7c0.5-0.5,0.8-1.2,0.8-2.2
			c0-1-0.3-1.8-0.9-2.3c-0.6-0.5-1.5-0.8-2.7-0.8h-5.9v-2.7h6.4c1.3,0,2.4,0.2,3.3,0.7c0.9,0.5,1.6,1.1,2,1.9s0.7,1.8,0.7,3
			c0,0.7-0.1,1.4-0.4,2c-0.3,0.6-0.7,1.1-1.3,1.6c-0.6,0.4-1.3,0.7-2.1,0.9c0.8,0.1,1.5,0.4,2.1,0.9c0.6,0.5,1.1,1,1.4,1.7
			c0.3,0.7,0.5,1.5,0.5,2.3v0c0,1.1-0.2,2.1-0.7,2.9s-1.2,1.5-2.1,2c-0.9,0.5-2,0.7-3.2,0.7h-6.6V454.6z"/>
		<path d="M1192.7,436.7h14.5v2.7h-14.5V436.7z M1198.5,438.4h2.9v18.9h-2.9V438.4z"/>
	</g>
</g>
<g>
	<g>
		<path d="M1114.4,469.6v2.9c0,1.2-0.2,2.3-0.7,3.3s-1.2,1.7-2,2.2s-1.9,0.8-3.1,0.8c-1.2,0-2.2-0.2-3.1-0.7
			c-0.9-0.5-1.6-1.2-2.1-2.1s-0.7-1.9-0.7-3.1V468c0-1.2,0.2-2.3,0.7-3.3s1.2-1.7,2.1-2.2c0.9-0.5,1.9-0.8,3.1-0.8
			c1,0,1.8,0.2,2.6,0.6c0.8,0.4,1.5,1,2,1.7s0.9,1.6,1.1,2.6h-2.5c-0.1-0.6-0.4-1-0.7-1.4s-0.7-0.7-1.2-0.9
			c-0.4-0.2-0.9-0.3-1.4-0.3c-0.7,0-1.3,0.2-1.8,0.5c-0.5,0.3-0.9,0.8-1.2,1.4c-0.3,0.6-0.4,1.3-0.4,2.1v4.9c0,0.7,0.1,1.3,0.4,1.9
			c0.3,0.5,0.7,1,1.2,1.3c0.5,0.3,1.1,0.4,1.8,0.4c0.7,0,1.3-0.2,1.8-0.5s0.9-0.8,1.2-1.3c0.3-0.6,0.4-1.3,0.4-2.1v-0.7h-3.4v-2.2
			H1114.4z"/>
		<path d="M1122.8,461.9h2l6.2,16.7h-2.5l-4.6-13.5l-4.6,13.5h-2.5L1122.8,461.9z M1119.4,472.7h8.8v2.2h-8.8V472.7z"/>
		<path d="M1138.5,471.8v6.8h-2.3v-6.8l-5.1-9.9h2.6l3.7,7.5l3.7-7.5h2.6L1138.5,471.8z"/>
		<path d="M1145.3,461.9h2.3v16.7h-2.3V461.9z M1146.3,469.3h5.7c0.4,0,0.8-0.1,1.2-0.3s0.6-0.5,0.8-0.9c0.2-0.4,0.3-0.8,0.3-1.4
			c0-0.5-0.1-1-0.3-1.4c-0.2-0.4-0.5-0.7-0.8-0.9c-0.3-0.2-0.7-0.3-1.2-0.3h-5.7v-2.2h5.6c1,0,1.8,0.2,2.5,0.6
			c0.7,0.4,1.3,1,1.7,1.7c0.4,0.7,0.6,1.6,0.6,2.5c0,1-0.2,1.8-0.6,2.5c-0.4,0.7-1,1.3-1.7,1.7s-1.6,0.6-2.5,0.6h-5.6V469.3z
			 M1150.8,471l2.3-0.5l4.3,8.1h-2.8L1150.8,471z"/>
		<path d="M1160.6,458.2h2.3v2.3h-2.3V458.2z M1163,478.6h-2.3v-16.7h2.3V478.6z"/>
		<path d="M1179.1,461.9h2.2v16.7h-2.3v-12.5l0.1,0.7l-4.1,9.5h-1.6l-4.1-9.2l0.1-1v12.5h-2.3v-16.7h2.2l4.9,11L1179.1,461.9z"/>
		<path d="M1185.4,461.9h2.3v16.7h-2.3V461.9z M1186.6,461.9h9.6v2.2h-9.6V461.9z M1186.6,469.2h8.3v2.2h-8.3V469.2z M1186.6,476.4
			h9.6v2.2h-9.6V476.4z"/>
		<path d="M1199.5,461.9h2.1l8.2,12.9l-0.3,0.3v-13.2h2.3v16.7h-2.1l-8.1-12.7l0.3-0.3v13h-2.3V461.9z"/>
		<path d="M1216,461.9h2.3v16.7h-2.3V461.9z M1217.8,471.3l7.4-9.4h2.9l-10.6,12.9L1217.8,471.3z M1220.6,469.7l1.8-1.7l6.3,10.6
			h-2.9L1220.6,469.7z"/>
		<path d="M1233.5,478.1c-0.9-0.5-1.5-1.2-2-2.1c-0.5-0.9-0.7-2.1-0.7-3.4v-10.7h2.3v10.7c0,1.2,0.3,2.2,0.9,2.8s1.5,1,2.6,1
			c1.1,0,2-0.3,2.6-1s0.9-1.6,0.9-2.8v-10.7h2.3v10.7c0,1.3-0.2,2.4-0.7,3.4c-0.5,0.9-1.1,1.6-2,2.1c-0.9,0.5-1.9,0.7-3.2,0.7
			C1235.4,478.8,1234.4,478.6,1233.5,478.1z"/>
		<path d="M1246.5,461.9h2.3v16.7h-2.3V461.9z M1247.6,476.4h9.6v2.2h-9.6V476.4z"/>
	</g>
</g>
<g>
	<g>
		<g>
			<path d="M315.1,108.3l-42.7-17V61.7h27.1v6.8h-4c-1.3,0-2.3,1.4-2.3,3.2v13.2c0,1.8,1,3.2,2.3,3.2h12.7c1.3,0,2.3-1.4,2.3-3.2
				V71.7c0-1.8-1-3.2-2.3-3.2h-4v-6.8h10.4c1.1,0,2.1-1.2,2.3-2.8c0.2-1.6-0.5-3.1-1.6-3.5l-44.4-17.6c0,0,0,0,0,0l0,0
				c0,0,0,0-0.1,0c0,0-0.1,0-0.1,0c0,0-0.1,0-0.1,0c0,0-0.1,0-0.1,0c-0.1,0-0.1,0-0.2,0c0,0,0,0-0.1,0h0c0,0,0,0,0,0h-38
				c0,0,0,0,0,0h0c0,0,0,0-0.1,0c-0.1,0-0.1,0-0.2,0c0,0-0.1,0-0.1,0c0,0-0.1,0-0.1,0c0,0-0.1,0-0.1,0c0,0,0,0-0.1,0l0,0
				c0,0,0,0,0,0l-44.4,17.6c-1.1,0.4-1.8,1.9-1.6,3.5c0.2,1.6,1.1,2.8,2.3,2.8h10.4v6.8h-4c-1.3,0-2.3,1.4-2.3,3.2v13.2
				c0,1.8,1,3.2,2.3,3.2h12.7c1.3,0,2.3-1.4,2.3-3.2V71.7c0-1.8-1-3.2-2.3-3.2h-4v-6.8h27.1v29.6l-42.7,17c-1.1,0.4-1.8,1.9-1.6,3.5
				c0.2,1.6,1.1,2.8,2.3,2.8h10.4v6.8h-4c-1.3,0-2.3,1.4-2.3,3.2v13.2c0,1.8,1,3.2,2.3,3.2h12.7c1.3,0,2.3-1.4,2.3-3.2v-13.2
				c0-1.8-1-3.2-2.3-3.2h-4v-6.8h27.1v31.6l-9.4,45.8c0,0,0,0,0,0l0,0.1c0,0,0,0,0,0l0,0c0,0,0,0,0,0l-9,43.9h-4.6
				c-1.3,0-2.3,1.4-2.3,3.2v10h-4.7c-1.3,0-2.3,1.4-2.3,3.2s1,3.2,2.3,3.2h7h88.8h7c1.3,0,2.3-1.4,2.3-3.2s-1-3.2-2.3-3.2h-4.7v-10
				c0-1.8-1-3.2-2.3-3.2h-4.6l-9-43.9c0,0,0,0,0,0l0-0.1c0,0,0,0,0,0l-9.4-45.8v-31.6h27.1v6.8h-4c-1.3,0-2.3,1.4-2.3,3.2v13.2
				c0,1.8,1,3.2,2.3,3.2h12.7c1.3,0,2.3-1.4,2.3-3.2v-13.2c0-1.8-1-3.2-2.3-3.2h-4v-6.8h10.4c1.1,0,2.1-1.2,2.3-2.8
				C316.9,110.2,316.2,108.7,315.1,108.3z M305.8,74.9v6.8h-8.1v-6.8H305.8z M272.3,45.1L298,55.3h-25.7V45.1L272.3,45.1z
				 M204.3,74.9v6.8h-8.1v-6.8H204.3z M204.3,127.8v6.8h-8.1v-6.8H204.3z M234.3,44.1h33.5v11.2h-33.5V44.1z M267.7,61.7v26.1
				l-28.2-26.1C239.6,61.7,267.7,61.7,267.7,61.7z M234.3,64.5l28.2,26.1h-28.2V64.5L234.3,64.5z M234.3,96.9h33.5v11.2h-33.5V96.9z
				 M229.8,189.7L251,169l21.3,20.7H229.8z M269.8,196.1L251,209.1l-18.8-13.1H269.8z M239.3,149.8h23.5L251,161.2L239.3,149.8z
				 M267.7,114.6v26.1l-28.2-26.1H267.7z M234.3,117.3l28.2,26.1h-28.2V117.3z M204,55.3l25.7-10.2v10.2H204z M204,108.2L229.7,98
				v10.2H204L204,108.2z M233.3,151.8l13.7,13.3l-20.5,20L233.3,151.8z M223.9,197.5l22,15.2L216.6,233L223.9,197.5z M289.1,242.3
				L289.1,242.3L289.1,242.3C289.1,242.3,289.1,242.3,289.1,242.3l4,0v6.8h0h-84.2v-6.8h4c0,0,0,0,0,0c0,0,0,0,0,0h0c0,0,0,0,0,0
				h21.7c1.3,0,2.3-1.4,2.3-3.2c0-1.8-1-3.2-2.3-3.2h-12l28.3-19.7l28.3,19.7h-34.4c-1.3,0-2.3,1.4-2.3,3.2c0,1.8,1,3.2,2.3,3.2
				L289.1,242.3C289.1,242.3,289.1,242.3,289.1,242.3z M285.4,233l-29.3-20.3l22-15.2L285.4,233z M275.6,185.1l-20.5-20l13.7-13.3
				L275.6,185.1z M272.3,108.2V98l25.7,10.2H272.3z M305.8,127.8v6.8h-8.1v-6.8H305.8z"/>
		</g>
	</g>
	<g>
	</g>
	<g>
	</g>
	<g>
	</g>
	<g>
	</g>
	<g>
	</g>
	<g>
	</g>
	<g>
	</g>
	<g>
	</g>
	<g>
	</g>
	<g>
	</g>
	<g>
	</g>
	<g>
	</g>
	<g>
	</g>
	<g>
	</g>
	<g>
	</g>
</g>
<g>
	<g>
		<g>
			<path d="M591.7,108.3l-42.7-17V61.7h27.1v6.8h-4c-1.3,0-2.3,1.4-2.3,3.2v13.2c0,1.8,1,3.2,2.3,3.2h12.7c1.3,0,2.3-1.4,2.3-3.2
				V71.7c0-1.8-1-3.2-2.3-3.2h-4v-6.8h10.4c1.1,0,2.1-1.2,2.3-2.8c0.2-1.6-0.5-3.1-1.6-3.5l-44.4-17.6c0,0,0,0,0,0l0,0
				c0,0,0,0-0.1,0c0,0-0.1,0-0.1,0c0,0-0.1,0-0.1,0c0,0-0.1,0-0.1,0c-0.1,0-0.1,0-0.2,0c0,0,0,0-0.1,0h0c0,0,0,0,0,0h-38
				c0,0,0,0,0,0h0c0,0,0,0-0.1,0c-0.1,0-0.1,0-0.2,0c0,0-0.1,0-0.1,0c0,0-0.1,0-0.1,0c0,0-0.1,0-0.1,0c0,0,0,0-0.1,0l0,0
				c0,0,0,0,0,0l-44.4,17.6c-1.1,0.4-1.8,1.9-1.6,3.5c0.2,1.6,1.1,2.8,2.3,2.8h10.4v6.8h-4c-1.3,0-2.3,1.4-2.3,3.2v13.2
				c0,1.8,1,3.2,2.3,3.2h12.7c1.3,0,2.3-1.4,2.3-3.2V71.7c0-1.8-1-3.2-2.3-3.2h-4v-6.8h27.1v29.6l-42.7,17c-1.1,0.4-1.8,1.9-1.6,3.5
				c0.2,1.6,1.1,2.8,2.3,2.8h10.4v6.8h-4c-1.3,0-2.3,1.4-2.3,3.2v13.2c0,1.8,1,3.2,2.3,3.2h12.7c1.3,0,2.3-1.4,2.3-3.2v-13.2
				c0-1.8-1-3.2-2.3-3.2h-4v-6.8h27.1v31.6l-9.4,45.8c0,0,0,0,0,0l0,0.1c0,0,0,0,0,0l0,0c0,0,0,0,0,0l-9,43.9h-4.6
				c-1.3,0-2.3,1.4-2.3,3.2v10h-4.7c-1.3,0-2.3,1.4-2.3,3.2s1,3.2,2.3,3.2h7h88.8h7c1.3,0,2.3-1.4,2.3-3.2s-1-3.2-2.3-3.2h-4.7v-10
				c0-1.8-1-3.2-2.3-3.2h-4.6l-9-43.9c0,0,0,0,0,0l0-0.1c0,0,0,0,0,0l-9.4-45.8v-31.6h27.1v6.8h-4c-1.3,0-2.3,1.4-2.3,3.2v13.2
				c0,1.8,1,3.2,2.3,3.2h12.7c1.3,0,2.3-1.4,2.3-3.2v-13.2c0-1.8-1-3.2-2.3-3.2h-4v-6.8h10.4c1.1,0,2.1-1.2,2.3-2.8
				C593.5,110.2,592.8,108.7,591.7,108.3z M582.4,74.9v6.8h-8.1v-6.8H582.4z M549,45.1l25.7,10.2H549V45.1L549,45.1z M480.9,74.9
				v6.8h-8.1v-6.8H480.9z M480.9,127.8v6.8h-8.1v-6.8H480.9z M510.9,44.1h33.5v11.2h-33.5V44.1z M544.4,61.7v26.1l-28.2-26.1
				C516.2,61.7,544.4,61.7,544.4,61.7z M510.9,64.5l28.2,26.1h-28.2V64.5L510.9,64.5z M510.9,96.9h33.5v11.2h-33.5V96.9z
				 M506.4,189.7l21.3-20.7l21.3,20.7H506.4z M546.4,196.1l-18.8,13.1l-18.8-13.1H546.4z M515.9,149.8h23.5l-11.7,11.4L515.9,149.8z
				 M544.4,114.6v26.1l-28.2-26.1H544.4z M510.9,117.3l28.2,26.1h-28.2V117.3z M480.6,55.3l25.7-10.2v10.2H480.6z M480.6,108.2
				L506.3,98v10.2H480.6L480.6,108.2z M509.9,151.8l13.7,13.3l-20.5,20L509.9,151.8z M500.5,197.5l22,15.2L493.2,233L500.5,197.5z
				 M565.7,242.3L565.7,242.3L565.7,242.3C565.7,242.3,565.7,242.3,565.7,242.3l4,0v6.8h0h-84.2v-6.8h4c0,0,0,0,0,0c0,0,0,0,0,0h0
				c0,0,0,0,0,0h21.7c1.3,0,2.3-1.4,2.3-3.2c0-1.8-1-3.2-2.3-3.2h-12l28.3-19.7l28.3,19.7h-34.4c-1.3,0-2.3,1.4-2.3,3.2
				c0,1.8,1,3.2,2.3,3.2L565.7,242.3C565.7,242.3,565.7,242.3,565.7,242.3z M562.1,233l-29.3-20.3l22-15.2L562.1,233z M552.2,185.1
				l-20.5-20l13.7-13.3L552.2,185.1z M549,108.2V98l25.7,10.2H549z M582.4,127.8v6.8h-8.1v-6.8H582.4z"/>
		</g>
	</g>
	<g>
	</g>
	<g>
	</g>
	<g>
	</g>
	<g>
	</g>
	<g>
	</g>
	<g>
	</g>
	<g>
	</g>
	<g>
	</g>
	<g>
	</g>
	<g>
	</g>
	<g>
	</g>
	<g>
	</g>
	<g>
	</g>
	<g>
	</g>
	<g>
	</g>
</g>
<g>
	<g>
		<g>
			<path d="M866.5,107.6l-42.7-17V61h27.1v6.8h-4c-1.3,0-2.3,1.4-2.3,3.2v13.2c0,1.8,1,3.2,2.3,3.2h12.7c1.3,0,2.3-1.4,2.3-3.2V71
				c0-1.8-1-3.2-2.3-3.2h-4V61h10.4c1.1,0,2.1-1.2,2.3-2.8c0.2-1.6-0.5-3.1-1.6-3.5l-44.4-17.6c0,0,0,0,0,0l0,0c0,0,0,0-0.1,0
				c0,0-0.1,0-0.1,0c0,0-0.1,0-0.1,0c0,0-0.1,0-0.1,0c-0.1,0-0.1,0-0.2,0c0,0,0,0-0.1,0h0c0,0,0,0,0,0h-38c0,0,0,0,0,0h0
				c0,0,0,0-0.1,0c-0.1,0-0.1,0-0.2,0c0,0-0.1,0-0.1,0c0,0-0.1,0-0.1,0c0,0-0.1,0-0.1,0c0,0,0,0-0.1,0l0,0c0,0,0,0,0,0l-44.4,17.6
				c-1.1,0.4-1.8,1.9-1.6,3.5c0.2,1.6,1.1,2.8,2.3,2.8h10.4v6.8h-4c-1.3,0-2.3,1.4-2.3,3.2v13.2c0,1.8,1,3.2,2.3,3.2h12.7
				c1.3,0,2.3-1.4,2.3-3.2V71c0-1.8-1-3.2-2.3-3.2h-4V61H781v29.6l-42.7,17c-1.1,0.4-1.8,1.9-1.6,3.5c0.2,1.6,1.1,2.8,2.3,2.8h10.4
				v6.8h-4c-1.3,0-2.3,1.4-2.3,3.2v13.2c0,1.8,1,3.2,2.3,3.2h12.7c1.3,0,2.3-1.4,2.3-3.2v-13.2c0-1.8-1-3.2-2.3-3.2h-4v-6.8H781
				v31.6l-9.4,45.8c0,0,0,0,0,0l0,0.1c0,0,0,0,0,0l0,0c0,0,0,0,0,0l-9,43.9h-4.6c-1.3,0-2.3,1.4-2.3,3.2v10h-4.7
				c-1.3,0-2.3,1.4-2.3,3.2c0,1.8,1,3.2,2.3,3.2h7h88.8h7c1.3,0,2.3-1.4,2.3-3.2c0-1.8-1-3.2-2.3-3.2h-4.7v-10c0-1.8-1-3.2-2.3-3.2
				h-4.6l-9-43.9c0,0,0,0,0,0l0-0.1c0,0,0,0,0,0l-9.4-45.8v-31.6h27.1v6.8h-4c-1.3,0-2.3,1.4-2.3,3.2v13.2c0,1.8,1,3.2,2.3,3.2h12.7
				c1.3,0,2.3-1.4,2.3-3.2v-13.2c0-1.8-1-3.2-2.3-3.2h-4v-6.8h10.4c1.1,0,2.1-1.2,2.3-2.8C868.3,109.5,867.6,108,866.5,107.6z
				 M857.2,74.2V81h-8.1v-6.8H857.2z M823.7,44.4l25.7,10.2h-25.7V44.4L823.7,44.4z M755.6,74.2V81h-8.1v-6.8H755.6z M755.6,127.1
				v6.8h-8.1v-6.8H755.6z M785.6,43.4h33.5v11.2h-33.5V43.4z M819.1,61v26.1L790.9,61C790.9,61,819.1,61,819.1,61z M785.6,63.8
				l28.2,26.1h-28.2V63.8L785.6,63.8z M785.6,96.2h33.5v11.2h-33.5V96.2z M781.1,189l21.3-20.7l21.3,20.7H781.1z M821.2,195.4
				l-18.8,13.1l-18.8-13.1H821.2z M790.6,149.1h23.5l-11.7,11.4L790.6,149.1z M819.1,113.9v26.1l-28.2-26.1H819.1z M785.6,116.6
				l28.2,26.1h-28.2V116.6z M755.3,54.6L781,44.4v10.2H755.3z M755.3,107.5L781,97.3v10.2L755.3,107.5L755.3,107.5z M784.7,151.1
				l13.7,13.3l-20.5,20L784.7,151.1z M775.3,196.7l22,15.2l-29.3,20.3L775.3,196.7z M840.4,241.6L840.4,241.6L840.4,241.6
				C840.4,241.6,840.4,241.6,840.4,241.6l4,0v6.8h0h-84.2v-6.8h4c0,0,0,0,0,0c0,0,0,0,0,0h0c0,0,0,0,0,0H786c1.3,0,2.3-1.4,2.3-3.2
				c0-1.8-1-3.2-2.3-3.2h-12l28.3-19.7l28.3,19.7h-34.4c-1.3,0-2.3,1.4-2.3,3.2c0,1.8,1,3.2,2.3,3.2L840.4,241.6
				C840.4,241.6,840.4,241.6,840.4,241.6z M836.8,232.3L807.5,212l22-15.2L836.8,232.3z M826.9,184.4l-20.5-20l13.7-13.3
				L826.9,184.4z M823.7,107.5V97.3l25.7,10.2H823.7z M857.2,127.1v6.8h-8.1v-6.8H857.2z"/>
		</g>
	</g>
	<g>
	</g>
	<g>
	</g>
	<g>
	</g>
	<g>
	</g>
	<g>
	</g>
	<g>
	</g>
	<g>
	</g>
	<g>
	</g>
	<g>
	</g>
	<g>
	</g>
	<g>
	</g>
	<g>
	</g>
	<g>
	</g>
	<g>
	</g>
	<g>
	</g>
</g>
<g>
	<g>
		<g>
			<path d="M1139.4,107.9l-42.7-17V61.3h27.1v6.8h-4c-1.3,0-2.3,1.4-2.3,3.2v13.2c0,1.8,1,3.2,2.3,3.2h12.7c1.3,0,2.3-1.4,2.3-3.2
				V71.4c0-1.8-1-3.2-2.3-3.2h-4v-6.8h10.4c1.1,0,2.1-1.2,2.3-2.8c0.2-1.6-0.5-3.1-1.6-3.5L1095,37.5c0,0,0,0,0,0l0,0c0,0,0,0-0.1,0
				c0,0-0.1,0-0.1,0c0,0-0.1,0-0.1,0c0,0-0.1,0-0.1,0c-0.1,0-0.1,0-0.2,0c0,0,0,0-0.1,0h0c0,0,0,0,0,0h-38c0,0,0,0,0,0h0
				c0,0,0,0-0.1,0c-0.1,0-0.1,0-0.2,0c0,0-0.1,0-0.1,0c0,0-0.1,0-0.1,0c0,0-0.1,0-0.1,0c0,0,0,0-0.1,0l0,0c0,0,0,0,0,0l-44.4,17.6
				c-1.1,0.4-1.8,1.9-1.6,3.5c0.2,1.6,1.1,2.8,2.3,2.8h10.4v6.8h-4c-1.3,0-2.3,1.4-2.3,3.2v13.2c0,1.8,1,3.2,2.3,3.2h12.7
				c1.3,0,2.3-1.4,2.3-3.2V71.4c0-1.8-1-3.2-2.3-3.2h-4v-6.8h27.1V91l-42.7,17c-1.1,0.4-1.8,1.9-1.6,3.5c0.2,1.6,1.1,2.8,2.3,2.8
				h10.4v6.8h-4c-1.3,0-2.3,1.4-2.3,3.2v13.2c0,1.8,1,3.2,2.3,3.2h12.7c1.3,0,2.3-1.4,2.3-3.2v-13.2c0-1.8-1-3.2-2.3-3.2h-4v-6.8
				h27.1v31.6l-9.4,45.8c0,0,0,0,0,0l0,0.1c0,0,0,0,0,0l0,0c0,0,0,0,0,0l-9,43.9h-4.6c-1.3,0-2.3,1.4-2.3,3.2v10h-4.7
				c-1.3,0-2.3,1.4-2.3,3.2c0,1.8,1,3.2,2.3,3.2h7h88.8h7c1.3,0,2.3-1.4,2.3-3.2c0-1.8-1-3.2-2.3-3.2h-4.7v-10c0-1.8-1-3.2-2.3-3.2
				h-4.6l-9-43.9c0,0,0,0,0,0l0-0.1c0,0,0,0,0,0l-9.4-45.8v-31.6h27.1v6.8h-4c-1.3,0-2.3,1.4-2.3,3.2v13.2c0,1.8,1,3.2,2.3,3.2h12.7
				c1.3,0,2.3-1.4,2.3-3.2v-13.2c0-1.8-1-3.2-2.3-3.2h-4v-6.8h10.4c1.1,0,2.1-1.2,2.3-2.8C1141.2,109.9,1140.5,108.4,1139.4,107.9z
				 M1130.1,74.6v6.8h-8.1v-6.8H1130.1z M1096.6,44.8l25.7,10.2h-25.7L1096.6,44.8L1096.6,44.8z M1028.6,74.6v6.8h-8.1v-6.8H1028.6z
				 M1028.6,127.4v6.8h-8.1v-6.8H1028.6z M1058.5,43.7h33.5v11.2h-33.5V43.7z M1092,61.3v26.1l-28.2-26.1
				C1063.8,61.3,1092,61.3,1092,61.3z M1058.5,64.1l28.2,26.1h-28.2V64.1L1058.5,64.1z M1058.5,96.6h33.5v11.2h-33.5V96.6z
				 M1054,189.3l21.3-20.7l21.3,20.7H1054z M1094.1,195.7l-18.8,13.1l-18.8-13.1H1094.1z M1063.5,149.5h23.5l-11.7,11.4
				L1063.5,149.5z M1092,114.2v26.1l-28.2-26.1H1092z M1058.5,117l28.2,26.1h-28.2V117z M1028.3,54.9l25.7-10.2v10.2H1028.3z
				 M1028.3,107.8l25.7-10.2v10.2L1028.3,107.8L1028.3,107.8z M1057.6,151.4l13.7,13.3l-20.5,20L1057.6,151.4z M1048.2,197.1
				l22,15.2l-29.3,20.3L1048.2,197.1z M1113.3,242L1113.3,242L1113.3,242C1113.4,242,1113.4,242,1113.3,242l4,0v6.8h0h-84.2V242h4
				c0,0,0,0,0,0c0,0,0,0,0,0h0c0,0,0,0,0,0h21.7c1.3,0,2.3-1.4,2.3-3.2c0-1.8-1-3.2-2.3-3.2h-12l28.3-19.7l28.3,19.7h-34.4
				c-1.3,0-2.3,1.4-2.3,3.2c0,1.8,1,3.2,2.3,3.2L1113.3,242C1113.3,242,1113.3,242,1113.3,242z M1109.7,232.7l-29.3-20.3l22-15.2
				L1109.7,232.7z M1099.8,184.7l-20.5-20l13.7-13.3L1099.8,184.7z M1096.6,107.8V97.6l25.7,10.2H1096.6z M1130.1,127.4v6.8h-8.1
				v-6.8H1130.1z"/>
		</g>
	</g>
	<g>
	</g>
	<g>
	</g>
	<g>
	</g>
	<g>
	</g>
	<g>
	</g>
	<g>
	</g>
	<g>
	</g>
	<g>
	</g>
	<g>
	</g>
	<g>
	</g>
	<g>
	</g>
	<g>
	</g>
	<g>
	</g>
	<g>
	</g>
	<g>
	</g>
</g>
<g>
	<g>
		<g>
			<path d="M1416,107.9l-42.7-17V61.3h27.1v6.8h-4c-1.3,0-2.3,1.4-2.3,3.2v13.2c0,1.8,1,3.2,2.3,3.2h12.7c1.3,0,2.3-1.4,2.3-3.2
				V71.4c0-1.8-1-3.2-2.3-3.2h-4v-6.8h10.4c1.1,0,2.1-1.2,2.3-2.8c0.2-1.6-0.5-3.1-1.6-3.5l-44.4-17.6c0,0,0,0,0,0l0,0
				c0,0,0,0-0.1,0c0,0-0.1,0-0.1,0c0,0-0.1,0-0.1,0c0,0-0.1,0-0.1,0c-0.1,0-0.1,0-0.2,0c0,0,0,0-0.1,0h0c0,0,0,0,0,0h-38
				c0,0,0,0,0,0h0c0,0,0,0-0.1,0c-0.1,0-0.1,0-0.2,0c0,0-0.1,0-0.1,0c0,0-0.1,0-0.1,0c0,0-0.1,0-0.1,0c0,0,0,0-0.1,0l0,0
				c0,0,0,0,0,0l-44.4,17.6c-1.1,0.4-1.8,1.9-1.6,3.5c0.2,1.6,1.1,2.8,2.3,2.8h10.4v6.8h-4c-1.3,0-2.3,1.4-2.3,3.2v13.2
				c0,1.8,1,3.2,2.3,3.2h12.7c1.3,0,2.3-1.4,2.3-3.2V71.4c0-1.8-1-3.2-2.3-3.2h-4v-6.8h27.1V91l-42.7,17c-1.1,0.4-1.8,1.9-1.6,3.5
				c0.2,1.6,1.1,2.8,2.3,2.8h10.4v6.8h-4c-1.3,0-2.3,1.4-2.3,3.2v13.2c0,1.8,1,3.2,2.3,3.2h12.7c1.3,0,2.3-1.4,2.3-3.2v-13.2
				c0-1.8-1-3.2-2.3-3.2h-4v-6.8h27.1v31.6l-9.4,45.8c0,0,0,0,0,0l0,0.1c0,0,0,0,0,0l0,0c0,0,0,0,0,0l-9,43.9h-4.6
				c-1.3,0-2.3,1.4-2.3,3.2v10h-4.7c-1.3,0-2.3,1.4-2.3,3.2c0,1.8,1,3.2,2.3,3.2h7h88.8h7c1.3,0,2.3-1.4,2.3-3.2
				c0-1.8-1-3.2-2.3-3.2h-4.7v-10c0-1.8-1-3.2-2.3-3.2h-4.6l-9-43.9c0,0,0,0,0,0l0-0.1c0,0,0,0,0,0l-9.4-45.8v-31.6h27.1v6.8h-4
				c-1.3,0-2.3,1.4-2.3,3.2v13.2c0,1.8,1,3.2,2.3,3.2h12.7c1.3,0,2.3-1.4,2.3-3.2v-13.2c0-1.8-1-3.2-2.3-3.2h-4v-6.8h10.4
				c1.1,0,2.1-1.2,2.3-2.8C1417.8,109.9,1417.1,108.4,1416,107.9z M1406.7,74.6v6.8h-8.1v-6.8H1406.7z M1373.2,44.8l25.7,10.2h-25.7
				V44.8L1373.2,44.8z M1305.2,74.6v6.8h-8.1v-6.8H1305.2z M1305.2,127.4v6.8h-8.1v-6.8H1305.2z M1335.2,43.7h33.5v11.2h-33.5V43.7z
				 M1368.6,61.3v26.1l-28.2-26.1C1340.5,61.3,1368.6,61.3,1368.6,61.3z M1335.2,64.1l28.2,26.1h-28.2V64.1L1335.2,64.1z
				 M1335.2,96.6h33.5v11.2h-33.5V96.6z M1330.7,189.3l21.3-20.7l21.3,20.7H1330.7z M1370.7,195.7l-18.8,13.1l-18.8-13.1H1370.7z
				 M1340.2,149.5h23.5l-11.7,11.4L1340.2,149.5z M1368.6,114.2v26.1l-28.2-26.1H1368.6z M1335.2,117l28.2,26.1h-28.2V117z
				 M1304.9,54.9l25.7-10.2v10.2H1304.9z M1304.9,107.8l25.7-10.2v10.2L1304.9,107.8L1304.9,107.8z M1334.2,151.4l13.7,13.3
				l-20.5,20L1334.2,151.4z M1324.8,197.1l22,15.2l-29.3,20.3L1324.8,197.1z M1390,242L1390,242L1390,242
				C1390,242,1390,242,1390,242l4,0v6.8h0h-84.2V242h4c0,0,0,0,0,0c0,0,0,0,0,0h0c0,0,0,0,0,0h21.7c1.3,0,2.3-1.4,2.3-3.2
				c0-1.8-1-3.2-2.3-3.2h-12l28.3-19.7l28.3,19.7h-34.4c-1.3,0-2.3,1.4-2.3,3.2c0,1.8,1,3.2,2.3,3.2L1390,242
				C1390,242,1390,242,1390,242z M1386.3,232.7l-29.3-20.3l22-15.2L1386.3,232.7z M1376.5,184.7l-20.5-20l13.7-13.3L1376.5,184.7z
				 M1373.2,107.8V97.6l25.7,10.2H1373.2z M1406.7,127.4v6.8h-8.1v-6.8H1406.7z"/>
		</g>
	</g>
	<g>
	</g>
	<g>
	</g>
	<g>
	</g>
	<g>
	</g>
	<g>
	</g>
	<g>
	</g>
	<g>
	</g>
	<g>
	</g>
	<g>
	</g>
	<g>
	</g>
	<g>
	</g>
	<g>
	</g>
	<g>
	</g>
	<g>
	</g>
	<g>
	</g>
</g>
<g>
	<g>
		<g>
			<path d="M1690.7,107.2l-42.7-17V60.6h27.1v6.8h-4c-1.3,0-2.3,1.4-2.3,3.2v13.2c0,1.8,1,3.2,2.3,3.2h12.7c1.3,0,2.3-1.4,2.3-3.2
				V70.6c0-1.8-1-3.2-2.3-3.2h-4v-6.8h10.4c1.1,0,2.1-1.2,2.3-2.8c0.2-1.6-0.5-3.1-1.6-3.5l-44.4-17.6c0,0,0,0,0,0l0,0
				c0,0,0,0-0.1,0c0,0-0.1,0-0.1,0c0,0-0.1,0-0.1,0c0,0-0.1,0-0.1,0c-0.1,0-0.1,0-0.2,0c0,0,0,0-0.1,0h0c0,0,0,0,0,0h-38
				c0,0,0,0,0,0h0c0,0,0,0-0.1,0c-0.1,0-0.1,0-0.2,0c0,0-0.1,0-0.1,0c0,0-0.1,0-0.1,0c0,0-0.1,0-0.1,0c0,0,0,0-0.1,0l0,0
				c0,0,0,0,0,0l-44.4,17.6c-1.1,0.4-1.8,1.9-1.6,3.5c0.2,1.6,1.1,2.8,2.3,2.8h10.4v6.8h-4c-1.3,0-2.3,1.4-2.3,3.2v13.2
				c0,1.8,1,3.2,2.3,3.2h12.7c1.3,0,2.3-1.4,2.3-3.2V70.6c0-1.8-1-3.2-2.3-3.2h-4v-6.8h27.1v29.6l-42.7,17c-1.1,0.4-1.8,1.9-1.6,3.5
				c0.2,1.6,1.1,2.8,2.3,2.8h10.4v6.8h-4c-1.3,0-2.3,1.4-2.3,3.2v13.2c0,1.8,1,3.2,2.3,3.2h12.7c1.3,0,2.3-1.4,2.3-3.2v-13.2
				c0-1.8-1-3.2-2.3-3.2h-4v-6.8h27.1v31.6l-9.4,45.8c0,0,0,0,0,0l0,0.1c0,0,0,0,0,0l0,0c0,0,0,0,0,0l-9,43.9h-4.6
				c-1.3,0-2.3,1.4-2.3,3.2v10h-4.7c-1.3,0-2.3,1.4-2.3,3.2s1,3.2,2.3,3.2h7h88.8h7c1.3,0,2.3-1.4,2.3-3.2s-1-3.2-2.3-3.2h-4.7v-10
				c0-1.8-1-3.2-2.3-3.2h-4.6l-9-43.9c0,0,0,0,0,0l0-0.1c0,0,0,0,0,0l-9.4-45.8v-31.6h27.1v6.8h-4c-1.3,0-2.3,1.4-2.3,3.2v13.2
				c0,1.8,1,3.2,2.3,3.2h12.7c1.3,0,2.3-1.4,2.3-3.2v-13.2c0-1.8-1-3.2-2.3-3.2h-4v-6.8h10.4c1.1,0,2.1-1.2,2.3-2.8
				C1692.5,109.2,1691.8,107.7,1690.7,107.2z M1681.4,73.8v6.8h-8.1v-6.8H1681.4z M1648,44l25.7,10.2H1648V44L1648,44z M1579.9,73.8
				v6.8h-8.1v-6.8H1579.9z M1579.9,126.7v6.8h-8.1v-6.8H1579.9z M1609.9,43h33.5v11.2h-33.5V43z M1643.4,60.6v26.1l-28.2-26.1
				C1615.2,60.6,1643.4,60.6,1643.4,60.6z M1609.9,63.4l28.2,26.1h-28.2V63.4L1609.9,63.4z M1609.9,95.9h33.5v11.2h-33.5V95.9z
				 M1605.4,188.6l21.3-20.7l21.3,20.7H1605.4z M1645.4,195l-18.8,13.1l-18.8-13.1H1645.4z M1614.9,148.7h23.5l-11.7,11.4
				L1614.9,148.7z M1643.4,113.5v26.1l-28.2-26.1H1643.4z M1609.9,116.3l28.2,26.1h-28.2V116.3z M1579.6,54.2l25.7-10.2v10.2H1579.6
				z M1579.6,107.1l25.7-10.2v10.2L1579.6,107.1L1579.6,107.1z M1608.9,150.7l13.7,13.3l-20.5,20L1608.9,150.7z M1599.5,196.4
				l22,15.2l-29.3,20.3L1599.5,196.4z M1664.7,241.3L1664.7,241.3L1664.7,241.3C1664.7,241.3,1664.7,241.3,1664.7,241.3l4,0v6.8h0
				h-84.2v-6.8h4c0,0,0,0,0,0c0,0,0,0,0,0h0c0,0,0,0,0,0h21.7c1.3,0,2.3-1.4,2.3-3.2c0-1.8-1-3.2-2.3-3.2h-12l28.3-19.7l28.3,19.7
				h-34.4c-1.3,0-2.3,1.4-2.3,3.2c0,1.8,1,3.2,2.3,3.2L1664.7,241.3C1664.7,241.3,1664.7,241.3,1664.7,241.3z M1661.1,232
				l-29.3-20.3l22-15.2L1661.1,232z M1651.2,184l-20.5-20l13.7-13.3L1651.2,184z M1648,107.1V96.9l25.7,10.2H1648z M1681.4,126.7
				v6.8h-8.1v-6.8H1681.4z"/>
		</g>
	</g>
	<g>
	</g>
	<g>
	</g>
	<g>
	</g>
	<g>
	</g>
	<g>
	</g>
	<g>
	</g>
	<g>
	</g>
	<g>
	</g>
	<g>
	</g>
	<g>
	</g>
	<g>
	</g>
	<g>
	</g>
	<g>
	</g>
	<g>
	</g>
	<g>
	</g>
</g>
<path class="st2" d="M-0.9,136.7c0,0,90.4,30,201.2,0.2"/>
<path class="st2" d="M-0.9,83.8c0,0,90.4,30,201.2,0.2"/>
<path class="st2" d="M302.1,137.1c0,0,79.6,30,177.1,0.2"/>
<path class="st2" d="M302.1,84.2c0,0,79.6,30,177.1,0.2"/>
<path class="st2" d="M578.2,137.1c0,0,79.6,30,177.1,0.2"/>
<path class="st2" d="M578.2,84.2c0,0,79.6,30,177.1,0.2"/>
<path class="st2" d="M849.4,136.7c0,0,79.6,30,177.1,0.2"/>
<path class="st2" d="M849.4,83.8c0,0,79.6,30,177.1,0.2"/>
<path class="st2" d="M1124,138c0,0,79.6,30,177.1,0.2"/>
<path class="st2" d="M1124,85.2c0,0,79.6,30,177.1,0.2"/>
<path class="st2" d="M1398.6,136.7c0,0,79.6,30,177.1,0.2"/>
<path class="st2" d="M1398.6,83.8c0,0,79.6,30,177.1,0.2"/>
<path class="st2" d="M1675.3,137.3c0,0,109.6,30,243.8,0.2"/>
<path class="st2" d="M1675.3,84.5c0,0,109.6,30,243.8,0.2"/>
<rect x="1130.1" y="187.4" class="st1" width="167" height="64.2"/>
<g>
	<g>
		<path d="M1148,205.1h2.2l6.9,34.1h-2.8l-5.2-27.5l-5.2,27.5h-2.8L1148,205.1z M1144.3,227.1h9.9v4.5h-9.9V227.1z"/>
		<path d="M1160,205.1h2.6v34.1h-2.6V205.1z M1161.5,234.7h5.1c1.3,0,2.3-0.5,2.9-1.4c0.6-0.9,0.9-2.2,0.9-3.9v-0.1
			c0-1.2-0.1-2.1-0.3-3c-0.2-0.8-0.6-1.5-1-1.9s-1.1-0.7-1.8-0.7h-5.7v-4.3h5.7c1,0,1.7-0.4,2.2-1.2c0.5-0.8,0.7-2.1,0.7-3.7
			c0-1.7-0.3-3-0.8-3.8c-0.6-0.8-1.4-1.3-2.5-1.3h-5.4v-4.4h5.8c1.2,0,2.2,0.4,3,1.1c0.8,0.7,1.4,1.8,1.8,3.2s0.6,3,0.6,4.9
			c0,1.2-0.1,2.3-0.4,3.3c-0.3,1-0.6,1.9-1.1,2.6s-1.1,1.2-1.9,1.5c0.8,0.2,1.4,0.7,2,1.5s1,1.7,1.3,2.9c0.3,1.2,0.4,2.4,0.4,3.7
			v0.1c0,1.8-0.2,3.5-0.7,4.9c-0.4,1.4-1.1,2.5-1.9,3.3s-1.8,1.1-2.9,1.1h-6.1V234.7z"/>
		<path d="M1174.5,205.1h13.2v4.5h-13.2V205.1z M1179.8,207.9h2.6v31.3h-2.6V207.9z"/>
		<path d="M1196.9,205.1h2.6v34.1h-2.6V205.1z M1198.1,205.1h10.8v4.5h-10.8V205.1z M1198.1,220h9.4v4.5h-9.4V220z M1198.1,234.6
			h10.8v4.5h-10.8V234.6z"/>
		<path d="M1212.7,205.1h2.4l9.2,26.3l-0.3,0.6v-26.9h2.6v34h-2.4l-9.1-25.9l0.3-0.6v26.5h-2.6V205.1z"/>
		<path d="M1231.2,205.1h2.6v34.1h-2.6V205.1z M1232.4,205.1h10.8v4.5h-10.8V205.1z M1232.4,220h9.4v4.5h-9.4V220z M1232.4,234.6
			h10.8v4.5h-10.8V234.6z"/>
		<path d="M1247,205.1h2.6v34.1h-2.6V205.1z M1248.1,220.2h6.4c0.5,0,0.9-0.2,1.3-0.7c0.4-0.4,0.7-1.1,0.9-1.9s0.3-1.7,0.3-2.8
			s-0.1-2-0.3-2.8s-0.5-1.4-0.9-1.9c-0.4-0.4-0.8-0.7-1.3-0.7h-6.4v-4.5h6.3c1.1,0,2,0.4,2.9,1.2c0.8,0.8,1.5,2,1.9,3.5
			c0.5,1.5,0.7,3.2,0.7,5.2s-0.2,3.7-0.7,5.2c-0.5,1.5-1.1,2.6-1.9,3.5c-0.8,0.8-1.8,1.2-2.8,1.2h-6.3V220.2z M1253.2,223.7l2.6-1.1
			l4.8,16.5h-3.1L1253.2,223.7z"/>
		<path d="M1264.3,238.4c-0.8-0.7-1.5-1.8-2-3.1l2.2-2.8c0.2,0.8,0.6,1.4,1,1.8c0.5,0.4,1,0.6,1.6,0.6c1,0,1.8-0.6,2.4-1.7
			c0.6-1.2,0.8-2.8,0.8-4.9v-23.2h2.6v23.2c0,2.4-0.2,4.4-0.7,6s-1.1,2.9-2,3.8c-0.9,0.9-1.9,1.3-3.2,1.3
			C1266,239.5,1265.1,239.1,1264.3,238.4z"/>
		<path d="M1277.5,197.5h2.6v4.8h-2.6V197.5z M1280.2,239.2h-2.6v-34.1h2.6V239.2z"/>
	</g>
</g>
</svg>
