<?xml version="1.0" encoding="utf-8"?>
<!-- Generator: Adobe Illustrator 24.1.1, SVG Export Plug-In . SVG Version: 6.00 Build 0)  -->
<svg version="1.1" xmlns="http://www.w3.org/2000/svg" xmlns:xlink="http://www.w3.org/1999/xlink" x="0px" y="0px" width="1920px"
	 height="1080px" viewBox="0 0 1920 1080" style="enable-background:new 0 0 1920 1080;" xml:space="preserve">
<style type="text/css">
	.st0{fill:#F6D547;}
	.st1{fill:#E63946;}
	.st2{fill:#F49D2F;}
	.st3{fill:#D34E24;}
	.st4{fill:#DC2F02;}
</style>
<g id="Background">
	<path class="st0" d="M165.8,1080c0,0-53.8-84.1,20.6-160s137.7,120.7,142.4,160"/>
	<path class="st1" d="M0,1002.2c0,0,96.2-25.3,88.3-83.9C80.4,859.8,0,878.8,0,878.8"/>
	<path class="st2" d="M0,101.8c0,0,48.7,101.3,126.2,53.8S86.7,4.2,173.7,0H0V101.8z"/>
	<path class="st1" d="M1427.2,0c0,273.9,221,495.9,493.6,495.9V0H1427.2z"/>
	<path class="st1" d="M1517.2,1080c0,0-112.4-71.4-50.6-126.8c61.7-55.4,125.3,128.6,207.5,126.8"/>
	<path class="st3" d="M1920,1080l-51.5,0c-191.5-148.5-79.1-155.3-79.1-155.3c90.2,45.9,130.6-66.5,130.6-66.5"/>
	<path class="st2" d="M611,0c192.8,197.5,505.3,197.5,698.1,0L611,0z"/>
	<path class="st4" d="M536.1,1080c0,0,340.2-219.7,720,0H536.1z"/>
	<path class="st1" d="M0,339.2c0,0,39.2,188.3,102.5,234.2c0,0-95.8,20.6-102.5,112.4"/>
	<path class="st1" d="M0,127.2"/>
</g>
<g id="Background_1_">
</g>
</svg>
