<?xml version="1.0" encoding="utf-8"?>
<!-- Generator: Adobe Illustrator 24.1.1, SVG Export Plug-In . SVG Version: 6.00 Build 0)  -->
<svg version="1.1" id="Layer_1" xmlns="http://www.w3.org/2000/svg" xmlns:xlink="http://www.w3.org/1999/xlink" x="0px" y="0px"
	 width="150px" height="75px" viewBox="0 0 150 75" style="enable-background:new 0 0 150 75;" xml:space="preserve">
<style type="text/css">
	.st0{font-family:'RussoOne-Regular';}
	.st1{font-size:24.0736px;}
	.st2{font-size:17.6437px;}
	.st3{fill:#FCD462;}
	.st4{fill:#FCD462;stroke:#000000;stroke-miterlimit:10;}
</style>
<text transform="matrix(1.0148 0 0 1 9.3604 28.7231)" class="st0 st1">ŞEKERBEY</text>
<text transform="matrix(0.6448 0 0 1 14.6338 49.6382)" class="st0 st2">SÜRÜCÜ</text>
<g>
	<g>
		<path class="st3" d="M2.2,3.3C0.9,3.9,0,5.5,0,7.3l0,0v55.8c-0.1,2.3,1.3,4.3,3,4.5c1.8,0.1,3.3-1.7,3.4-4c0-0.2,0-0.3,0-0.5V7.3
			C6.4,4.6,4.4,2.4,2.2,3.3z"/>
	</g>
</g>
<line class="st4" x1="9.4" y1="52.5" x2="140.4" y2="52.5"/>
<line class="st4" x1="9.4" y1="64.5" x2="140.6" y2="64.5"/>
<line class="st4" x1="9.4" y1="58.4" x2="25.4" y2="58.4"/>
<line class="st4" x1="28.8" y1="58.4" x2="44.8" y2="58.4"/>
<line class="st4" x1="48" y1="58.4" x2="64" y2="58.4"/>
<line class="st4" x1="67" y1="58.4" x2="83" y2="58.4"/>
<line class="st4" x1="85.8" y1="58.4" x2="101.9" y2="58.4"/>
<g>
	<g>
		<path d="M84.2,45.1c-0.2-0.2-0.4-0.2-0.5,0c-0.2,0.2-0.2,0.4,0,0.5l1.2,1.2C85,47,85.1,47,85.2,47c0.1,0,0.2,0,0.3-0.1
			c0.2-0.2,0.2-0.4,0-0.5L84.2,45.1z"/>
		<path d="M82.9,46.7c-0.1-0.2-0.3-0.3-0.5-0.3c-0.2,0.1-0.3,0.3-0.3,0.5l0.4,1.5c0,0.2,0.2,0.3,0.4,0.3c0,0,0.1,0,0.1,0
			c0.2-0.1,0.3-0.3,0.3-0.5L82.9,46.7z"/>
		<path d="M87,44l-1.5-0.4c-0.2-0.1-0.4,0.1-0.5,0.3c-0.1,0.2,0.1,0.4,0.3,0.5l1.5,0.4c0,0,0.1,0,0.1,0c0.2,0,0.3-0.1,0.4-0.3
			C87.3,44.3,87.2,44,87,44L87,44z"/>
		<path d="M75.5,37.3c0.1,0.1,0.2,0.1,0.3,0.1s0.2,0,0.3-0.1c0.2-0.2,0.2-0.4,0-0.5l-1.2-1.2c-0.2-0.2-0.4-0.2-0.5,0
			c-0.2,0.2-0.2,0.4,0,0.5L75.5,37.3z"/>
		<path d="M72.8,38.4l1.5,0.4c0,0,0.1,0,0.1,0c0.2,0,0.3-0.1,0.4-0.3c0.1-0.2-0.1-0.4-0.3-0.5l-1.5-0.4c-0.2-0.1-0.4,0.1-0.5,0.3
			C72.4,38.1,72.5,38.4,72.8,38.4z"/>
		<path d="M76.8,35.7c0,0.2,0.2,0.3,0.4,0.3c0,0,0.1,0,0.1,0c0.2-0.1,0.3-0.3,0.3-0.5L77.1,34c-0.1-0.2-0.3-0.3-0.5-0.3
			c-0.2,0.1-0.3,0.3-0.3,0.5L76.8,35.7z"/>
		<path d="M81.4,38.9c-0.2-0.2-0.4-0.2-0.5,0c-0.2,0.2-0.2,0.4,0,0.5l0.7,0.7c0.1,0.1,0.2,0.1,0.3,0.1c0.1,0,0.2,0,0.3-0.1
			c0.2-0.2,0.2-0.4,0-0.5L81.4,38.9z"/>
		<path d="M89.8,34.8c0-0.3-0.1-0.5-0.3-0.7l-2.6-2.6c-0.2-0.2-0.4-0.3-0.7-0.3c0,0,0,0,0,0c-0.3,0-0.5,0.1-0.7,0.3l-1.8,1.8
			l-0.4-0.4c-0.1-0.1-0.3-0.2-0.5-0.2c0,0,0,0,0,0c-0.2,0-0.4,0.1-0.5,0.2l-1.2,1.2c-0.1,0.1-0.2,0.3-0.2,0.5c0,0.2,0.1,0.4,0.2,0.5
			l0.1,0.1c-0.3,1-0.6,1.4-1.1,2l-1.3,1.3c-0.2,0.2-0.3,0.5-0.3,0.7c0,0.3,0.1,0.5,0.3,0.7l2.1,2.1c0.2,0.2,0.5,0.3,0.7,0.3h0
			c0.3,0,0.5-0.1,0.7-0.3l1.3-1.3c0.6-0.6,1-0.8,2-1.1l0.1,0.1c0.1,0.1,0.3,0.2,0.5,0.2c0.2,0,0.4-0.1,0.5-0.2l1.2-1.2
			c0.1-0.1,0.2-0.3,0.2-0.5c0-0.2-0.1-0.4-0.2-0.5l-0.4-0.4l1.8-1.8C89.7,35.3,89.8,35,89.8,34.8L89.8,34.8z M86.3,39.3l-1.1-1.1
			c-0.2-0.2-0.4-0.2-0.5,0c-0.2,0.2-0.2,0.4,0,0.5l0.4,0.4c-0.8,0.3-1.3,0.6-1.9,1.2l-1.3,1.3c-0.1,0.1-0.1,0.1-0.2,0.1c0,0,0,0,0,0
			c-0.1,0-0.1,0-0.2-0.1l-2.2-2.2c-0.1-0.1-0.1-0.3,0-0.4l1.3-1.3c0.6-0.6,0.9-1.1,1.2-1.9l0.4,0.4c0.1,0.1,0.4,0.2,0.5,0
			c0.2-0.1,0.2-0.4,0-0.6l-1.1-1.1l1.2-1.2l4.7,4.6L86.3,39.3z M89,34.9l-1.8,1.8l-2.9-2.9l1.8-1.8c0.1-0.1,0.1-0.1,0.1-0.1h0
			c0,0,0.1,0,0.1,0.1l2.6,2.6c0.1,0.1,0.1,0.1,0.1,0.1C89,34.8,89,34.9,89,34.9z"/>
		<path d="M83.7,37.7c0.1,0,0.2,0,0.3-0.1c0.2-0.1,0.2-0.4,0-0.5l0,0c-0.1-0.2-0.4-0.2-0.5,0c-0.2,0.1-0.2,0.4,0,0.5
			C83.5,37.7,83.6,37.7,83.7,37.7z"/>
		<path d="M75.9,40.3c-0.2-0.2-0.5-0.3-0.8-0.3c-0.3,0-0.6,0.1-0.8,0.3l-2.5,2.5c-0.4,0.4-0.4,1.1,0,1.6l0.4,0.4l-1.8,1.8
			c-0.2,0.2-0.3,0.4-0.3,0.7c0,0.3,0.1,0.5,0.3,0.7l2.6,2.6c0.2,0.2,0.4,0.3,0.7,0.3c0.3,0,0.5-0.1,0.7-0.3l1.8-1.8l0.4,0.4
			c0.2,0.2,0.5,0.3,0.8,0.3c0.3,0,0.6-0.1,0.8-0.3l2.5-2.5c0.4-0.4,0.4-1.1,0-1.6L75.9,40.3z M73.8,50.1c-0.1,0.1-0.1,0.1-0.1,0.1
			c0,0-0.1,0-0.1-0.1l-2.6-2.6c-0.1-0.1-0.1-0.1-0.1-0.1c0,0,0-0.1,0.1-0.1l1.8-1.8l2.9,2.9L73.8,50.1z M80.1,46.1l-2.5,2.5
			c-0.1,0.1-0.1,0.1-0.2,0.1c-0.1,0-0.2,0-0.2-0.1l-4.8-4.8c-0.1-0.1-0.1-0.3,0-0.5l2.5-2.5c0.1-0.1,0.1-0.1,0.2-0.1
			c0.1,0,0.2,0,0.2,0.1l4.8,4.8C80.3,45.8,80.3,46,80.1,46.1L80.1,46.1z"/>
		<path d="M75.6,42.3c-0.2-0.2-0.4-0.2-0.5,0l-1.3,1.3c-0.2,0.2-0.2,0.4,0,0.5l3.2,3.2c0.1,0.1,0.2,0.1,0.3,0.1c0.1,0,0.2,0,0.3-0.1
			l1.3-1.3c0.1-0.1,0.1-0.2,0.1-0.3s0-0.2-0.1-0.3L75.6,42.3z M77.2,46.5l-2.6-2.6l0.7-0.7l2.6,2.6L77.2,46.5z"/>
	</g>
</g>
<text transform="matrix(0.6448 0 0 1 94.6465 47.9795)" class="st0 st2">KURSU</text>
<line class="st4" x1="105" y1="58.4" x2="121" y2="58.4"/>
<line class="st4" x1="124.4" y1="58.4" x2="140.4" y2="58.4"/>
<g>
	<g>
		<path class="st3" d="M145.7,6.7c-1.3,0.5-2.2,2.2-2.2,4v0v55.8c-0.1,2.3,1.3,4.3,3,4.5c1.8,0.1,3.3-1.7,3.4-4c0-0.2,0-0.3,0-0.5
			V10.7C150,7.9,148,5.8,145.7,6.7z"/>
	</g>
</g>
</svg>
