<?xml version="1.0" encoding="utf-8"?>
<!-- Generator: Adobe Illustrator 24.1.1, SVG Export Plug-In . SVG Version: 6.00 Build 0)  -->
<svg version="1.1" id="Layer_1" xmlns="http://www.w3.org/2000/svg" xmlns:xlink="http://www.w3.org/1999/xlink" x="0px" y="0px"
	 width="1920px" height="1080px" viewBox="0 0 1920 1080" style="enable-background:new 0 0 1920 1080;" xml:space="preserve">
<style type="text/css">
	.st0{fill:#F1FAEE;}
</style>
<path class="st0" d="M1010.7,152.2L414.4,465.9c-14.9,7.9-20.7,26.5-12.9,41.4l0,0c7.9,14.9,26.5,20.7,41.4,12.9l596.2-313.7
	c14.9-7.9,20.7-26.5,12.9-41.4l0,0C1044.3,150.1,1025.5,144.4,1010.7,152.2z"/>
<path class="st0" d="M896.5,304.2L300.3,617.9c-14.9,7.9-20.7,26.5-12.9,41.4l0,0c7.9,14.9,26.5,20.7,41.4,12.9L925,358.5
	c14.9-7.9,20.7-26.5,12.9-41.4l0,0C930.2,302.2,911.5,296.4,896.5,304.2z"/>
<path class="st0" d="M1090.4,304.7L494.2,618.4c-14.9,7.9-20.7,26.5-12.9,41.4l0,0c7.9,14.9,26.5,20.7,41.4,12.9L1118.9,359
	c14.9-7.9,20.7-26.5,12.9-41.4l0,0C1123.9,302.6,1105.3,296.9,1090.4,304.7z"/>
<path class="st0" d="M1579.7,228.5L983.5,542.2c-14.9,7.9-20.7,26.5-12.9,41.4l0,0c7.9,14.9,26.5,20.7,41.4,12.9l596.2-313.7
	c14.9-7.9,20.7-26.5,12.9-41.4l0,0C1613.3,226.4,1594.7,220.7,1579.7,228.5z"/>
<path class="st0" d="M1465.6,380.5L869.4,694.2c-14.9,7.9-20.7,26.5-12.9,41.4l0,0c7.9,14.9,26.5,20.7,41.4,12.9l596.2-313.7
	c14.9-7.9,20.7-26.5,12.9-41.4l0,0C1499.2,378.5,1480.6,372.7,1465.6,380.5z"/>
<path class="st0" d="M1659.5,381l-596.2,313.7c-14.9,7.9-20.7,26.5-12.9,41.4l0,0c7.9,14.9,26.5,20.7,41.4,12.9L1688,435.3
	c14.9-7.9,20.7-26.5,12.9-41.4l0,0C1693.1,378.9,1674.4,373.2,1659.5,381z"/>
<path class="st0" d="M0,926c0,0,467-136,960,0s960,0,960,0v154H0V926z"/>
<path class="st0" d="M1640.9,541.7c-14.9,7.9-20.7,26.5-12.9,41.4c7.9,14.9,26.5,20.7,41.4,12.9L1920,464.1v-69.3L1640.9,541.7z"/>
<path class="st0" d="M1526.8,693.7c-14.9,7.9-20.7,26.5-12.9,41.4c7.9,14.9,26.5,20.7,41.4,12.9L1920,556.1v-69.3L1526.8,693.7z"/>
<path class="st0" d="M1720.7,694.2c-14.9,7.9-20.7,26.5-12.9,41.4c7.9,14.9,26.5,20.7,41.4,12.9l170.8-89.9v-69.3L1720.7,694.2z"/>
<path class="st0" d="M372.5,214.9c-7.8-15-26.5-20.7-41.4-12.9L0,376.2v69.3l359.6-189.2C374.5,248.4,380.3,229.8,372.5,214.9z"/>
<path class="st0" d="M258.4,366.9c-7.8-14.9-26.5-20.7-41.4-12.9L0,468.2v69.3l245.5-129.2C260.4,400.4,266.2,381.8,258.4,366.9z"/>
<path class="st0" d="M452.3,367.4c-7.9-15-26.5-20.7-41.4-12.9L0,570.7V640l439.4-231.2C454.3,400.9,460.1,382.3,452.3,367.4z"/>
</svg>
