<svg id="Capa_1" enable-background="new 0 0 512 512" height="512" viewBox="0 0 512 512" width="512" xmlns="http://www.w3.org/2000/svg"><g><g><path d="m502 92.416h-149.246c-40.692 0-75.736 27.39-85.221 66.607-.005.019-.009.037-.014.056l-1.52 6.444v-51.315c22.512-4.814 39.435-24.715 39.435-48.463 0-27.335-22.42-49.573-49.978-49.573s-49.976 22.239-49.976 49.574c0 24.129 17.468 44.286 40.52 48.683v51.094l-1.52-6.444c-.005-.019-.009-.037-.014-.056-9.484-39.217-44.528-66.607-85.221-66.607h-149.245c-5.523 0-10 4.477-10 10v8.162c0 19.656 11.15 36.775 27.509 45.463v4.232c0 19.654 11.152 36.774 27.508 45.463v4.232c0 28.416 23.309 51.534 51.958 51.534h139.025v31.544h-51.472c-19.977 0-36.23 16.274-36.23 36.278s16.253 36.278 36.23 36.278h51.472v32.09h-49.561c-17.574 0-31.871 14.315-31.871 31.912s14.297 31.912 31.871 31.912h49.561v24.312c0 5.523 4.477 10 10 10 5.522 0 10-4.477 10-10v-24.312h78.786c5.522 0 10-4.477 10-10s-4.478-10-10-10h-78.786v-23.823h52.789c19.849 0 35.997-16.17 35.997-36.045s-16.148-36.045-35.997-36.045h-52.789v-32.556h53.061c19.698 0 35.725-16.047 35.725-35.772 0-5.694-1.303-11.038-3.642-15.772h53.881c28.649 0 51.958-23.118 51.958-51.534v-4.232c16.355-8.689 27.508-25.809 27.508-45.463v-4.232c16.359-8.689 27.509-25.809 27.509-45.464v-8.162c0-5.523-4.478-10-10-10zm-276.52-26.67c0-16.307 13.447-29.573 29.977-29.573s29.978 13.267 29.978 29.573-13.448 29.573-29.978 29.573-29.977-13.267-29.977-29.573zm-118.505 175.757c-16.997 0-30.938-13.159-31.904-29.696h69.874c5.522 0 10-4.477 10-10s-4.478-10-10-10h-65.478c-16.997 0-30.937-13.16-31.904-29.696h3.57c.179.01.359.015.541.015h92.336c5.522 0 10-4.477 10-10s-4.478-10-10-10h-91.51c-.179-.009-.359-.015-.541-.015-16.997 0-30.938-13.159-31.904-29.695h139.192c31.415 0 58.458 21.084 65.774 51.279l18.348 77.808zm139.025 200.013h-49.561c-6.546 0-11.871-5.344-11.871-11.912s5.325-11.912 11.871-11.912h49.561zm72.789-75.913c8.821 0 15.997 7.198 15.997 16.045s-7.176 16.045-15.997 16.045h-52.789v-32.09zm-72.789-20h-51.472c-8.949 0-16.23-7.302-16.23-16.278s7.28-16.278 16.23-16.278h51.472zm88.786-68.328c0 8.697-7.054 15.772-15.725 15.772h-53.061v-31.544h51.977c9.583 0 16.809 6.78 16.809 15.772zm125.256-135.164c-.181 0-.362.005-.54.015h-47.968c-5.522 0-10 4.477-10 10s4.478 10 10 10h52.903c-.974 16.529-14.911 29.681-31.903 29.681h-65.478c-5.522 0-10 4.477-10 10s4.478 10 10 10h69.874c-.967 16.537-14.907 29.696-31.904 29.696h-136.394l18.348-77.808c7.316-30.195 34.359-51.279 65.774-51.279h139.192c-.967 16.536-14.907 29.695-31.904 29.695z"/><path d="m360.59 160.44c3.535 2.356 8.259 2.183 11.637-.379 3.274-2.483 4.678-6.917 3.483-10.841-1.209-3.973-4.876-6.861-9.029-7.08-4.196-.221-8.159 2.285-9.77 6.16-1.799 4.325-.26 9.562 3.679 12.14z"/></g></g></svg>