<svg height="512pt" viewBox="-29 0 512 512" width="512pt" xmlns="http://www.w3.org/2000/svg"><path d="m386.515625 348.085938c-2.929687-2.929688-7.679687-2.929688-10.609375 0l-42.636719 42.636718-19.230469-19.230468c-2.929687-2.929688-7.675781-2.929688-10.605468 0l-24.824219 24.824218c-2.929687 2.929688-2.929687 7.675782 0 10.605469 0 0 49.320313 49.320313 49.359375 49.359375 2.886719 2.890625 7.71875 2.890625 10.605469 0 0 0 72.648437-72.644531 72.765625-72.761719 2.894531-2.898437 2.890625-7.714843 0-10.609375zm-53.246094 92.285156-38.753906-38.75 14.21875-14.21875 19.230469 19.230468c2.929687 2.929688 7.679687 2.929688 10.605468 0l42.640626-42.636718 14.214843 14.21875zm0 0"/><path d="m62.097656 89.324219c4.140625 0 7.5-3.359375 7.5-7.5v-12.84375c0-4.140625-3.359375-7.5-7.5-7.5-4.144531 0-7.5 3.359375-7.5 7.5v12.84375c0 4.140625 3.355469 7.5 7.5 7.5zm0 0"/><path d="m211.527344 81.824219v-12.84375c0-4.140625-3.359375-7.5-7.5-7.5-4.144532 0-7.5 3.359375-7.5 7.5v12.84375c0 4.140625 3.355468 7.5 7.5 7.5 4.140625 0 7.5-3.359375 7.5-7.5zm0 0"/><path d="m133.0625 96.179688c8.988281 0 17.429688-3.757813 23.160156-10.3125 2.726563-3.121094 2.410156-7.855469-.710937-10.582032-3.117188-2.726562-7.855469-2.410156-10.582031.707032-2.878907 3.296874-7.207032 5.1875-11.867188 5.1875-4.664062 0-8.988281-1.890626-11.871094-5.1875-2.726562-3.117188-7.464844-3.433594-10.582031-.707032-3.121094 2.726563-3.4375 7.460938-.710937 10.582032 5.730468 6.554687 14.171874 10.3125 23.164062 10.3125zm0 0"/><path d="m62.097656 201.238281h221.8125c4.140625 0 7.5-3.355469 7.5-7.5 0-4.140625-3.359375-7.5-7.5-7.5h-221.8125c-4.144531 0-7.5 3.359375-7.5 7.5 0 4.144531 3.355469 7.5 7.5 7.5zm0 0"/><path d="m62.097656 255.40625h221.8125c4.140625 0 7.5-3.355469 7.5-7.5 0-4.140625-3.359375-7.5-7.5-7.5h-221.8125c-4.144531 0-7.5 3.359375-7.5 7.5 0 4.144531 3.355469 7.5 7.5 7.5zm0 0"/><path d="m62.097656 309.574219h141.566406c4.140626 0 7.5-3.359375 7.5-7.5s-3.359374-7.5-7.5-7.5h-141.566406c-4.144531 0-7.5 3.359375-7.5 7.5s3.355469 7.5 7.5 7.5zm0 0"/><path d="m62.097656 363.742188h141.929688c4.140625 0 7.5-3.359376 7.5-7.5 0-4.144532-3.359375-7.5-7.5-7.5h-141.929688c-4.144531 0-7.5 3.355468-7.5 7.5 0 4.140624 3.355469 7.5 7.5 7.5zm0 0"/><path d="m30.453125 478.429688h235.566406c19.980469 20.683593 47.988281 33.570312 78.953125 33.570312 22.625 0 44.355469-6.832031 62.847656-19.757812 3.394532-2.375 4.222657-7.050782 1.847657-10.445313-2.371094-3.394531-7.046875-4.222656-10.441407-1.847656-15.960937 11.152343-34.71875 17.050781-54.253906 17.050781-51.46875 0-94.816406-43.367188-94.816406-94.816406 0-51.121094 43.425781-94.8125 94.816406-94.8125 51.613282 0 94.8125 43.203125 94.8125 94.8125 0 21.625-7.089844 41.988281-20.507812 58.894531-2.574219 3.242187-2.03125 7.960937 1.214844 10.535156 3.242187 2.574219 7.960937 2.03125 10.535156-1.210937 15.542968-19.582032 23.757812-43.171875 23.757812-68.21875 0-47.757813-30.648437-88.488282-73.308594-103.566406 0 0 0-175.757813 0-175.761719 0-1.871094-.769531-4.035157-2.195312-5.300781 0 0-115.351562-115.355469-115.355469-115.355469-1.390625-1.394531-3.335937-2.199219-5.304687-2.199219h-228.167969c-16.792969 0-30.453125 13.660156-30.453125 30.453125v82.832031c0 4.140625 3.359375 7.5 7.5 7.5s7.5-3.359375 7.5-7.5v-82.832031c0-8.519531 6.933594-15.453125 15.453125-15.453125h220.671875v84.246094c0 17.152344 13.953125 31.109375 31.109375 31.109375h84.246094v164.128906c-7.074219-1.40625-14.292969-2.113281-21.507813-2.113281-60.550781 0-109.8125 49.261718-109.8125 109.8125 0 21.675781 6.550782 43.257812 18.652344 61.246094h-223.359375c-8.519531 0-15.453125-6.933594-15.453125-15.453126v-304.773437c0-4.144531-3.359375-7.5-7.5-7.5s-7.5 3.355469-7.5 7.5v304.773437c0 16.789063 13.660156 30.453126 30.453125 30.453126zm251.78125-363.074219c-8.882813 0-16.113281-7.226563-16.113281-16.109375v-73.640625l89.75 89.75zm0 0"/></svg>