<svg id="_x33_0" enable-background="new 0 0 64 64" height="512" viewBox="0 0 64 64" width="512" xmlns="http://www.w3.org/2000/svg"><g><path d="m35 55h2v2h-2z"/><path d="m27 55h2v2h-2z"/><path d="m17 39h-10v8h10zm-8 2h2v4h-2zm6 4h-2v-4h2z"/><path d="m63 25v-2h-20v-6h1.734c1.249 0 2.266-1.017 2.266-2.266 0-.812-.438-1.565-1.142-1.967l-19.494-11.139c-1.437-.821-3.292-.821-4.729 0l-19.493 11.139c-.704.402-1.142 1.156-1.142 1.967 0 1.249 1.017 2.266 2.266 2.266h1.734v12h-2c-1.103 0-2 .897-2 2v2c0 1.103.897 2 2 2v14c-1.103 0-2 .897-2 2v12h62v-12c0-1.103-.897-2-2-2v-14c1.103 0 2-.897 2-2v-2c0-1.103-.897-2-2-2v-4zm-10 4v-4h2v4zm-4 28h-2v-2h2zm0-4h-2v-2h2zm-2 6h2v2h-2zm4-8h2v10h-2zm6 6h-2v-2h2zm-2 2h2v2h-2zm2-6h-2v-2h2zm-2-12h-6v-2h6zm-6 2h6v2h-6zm0 4h6v2h-6zm-8 4v-14h2v12c-1.103 0-2 .897-2 2zm-10 10h-8v-4c0-4.411 3.589-8 8-8zm-24-6h2v2h-2zm6 6h-2v-10h2zm2-6h2v2h-2zm0 4h2v2h-2zm6-22h2v14c0-1.103-.897-2-2-2zm0 14v10h-2v-10zm10-4c-.685 0-1.354.07-2 .202v-6.202h6v6.202c-.646-.132-1.315-.202-2-.202zm-4-8v8.841c-.716.314-1.383.713-2 1.178v-12.019h14v12.019c-.617-.465-1.284-.865-2-1.178v-8.841zm17.66-4h-25.32c-.187 0-.34-.152-.34-.34 0-.105.05-.206.133-.27l11.685-8.988c.336-.259.756-.402 1.182-.402s.846.143 1.183.402l11.684 8.987c.083.065.133.166.133.271 0 .188-.153.34-.34.34zm-19.66-7.646-2 1.538v-7.892h2zm8-4.193c-.655-.163-1.345-.163-2 0v-2.161h2zm8 5.731v-3.892h2v4h-1.86zm4-3.892h2v4h-2zm4 0h2v4h-2zm-46-10.266c0-.095.051-.183.134-.23l19.494-11.14c.417-.238.892-.364 1.372-.364s.955.126 1.372.364l19.495 11.14c.082.047.133.135.133.23 0 .147-.119.266-.266.266h-41.468c-.147 0-.266-.119-.266-.266zm4 2.266h34v6h-2v4.354l-4-3.077v-5.277h-6v5.277l-2 1.538v-6.815h-6v10h-14zm-4 14h17.26l-2.347 1.806c-.074.057-.133.129-.199.194h-14.714zm2 30h-2v-10h2zm0-26h12.034c.15 1.016.949 1.816 1.966 1.966v12.034c-1.103 0-2 .897-2 2v2h-2v-2c0-1.103-.897-2-2-2h-2c-1.103 0-2 .897-2 2v2h-2v-2c0-1.103-.897-2-2-2zm2 24h2v2h-2zm34 2h-8v-12c4.411 0 8 3.589 8 8zm2-10h2v10h-2zm18 10h-2v-10h2zm-2-12h-2v-12h-10v12h-2v-12.034c1.017-.15 1.816-.949 1.966-1.966h12.034zm2-16h-14.713c-.066-.065-.125-.138-.2-.195l-2.347-1.805h17.26zm-2-4h-2v-4h2z"/><path d="m9 19v8h10v-8zm2 2h2v4h-2zm6 4h-2v-4h2z"/></g></svg>