<?xml version="1.0"?>
<svg xmlns="http://www.w3.org/2000/svg" viewBox="0 0 64 64" width="512" height="512"><g id="protect-protection-stay_home-safty-home" data-name="protect-protection-stay home-safty-home"><path d="M52,54H33.66a3.98,3.98,0,0,0-.07-2H43a1,1,0,0,0,1-1V35.41l1.29,1.3A1.007,1.007,0,0,0,46,37a.838.838,0,0,0,.38-.08A.987.987,0,0,0,47,36V31a1.033,1.033,0,0,0-.29-.71l-14-14a1.008,1.008,0,0,0-1.42,0l-14,14A1.033,1.033,0,0,0,17,31v5a.987.987,0,0,0,.62.92,1,1,0,0,0,1.09-.21L20,35.41v7.72A4.819,4.819,0,0,0,18.93,43H3a1,1,0,0,0-1,1V56a1,1,0,0,0,1,1H9.69a3.029,3.029,0,0,1,1.95.72l3.59,3.08A5.017,5.017,0,0,0,18.48,62H52a4,4,0,0,0,0-8ZM8,55H4V45H8Zm34-5H32.29a5.006,5.006,0,0,0-.53-.37L28.93,48H31a1,1,0,0,0,1-1,1,1,0,0,0,1,1h6a1,1,0,0,0,1-1V43a2.983,2.983,0,0,0-1.4-2.53A2.942,2.942,0,0,0,39,39V37.82A3.01,3.01,0,0,0,41,35V34a1,1,0,0,0-1-1H34a1,1,0,0,0-1,1v5a2.942,2.942,0,0,0,.4,1.47A2.983,2.983,0,0,0,32,43a2.983,2.983,0,0,0-1.4-2.53A2.942,2.942,0,0,0,31,39V34a1,1,0,0,0-1-1H24a1,1,0,0,0-1,1v1a3.01,3.01,0,0,0,2,2.82V39a2.942,2.942,0,0,0,.4,1.47A2.983,2.983,0,0,0,24,43v2.16L22,44V33.41l10-10,10,10ZM26,36a1,1,0,0,1-1-1h4v1Zm3,2v1a1,1,0,0,1-2,0V38Zm-3,5a1,1,0,0,1,1-1h2a1,1,0,0,1,1,1v3H26Zm11-5v1a1,1,0,0,1-2,0V38Zm-2-2V35h4a1,1,0,0,1-1,1Zm2,6a1,1,0,0,1,1,1v3H34V43a1,1,0,0,1,1-1ZM19,33.59V31.41l13-13,13,13v2.18L32.71,21.29a1.014,1.014,0,0,0-1.42,0ZM52,60H18.48a3.009,3.009,0,0,1-1.95-.72L12.94,56.2A5.051,5.051,0,0,0,10,55.03V45h8.93a3.062,3.062,0,0,1,1.5.4l3.78,2.19a1.027,1.027,0,0,0,.68.39l5.87,3.39a2,2,0,0,1,.73,2.73,2.006,2.006,0,0,1-2.73.73L17.5,48.33l-1,1.73,11.26,6.5A3.989,3.989,0,0,0,32.51,56H52a2,2,0,0,1,0,4Z"/><path d="M61,7H54.31a3.029,3.029,0,0,1-1.95-.72L48.77,3.2A5.017,5.017,0,0,0,45.52,2H12a4,4,0,0,0,0,8H30.34a4.019,4.019,0,0,0,1.9,4.37l10.33,5.96a5.009,5.009,0,0,0,2.5.67H61a1,1,0,0,0,1-1V8A1,1,0,0,0,61,7ZM54,19H45.07a3.062,3.062,0,0,1-1.5-.4L33.24,12.63a2,2,0,0,1-.73-2.73,1.993,1.993,0,0,1,2.73-.73l11.26,6.5,1-1.73L36.24,7.44A3.989,3.989,0,0,0,31.49,8H12a2,2,0,0,1,0-4H45.52a3.009,3.009,0,0,1,1.95.72L51.06,7.8A5.051,5.051,0,0,0,54,8.97Zm6,0H56V9h4Z"/></g></svg>
